<?xml version="1.0" encoding="utf-8"?>
<!-- Generator: Adobe Illustrator 24.1.2, SVG Export Plug-In . SVG Version: 6.00 Build 0)  -->
<svg version="1.1" id="Layer_1" xmlns="http://www.w3.org/2000/svg" xmlns:xlink="http://www.w3.org/1999/xlink" x="0px" y="0px"
	 viewBox="0 0 239.3 240" style="enable-background:new 0 0 239.3 240;" xml:space="preserve">
<style type="text/css">
	.st0{fill:#F7F7F7;}
	.st1{fill:#FFFFFF;}
	.st2{fill:url(#SVGID_1_);}
	.st3{fill:url(#SVGID_2_);}
	.st4{fill:url(#SVGID_3_);}
	.st5{fill:#808080;}
</style>
<g>
	<g>
		<g>
			<path d="M-24.8,282.8c-0.5,0-0.8-0.1-1.1-0.4s-0.4-0.6-0.5-0.9l-4.4-25.8c0,0,0-0.1,0-0.2c0,0,0-0.1,0-0.1c0-0.2,0.1-0.4,0.3-0.6
				c0.2-0.2,0.4-0.3,0.6-0.3h5c0.8,0,1.2,0.3,1.3,0.9l2.6,15.8l2.9-9.3c0.1-0.2,0.2-0.5,0.4-0.7c0.2-0.3,0.5-0.4,0.9-0.4h2.9
				c0.5,0,0.8,0.1,1,0.4c0.2,0.3,0.3,0.5,0.4,0.7l2.9,9.3l2.6-15.8c0.1-0.6,0.5-0.9,1.3-0.9h5c0.2,0,0.4,0.1,0.6,0.3
				c0.2,0.2,0.2,0.4,0.2,0.6c0,0,0,0.1,0,0.1s0,0.1,0,0.2l-4.4,25.8c-0.1,0.4-0.2,0.7-0.5,0.9s-0.6,0.4-1.1,0.4h-3.8
				c-0.5,0-0.8-0.1-1.1-0.4s-0.4-0.5-0.5-0.7l-4.1-11.6l-4.1,11.6c-0.1,0.2-0.2,0.4-0.5,0.7c-0.2,0.2-0.6,0.4-1,0.4H-24.8z"/>
			<path d="M8.2,282.8c-0.3,0-0.5-0.1-0.7-0.3s-0.3-0.4-0.3-0.7v-26.3c0-0.3,0.1-0.5,0.3-0.7s0.4-0.3,0.7-0.3h5.2
				c0.3,0,0.5,0.1,0.7,0.3c0.2,0.2,0.3,0.4,0.3,0.7v9.8h10v-9.8c0-0.3,0.1-0.5,0.3-0.7s0.4-0.3,0.7-0.3h5.2c0.3,0,0.5,0.1,0.7,0.3
				c0.2,0.2,0.3,0.4,0.3,0.7v26.3c0,0.3-0.1,0.5-0.3,0.7s-0.4,0.3-0.7,0.3h-5.2c-0.3,0-0.5-0.1-0.7-0.3s-0.3-0.4-0.3-0.7v-10.1h-10
				v10.1c0,0.3-0.1,0.5-0.3,0.7s-0.4,0.3-0.7,0.3H8.2z"/>
			<path d="M41.4,282.8c-0.3,0-0.5-0.1-0.7-0.3s-0.3-0.4-0.3-0.7v-26.3c0-0.3,0.1-0.5,0.3-0.7s0.4-0.3,0.7-0.3h5.4
				c0.3,0,0.5,0.1,0.7,0.3c0.2,0.2,0.3,0.4,0.3,0.7v26.3c0,0.3-0.1,0.5-0.3,0.7s-0.4,0.3-0.7,0.3H41.4z"/>
			<path d="M63.8,282.8c-0.3,0-0.5-0.1-0.7-0.3s-0.3-0.4-0.3-0.7v-21h-7.2c-0.3,0-0.5-0.1-0.7-0.3c-0.2-0.2-0.3-0.4-0.3-0.7v-4.3
				c0-0.3,0.1-0.5,0.3-0.7s0.4-0.3,0.7-0.3h21.8c0.3,0,0.5,0.1,0.7,0.3c0.2,0.2,0.3,0.4,0.3,0.7v4.3c0,0.3-0.1,0.5-0.3,0.7
				c-0.2,0.2-0.4,0.3-0.7,0.3h-7.2v21c0,0.3-0.1,0.5-0.3,0.7c-0.2,0.2-0.4,0.3-0.7,0.3H63.8z"/>
			<path d="M86,282.8c-0.3,0-0.5-0.1-0.7-0.3s-0.3-0.4-0.3-0.7v-26.3c0-0.3,0.1-0.5,0.3-0.7s0.4-0.3,0.7-0.3h18.9
				c0.3,0,0.5,0.1,0.7,0.3c0.2,0.2,0.3,0.4,0.3,0.7v3.8c0,0.3-0.1,0.5-0.3,0.7s-0.4,0.3-0.7,0.3H92v5.5h12c0.3,0,0.5,0.1,0.7,0.3
				c0.2,0.2,0.3,0.5,0.3,0.8v3.5c0,0.3-0.1,0.5-0.3,0.7c-0.2,0.2-0.4,0.3-0.7,0.3H92v5.6h13.2c0.3,0,0.5,0.1,0.7,0.3
				c0.2,0.2,0.3,0.4,0.3,0.7v3.8c0,0.3-0.1,0.5-0.3,0.7c-0.2,0.2-0.4,0.3-0.7,0.3L86,282.8L86,282.8z"/>
			<path d="M136.1,283.2c-2.7,0-4.9-0.4-6.7-1.1s-3.1-1.8-4-3c-0.9-1.2-1.4-2.6-1.5-4c0-0.2,0.1-0.4,0.3-0.6
				c0.2-0.2,0.4-0.3,0.6-0.3h5.1c0.4,0,0.7,0.1,0.9,0.2c0.2,0.1,0.4,0.3,0.5,0.5c0.2,0.4,0.5,0.8,0.9,1.2c0.4,0.4,0.9,0.7,1.5,0.9
				c0.6,0.2,1.4,0.3,2.4,0.3c1.6,0,2.7-0.2,3.5-0.7c0.8-0.5,1.2-1.1,1.2-2c0-0.6-0.2-1.1-0.6-1.5c-0.4-0.4-1.1-0.7-2.1-1
				c-1-0.3-2.2-0.6-3.8-1c-2-0.4-3.8-1-5.2-1.7s-2.5-1.6-3.3-2.7c-0.8-1.1-1.1-2.5-1.1-4.2c0-1.6,0.5-3.1,1.4-4.4
				c0.9-1.3,2.2-2.3,3.9-3c1.7-0.7,3.6-1.1,6-1.1c1.9,0,3.5,0.2,4.9,0.7c1.4,0.5,2.6,1.1,3.6,1.9s1.7,1.7,2.2,2.6
				c0.5,0.9,0.8,1.8,0.8,2.6c0,0.2-0.1,0.4-0.2,0.6s-0.4,0.3-0.6,0.3h-5.3c-0.3,0-0.5,0-0.8-0.2c-0.2-0.1-0.4-0.3-0.6-0.5
				c-0.2-0.6-0.6-1.1-1.3-1.6c-0.7-0.5-1.6-0.7-2.7-0.7c-1.2,0-2.1,0.2-2.8,0.6s-1,1.1-1,1.9c0,0.5,0.2,1,0.5,1.4
				c0.4,0.4,1,0.8,1.8,1c0.9,0.3,2,0.6,3.5,0.9c2.5,0.5,4.4,1,6,1.7s2.6,1.6,3.3,2.7c0.7,1.1,1,2.5,1,4.1c0,1.8-0.5,3.4-1.6,4.8
				c-1,1.3-2.5,2.4-4.3,3C140.6,282.9,138.5,283.2,136.1,283.2z"/>
			<path d="M156.4,282.8c-0.3,0-0.5-0.1-0.7-0.3s-0.3-0.4-0.3-0.7v-26.3c0-0.3,0.1-0.5,0.3-0.7s0.4-0.3,0.7-0.3h11.3
				c2.2,0,4.2,0.3,5.8,1c1.7,0.7,3,1.7,3.9,3.1c0.9,1.4,1.4,3.1,1.4,5.2c0,2.1-0.5,3.8-1.4,5.1c-0.9,1.4-2.2,2.4-3.9,3
				c-1.7,0.6-3.6,1-5.8,1h-4.8v8.9c0,0.3-0.1,0.5-0.3,0.7c-0.2,0.2-0.5,0.3-0.8,0.3L156.4,282.8L156.4,282.8z M162.8,267.4h4.7
				c1.2,0,2.1-0.3,2.8-0.9s1-1.5,1-2.7c0-1-0.3-1.9-0.9-2.6c-0.6-0.7-1.6-1-2.9-1h-4.7L162.8,267.4L162.8,267.4z"/>
			<path d="M182.2,282.8c-0.2,0-0.4-0.1-0.6-0.3s-0.3-0.4-0.3-0.6c0-0.1,0-0.3,0-0.4l9.5-26c0.1-0.3,0.3-0.6,0.5-0.8
				s0.6-0.3,1.1-0.3h6c0.5,0,0.8,0.1,1.1,0.3c0.3,0.2,0.4,0.5,0.5,0.8l9.5,26c0,0.1,0.1,0.2,0.1,0.4c0,0.2-0.1,0.4-0.3,0.6
				c-0.2,0.2-0.4,0.3-0.6,0.3h-5c-0.4,0-0.7-0.1-0.9-0.3c-0.2-0.2-0.3-0.4-0.4-0.5l-1.6-4.1H190l-1.5,4.1c0,0.2-0.2,0.3-0.4,0.5
				c-0.2,0.2-0.5,0.3-1,0.3H182.2z M191.7,272h7.5l-3.8-10.7L191.7,272z"/>
			<path d="M226.8,283.2c-2.6,0-4.8-0.4-6.6-1.3s-3.2-2.1-4.3-3.7s-1.6-3.6-1.7-6c0-1.1,0-2.3,0-3.6s0-2.5,0-3.6
				c0.1-2.4,0.7-4.3,1.7-6c1-1.6,2.5-2.9,4.3-3.7c1.8-0.9,4-1.3,6.5-1.3c1.8,0,3.4,0.2,4.9,0.7c1.5,0.5,2.8,1.1,4,1.9s2,1.9,2.6,3.1
				c0.6,1.2,1,2.5,1,4.1c0,0.2,0,0.4-0.2,0.6c-0.2,0.2-0.4,0.2-0.6,0.2H233c-0.4,0-0.6-0.1-0.8-0.2s-0.4-0.4-0.5-0.8
				c-0.4-1.4-1-2.4-1.8-2.9c-0.9-0.5-1.9-0.8-3.1-0.8c-1.5,0-2.7,0.4-3.5,1.2s-1.3,2.2-1.4,4.1c-0.1,2.2-0.1,4.5,0,6.8
				c0.1,1.9,0.5,3.3,1.4,4.1c0.9,0.8,2,1.2,3.5,1.2c1.2,0,2.3-0.3,3.2-0.8c0.9-0.5,1.5-1.5,1.8-2.9c0.1-0.4,0.3-0.7,0.5-0.8
				c0.2-0.1,0.5-0.2,0.8-0.2h5.5c0.2,0,0.5,0.1,0.6,0.2c0.2,0.2,0.3,0.4,0.2,0.6c0,1.5-0.4,2.9-1,4.1c-0.6,1.2-1.5,2.2-2.6,3.1
				s-2.5,1.5-4,1.9C230.2,283,228.6,283.2,226.8,283.2z"/>
			<path d="M247.6,282.8c-0.3,0-0.5-0.1-0.7-0.3s-0.3-0.4-0.3-0.7v-26.3c0-0.3,0.1-0.5,0.3-0.7s0.4-0.3,0.7-0.3h18.9
				c0.3,0,0.5,0.1,0.7,0.3c0.2,0.2,0.3,0.4,0.3,0.7v3.8c0,0.3-0.1,0.5-0.3,0.7c-0.2,0.2-0.4,0.3-0.7,0.3h-12.9v5.5h12
				c0.3,0,0.5,0.1,0.7,0.3c0.2,0.2,0.3,0.5,0.3,0.8v3.5c0,0.3-0.1,0.5-0.3,0.7c-0.2,0.2-0.4,0.3-0.7,0.3h-12v5.6h13.2
				c0.3,0,0.5,0.1,0.7,0.3c0.2,0.2,0.3,0.4,0.3,0.7v3.8c0,0.3-0.1,0.5-0.3,0.7s-0.4,0.3-0.7,0.3L247.6,282.8L247.6,282.8z"/>
		</g>
		<g>
			<path d="M22.9,310.9c-1.4,0-2.6-0.3-3.6-0.8c-1-0.6-1.7-1.3-2.2-2.4c-0.5-1-0.8-2.2-0.8-3.5c0-0.8,0-1.5,0-2.4c0-0.8,0-1.6,0-2.4
				c0.1-1.3,0.3-2.5,0.8-3.5s1.3-1.8,2.3-2.3s2.2-0.8,3.6-0.8c1.2,0,2.1,0.2,3,0.5c0.8,0.3,1.5,0.8,2,1.3c0.5,0.5,0.9,1,1.2,1.5
				c0.3,0.5,0.4,1,0.4,1.3c0,0.1,0,0.3-0.1,0.4s-0.2,0.1-0.4,0.1h-0.6c-0.1,0-0.3,0-0.3-0.1c-0.1-0.1-0.1-0.2-0.2-0.4
				c-0.2-0.5-0.4-1-0.8-1.5s-0.9-0.9-1.6-1.2s-1.5-0.5-2.5-0.5c-1.5,0-2.7,0.4-3.6,1.2c-0.9,0.8-1.4,2.2-1.5,4.1
				c-0.1,1.5-0.1,3,0,4.5c0.1,1.9,0.6,3.2,1.5,4c0.9,0.8,2.1,1.2,3.6,1.2c1,0,1.9-0.2,2.7-0.6c0.8-0.4,1.4-1,1.9-1.7s0.7-1.8,0.7-3
				v-1.3h-4.4c-0.2,0-0.3,0-0.4-0.2c-0.1-0.1-0.1-0.3-0.1-0.4v-0.4c0-0.2,0.1-0.3,0.1-0.4s0.2-0.1,0.4-0.1h5.4c0.2,0,0.3,0,0.4,0.1
				c0.1,0.1,0.1,0.2,0.1,0.4v2.2c0,1.3-0.3,2.5-0.8,3.5c-0.5,1-1.3,1.8-2.3,2.4C25.6,310.6,24.3,310.9,22.9,310.9z"/>
			<path d="M33.9,310.6c-0.1,0-0.3,0-0.4-0.1s-0.1-0.2-0.1-0.4c0-0.1,0-0.2,0.1-0.3l6.4-16.3c0.1-0.2,0.1-0.3,0.3-0.4
				c0.1-0.1,0.3-0.1,0.5-0.1h0.9c0.2,0,0.4,0,0.5,0.1c0.1,0.1,0.2,0.2,0.3,0.4l6.4,16.3c0,0.1,0.1,0.2,0.1,0.3
				c0,0.1-0.1,0.3-0.1,0.4c-0.1,0.1-0.2,0.1-0.4,0.1h-0.5c-0.2,0-0.3,0-0.4-0.1c-0.1-0.1-0.1-0.2-0.2-0.2l-1.6-4h-8.9l-1.6,4
				c0,0.1-0.1,0.1-0.2,0.2s-0.2,0.1-0.4,0.1H33.9z M37.1,304.8h7.7l-3.9-9.9L37.1,304.8z"/>
			<path d="M53.9,310.6c-0.2,0-0.3,0-0.4-0.1c-0.1-0.1-0.2-0.2-0.2-0.4v-16.5c0-0.2,0.1-0.3,0.2-0.4s0.3-0.1,0.4-0.1h0.6
				c0.2,0,0.3,0,0.4,0.1c0.1,0.1,0.1,0.1,0.1,0.2l5.7,11.1l5.7-11.1c0,0,0.1-0.1,0.2-0.2c0.1-0.1,0.2-0.1,0.4-0.1h0.6
				c0.2,0,0.3,0,0.4,0.1c0.1,0.1,0.1,0.2,0.1,0.4v16.5c0,0.2-0.1,0.3-0.1,0.4c-0.1,0.1-0.2,0.1-0.4,0.1h-0.4c-0.2,0-0.3,0-0.4-0.1
				c-0.1-0.1-0.1-0.2-0.1-0.4v-13.6l-4.8,9.5c-0.1,0.2-0.2,0.3-0.3,0.4c-0.1,0.1-0.3,0.1-0.5,0.1h-0.6c-0.2,0-0.4,0-0.5-0.1
				c-0.1-0.1-0.2-0.2-0.3-0.4l-4.8-9.5v13.6c0,0.2-0.1,0.3-0.1,0.4c-0.1,0.1-0.2,0.1-0.4,0.1H53.9z"/>
			<path d="M75.4,310.6c-0.2,0-0.3,0-0.4-0.1c-0.1-0.1-0.1-0.2-0.1-0.4v-16.5c0-0.2,0.1-0.3,0.1-0.4c0.1-0.1,0.2-0.1,0.4-0.1h0.5
				c0.2,0,0.3,0,0.4,0.1c0.1,0.1,0.1,0.2,0.1,0.4v16.5c0,0.2-0.1,0.3-0.1,0.4c-0.1,0.1-0.2,0.1-0.4,0.1H75.4z"/>
			<path d="M83.6,310.6c-0.2,0-0.3,0-0.4-0.1c-0.1-0.1-0.1-0.2-0.1-0.4v-16.5c0-0.2,0.1-0.3,0.1-0.4c0.1-0.1,0.2-0.1,0.4-0.1h0.5
				c0.2,0,0.3,0,0.4,0.1c0.1,0.1,0.1,0.1,0.1,0.2l9.3,14.2v-13.9c0-0.2,0.1-0.3,0.1-0.4c0.1-0.1,0.2-0.1,0.4-0.1h0.4
				c0.2,0,0.3,0,0.4,0.1c0.1,0.1,0.1,0.2,0.1,0.4v16.4c0,0.2-0.1,0.3-0.1,0.4c-0.1,0.1-0.2,0.2-0.4,0.2h-0.6c-0.2,0-0.3,0-0.4-0.1
				c-0.1-0.1-0.1-0.1-0.2-0.2l-9.3-14.1v13.9c0,0.2-0.1,0.3-0.1,0.4c-0.1,0.1-0.2,0.1-0.4,0.1L83.6,310.6L83.6,310.6z"/>
			<path d="M108.1,310.9c-1.4,0-2.6-0.3-3.6-0.8c-1-0.6-1.7-1.3-2.2-2.4c-0.5-1-0.8-2.2-0.8-3.5c0-0.8,0-1.5,0-2.4
				c0-0.8,0-1.6,0-2.4c0.1-1.3,0.3-2.5,0.8-3.5s1.3-1.8,2.3-2.3s2.2-0.8,3.6-0.8c1.2,0,2.1,0.2,3,0.5c0.8,0.3,1.5,0.8,2,1.3
				c0.5,0.5,0.9,1,1.2,1.5c0.3,0.5,0.4,1,0.4,1.3c0,0.1,0,0.3-0.1,0.4s-0.2,0.1-0.4,0.1h-0.5c-0.1,0-0.3,0-0.3-0.1
				c-0.1-0.1-0.1-0.2-0.2-0.4c-0.2-0.5-0.5-1-0.8-1.5c-0.4-0.5-0.9-0.9-1.6-1.2c-0.7-0.3-1.5-0.5-2.5-0.5c-1.5,0-2.7,0.4-3.6,1.2
				c-0.9,0.8-1.4,2.2-1.5,4.1c-0.1,1.5-0.1,3,0,4.5c0.1,1.9,0.6,3.2,1.5,4c0.9,0.8,2.1,1.2,3.6,1.2c1,0,1.9-0.2,2.7-0.6
				c0.8-0.4,1.4-1,1.9-1.7c0.5-0.8,0.7-1.8,0.7-3v-1.3H109c-0.2,0-0.3,0-0.4-0.2c-0.1-0.1-0.1-0.3-0.1-0.4v-0.4
				c0-0.2,0.1-0.3,0.1-0.4c0.1-0.1,0.2-0.1,0.4-0.1h5.4c0.2,0,0.3,0,0.4,0.1s0.1,0.2,0.1,0.4v2.2c0,1.3-0.3,2.5-0.8,3.5
				c-0.5,1-1.3,1.8-2.3,2.4C110.8,310.6,109.6,310.9,108.1,310.9z"/>
			<path d="M134.3,310.9c-1.4,0-2.5-0.2-3.5-0.6c-1-0.4-1.7-1-2.2-1.7c-0.5-0.7-0.8-1.4-0.8-2.2c0-0.1,0-0.3,0.1-0.4
				s0.2-0.1,0.4-0.1h0.5c0.2,0,0.3,0,0.4,0.1c0.1,0.1,0.1,0.2,0.2,0.4c0.1,0.5,0.3,0.9,0.6,1.4c0.4,0.5,0.9,0.9,1.6,1.2
				s1.6,0.5,2.7,0.5c1.6,0,2.8-0.3,3.6-0.9c0.8-0.6,1.1-1.4,1.1-2.4c0-0.7-0.2-1.2-0.6-1.6c-0.4-0.4-1-0.8-1.8-1.1
				c-0.8-0.3-1.8-0.7-3.1-1.1c-1.2-0.4-2.2-0.8-2.9-1.2s-1.3-0.9-1.7-1.5s-0.5-1.3-0.5-2.3c0-0.9,0.2-1.6,0.7-2.3s1.1-1.2,2-1.6
				c0.9-0.4,1.9-0.6,3.1-0.6c1,0,1.9,0.1,2.6,0.4s1.4,0.6,1.8,1.1c0.5,0.4,0.9,0.9,1.1,1.4c0.3,0.5,0.4,1,0.4,1.5
				c0,0.1,0,0.2-0.1,0.3c-0.1,0.1-0.2,0.2-0.4,0.2h-0.5c-0.1,0-0.2,0-0.3-0.1c-0.1-0.1-0.2-0.2-0.2-0.4c-0.1-0.8-0.5-1.5-1.3-2.1
				s-1.8-0.8-3-0.8s-2.3,0.2-3,0.7c-0.8,0.5-1.2,1.3-1.2,2.3c0,0.7,0.2,1.2,0.5,1.6s0.9,0.8,1.7,1.1c0.8,0.3,1.7,0.7,2.9,1.1
				c1.3,0.4,2.3,0.8,3.1,1.2c0.8,0.4,1.4,0.9,1.8,1.5s0.6,1.3,0.6,2.3c0,1-0.3,1.9-0.8,2.6c-0.5,0.7-1.2,1.3-2.2,1.6
				C136.8,310.7,135.6,310.9,134.3,310.9z"/>
			<path d="M150.3,310.6c-0.2,0-0.3,0-0.4-0.1s-0.1-0.2-0.1-0.4v-15.5h-5c-0.2,0-0.3,0-0.4-0.1s-0.1-0.2-0.1-0.4v-0.4
				c0-0.2,0-0.3,0.1-0.4s0.2-0.1,0.4-0.1h11.5c0.2,0,0.3,0,0.4,0.1s0.1,0.2,0.1,0.4v0.4c0,0.2,0,0.3-0.1,0.4s-0.2,0.1-0.4,0.1h-5
				v15.5c0,0.2,0,0.3-0.1,0.4s-0.2,0.1-0.4,0.1H150.3z"/>
			<path d="M168.1,310.9c-1.4,0-2.5-0.3-3.5-0.8c-1-0.5-1.7-1.3-2.2-2.3c-0.5-1-0.8-2.4-0.8-4v-10.2c0-0.2,0-0.3,0.1-0.4
				s0.2-0.1,0.4-0.1h0.5c0.2,0,0.3,0,0.4,0.1s0.1,0.2,0.1,0.4v10.3c0,1.9,0.4,3.3,1.3,4.1c0.9,0.9,2.1,1.3,3.6,1.3
				c1.5,0,2.7-0.4,3.6-1.3c0.9-0.9,1.3-2.3,1.3-4.1v-10.3c0-0.2,0-0.3,0.2-0.4c0.1-0.1,0.3-0.1,0.4-0.1h0.5c0.2,0,0.3,0,0.4,0.1
				s0.1,0.2,0.1,0.4v10.2c0,1.6-0.3,3-0.8,4c-0.5,1-1.2,1.8-2.2,2.3C170.7,310.6,169.5,310.9,168.1,310.9z"/>
			<path d="M181.6,310.6c-0.2,0-0.3,0-0.4-0.1s-0.1-0.2-0.1-0.4v-16.5c0-0.2,0-0.3,0.1-0.4s0.2-0.1,0.4-0.1h5.4
				c1.8,0,3.2,0.3,4.2,0.8c1,0.5,1.7,1.3,2.1,2.3c0.4,1,0.6,2.3,0.7,3.7c0,0.8,0,1.4,0,2s0,1.2,0,2c0,1.5-0.3,2.8-0.7,3.8
				c-0.4,1-1.1,1.8-2.1,2.3s-2.4,0.7-4.1,0.7L181.6,310.6L181.6,310.6z M182.6,309.1h4.3c1.3,0,2.4-0.2,3.2-0.5
				c0.8-0.4,1.3-0.9,1.7-1.7c0.3-0.8,0.5-1.9,0.5-3.1c0-0.5,0-0.9,0-1.3s0-0.8,0-1.1s0-0.8,0-1.3c0-1.8-0.5-3.2-1.3-4.1
				c-0.8-0.9-2.2-1.3-4.3-1.3h-4.2L182.6,309.1L182.6,309.1z"/>
			<path d="M200.5,310.6c-0.2,0-0.3,0-0.4-0.1s-0.1-0.2-0.1-0.4v-16.5c0-0.2,0-0.3,0.1-0.4s0.2-0.1,0.4-0.1h0.5c0.2,0,0.3,0,0.4,0.1
				s0.1,0.2,0.1,0.4v16.5c0,0.2,0,0.3-0.1,0.4s-0.2,0.1-0.4,0.1H200.5z"/>
			<path d="M214.1,310.9c-1.4,0-2.6-0.3-3.5-0.7s-1.7-1.3-2.2-2.3s-0.8-2.3-0.9-3.9c0-0.8,0-1.5,0-2.1s0-1.4,0-2.1
				c0-1.6,0.4-2.9,0.9-3.9c0.5-1,1.3-1.8,2.3-2.3c1-0.5,2.1-0.8,3.4-0.8s2.5,0.3,3.4,0.8c1,0.5,1.8,1.3,2.3,2.3s0.9,2.3,0.9,3.9
				c0,0.8,0,1.5,0,2.1s0,1.4,0,2.1c0,1.6-0.3,2.9-0.8,3.9s-1.3,1.8-2.3,2.3C216.7,310.7,215.5,310.9,214.1,310.9z M214.1,309.4
				c1.4,0,2.6-0.4,3.6-1.3s1.4-2.3,1.5-4.3c0-0.8,0-1.4,0-2c0-0.6,0-1.2,0-2c0-1.3-0.3-2.4-0.7-3.2c-0.4-0.8-1-1.4-1.8-1.8
				c-0.8-0.4-1.6-0.6-2.5-0.6c-0.9,0-1.8,0.2-2.5,0.6s-1.3,1-1.8,1.8c-0.4,0.8-0.7,1.9-0.7,3.2c0,0.8,0,1.4,0,2c0,0.6,0,1.2,0,2
				c0.1,2,0.6,3.4,1.5,4.3C211.5,309,212.7,309.4,214.1,309.4z"/>
		</g>
	</g>
	<g>
		<path class="st0" d="M129.7,127.9c-0.7,4.8-0.7,9.7-0.8,14.5c-0.1,15.1-0.2,30.1-0.3,45.2c-2.6-2.1-6.3-1.8-9.7-1.9
			c-8.5-0.3-16.6-3.8-25.1-4.8c-3.5-0.4-7.2-0.5-10.4-2c0.8-6.6,0.7-13.4,0.7-20c0-2.7-0.1-5.4-0.2-8c-0.3-11.4-0.3-22.8,0-34.2
			c0-0.2,0.3-0.5,0.3-0.3c6,3.4,13,4,19.7,5.5c7.6,1.8,14.8,5,22.5,6.1C127.6,128.2,128.8,128.1,129.7,127.9z"/>
		<g>
			<g>
				<polygon class="st1" points="84,10.3 84,116.9 129.2,128.2 129.5,187.4 224.7,202.5 224.7,71.7 				"/>
				<path d="M224.7,204c-0.1,0-0.1,0-0.2,0L83.8,181.5c-0.7-0.1-1.2-0.7-1.2-1.4V10.3c0-0.5,0.2-0.9,0.6-1.2s0.9-0.3,1.3-0.1
					l140.7,61.4c0.5,0.2,0.9,0.7,0.9,1.3v130.9c0,0.4-0.2,0.8-0.5,1.1C225.4,203.8,225,204,224.7,204z M85.4,178.9l137.9,22V72.6
					L85.4,12.4V178.9z"/>
			</g>
			<g>
				<polygon class="st1" points="84,180.1 12.3,216.4 12.3,106.4 84,10.3 				"/>
				<path d="M12.3,217.8c-0.3,0-0.5-0.1-0.7-0.2c-0.4-0.3-0.7-0.7-0.7-1.2v-110c0-0.3,0.1-0.6,0.3-0.8L82.8,9.4
					c0.4-0.5,1-0.7,1.6-0.5s1,0.7,1,1.3v169.9c0,0.5-0.3,1-0.8,1.3l-71.7,36.3C12.7,217.8,12.5,217.8,12.3,217.8z M13.7,106.9v107.3
					l68.9-34.9V14.5L13.7,106.9z M84,180.1L84,180.1L84,180.1z"/>
			</g>
			<g>
				<polygon class="st1" points="224.7,202.5 128.9,228.6 12.3,216.4 84,180.1 				"/>
				<path d="M128.9,230c0,0-0.1,0-0.1,0L12.1,217.8c-0.6-0.1-1.1-0.5-1.2-1.1s0.2-1.2,0.8-1.5l71.7-36.3c0.3-0.1,0.6-0.2,0.9-0.1
					l140.7,22.4c0.7,0.1,1.1,0.6,1.2,1.3c0,0.7-0.4,1.3-1,1.4l-95.8,26C129.1,230,129,230,128.9,230z M17.2,215.5l111.6,11.6
					l89.2-24.3L84.2,181.6L17.2,215.5z"/>
			</g>
			<g>
				<polygon points="130.3,187.3 128.2,187.3 128.2,129.2 84.8,118.3 85.4,116.2 129.1,127.3 224.2,70.8 225.3,72.6 130.3,129 				
					"/>
			</g>
			
				<linearGradient id="SVGID_1_" gradientUnits="userSpaceOnUse" x1="110.4295" y1="229.0767" x2="131.2596" y2="229.0767" gradientTransform="matrix(1 0 0 -1 0 314)">
				<stop  offset="0" style="stop-color:#3DDEED"/>
				<stop  offset="1" style="stop-color:#3DDEED;stop-opacity:0"/>
			</linearGradient>
			<path class="st2" d="M114,74.8c-1.7,1.7-2.9,3.9-3.3,6.3c-0.2,0.9-0.2,1.9-0.2,2.8c0,3.2,0.6,6.5,2.2,9.3c0.8,1.3,1.8,2.5,3,3.4
				c1.5,1.2,3.3,2,5.2,1.8c1.1-0.2,2.1-0.7,3.1-1.4c0.9-0.6,1.7-1.2,2.5-1.8c1.1-0.9,2.2-1.9,2.9-3.1c1.2-1.9,1.5-4.3,1.7-6.6
				c0.1-1.2,0.3-2.5,0.1-3.7c-0.3-1.9-1.4-3.7-2.5-5.3c-0.6-1-1.3-1.9-2.2-2.7c-1.3-1.1-3.2-1.9-4.8-2.3c-1.6-0.4-3.7,0.6-5.1,1.3
				C115.6,73.4,114.8,74,114,74.8z"/>
			
				<linearGradient id="SVGID_2_" gradientUnits="userSpaceOnUse" x1="89.2998" y1="223.3919" x2="105.0231" y2="223.3919" gradientTransform="matrix(1 0 0 -1 0 314)">
				<stop  offset="6.819570e-07" style="stop-color:#3FFF66"/>
				<stop  offset="1" style="stop-color:#3DDEED;stop-opacity:0"/>
			</linearGradient>
			<path class="st3" d="M92,82.9c-1.3,1.3-2.2,3-2.5,4.8c-0.1,0.7-0.2,1.4-0.2,2.1c0,2.4,0.4,4.9,1.7,7c0.6,1,1.4,1.9,2.3,2.6
				c1.1,0.9,2.5,1.5,3.9,1.3c0.8-0.1,1.6-0.6,2.3-1c0.6-0.4,1.3-0.9,1.9-1.4c0.9-0.7,1.6-1.4,2.2-2.4c0.9-1.5,1.1-3.2,1.3-4.9
				c0.1-0.9,0.2-1.9,0.1-2.8c-0.2-1.5-1.1-2.8-1.9-4c-0.5-0.7-1-1.5-1.6-2c-0.9-0.8-2.4-1.4-3.6-1.7c-1.2-0.3-2.8,0.4-3.8,1
				C93.2,81.9,92.6,82.4,92,82.9z"/>
			
				<linearGradient id="SVGID_3_" gradientUnits="userSpaceOnUse" x1="131.6298" y1="210.0519" x2="147.3531" y2="210.0519" gradientTransform="matrix(1 0 0 -1 0 314)">
				<stop  offset="6.819570e-07" style="stop-color:#E92000"/>
				<stop  offset="1" style="stop-color:#3DDEED;stop-opacity:0"/>
			</linearGradient>
			<path class="st4" d="M134.3,96.3c-1.3,1.3-2.2,3-2.5,4.8c-0.1,0.7-0.2,1.4-0.2,2.1c0,2.4,0.4,4.9,1.7,7c0.6,1,1.4,1.9,2.3,2.6
				c1.1,0.9,2.5,1.5,3.9,1.3c0.8-0.1,1.6-0.6,2.3-1c0.6-0.4,1.3-0.9,1.9-1.4c0.9-0.7,1.6-1.4,2.2-2.4c0.9-1.5,1.1-3.2,1.3-4.9
				c0.1-0.9,0.2-1.9,0.1-2.8c-0.2-1.5-1.1-2.8-1.9-4c-0.5-0.7-1-1.5-1.6-2c-1-0.8-2.4-1.4-3.6-1.7c-1.2-0.3-2.8,0.4-3.8,1
				C135.6,95.2,134.9,95.7,134.3,96.3z"/>
			<g>
				<g id="XMLID_7_">
					<g>
						<path class="st1" d="M140.4,182.2c-0.2,0.4-0.3,0.9-0.3,1.3c-0.7-0.1-1.5-0.1-2.2-0.2C138.8,183,139.6,182.7,140.4,182.2z"/>
					</g>
					<g>
						<path class="st1" d="M114.2,148.1c0.3-2,0.2-4-0.6-5.9c-0.4-0.9-0.8-1.7-1.5-2.4c-0.3-0.3-0.6-0.6-1-0.8
							c-0.2-0.1-0.3-0.2-0.5-0.2c0-0.1,0-0.2,0-0.3c0.3-0.8,1.4-0.6,2-0.4c0.8,0.3,1.4,0.8,1.9,1.5c1.2,1.6,1.7,3.6,1.8,5.6
							c0.1,2.2-0.4,4.3-1.1,6.4c-0.7,2.1-1.6,4.2-2.1,6.4c-0.5,2.2-1,4.4-1.2,6.6c-0.5,4.1-0.4,8.6,1.8,12.3c1,1.7,2.5,3.2,4.1,4.2
							c1.2,0.8,2.8,1.4,4.3,1.4l-0.2,1.9c-0.2,0-0.4,0-0.5,0c-0.7-0.1-1.5-0.3-2.2-0.5c-1.6-0.5-3.2-1.4-4.5-2.5
							c-2.8-2.3-4.6-5.6-5.3-9.2c-0.8-3.9-0.2-8,0.9-11.8c0.6-2,1.3-4,2.1-6C113.2,152.2,113.9,150.2,114.2,148.1z"/>
					</g>
					<g>
						<path class="st1" d="M154.6,146.4c0-0.1,0-0.3,0-0.4c0-0.2,0-0.3,0-0.5c0.1,0,0.1,0.1,0.2,0.1c0.4,0.3,0.8,0.7,1.3,0.9
							c0,0,0.1,0,0.1,0.1c0.1,0.3,0.2,0.6,0.3,0.8c0.1,0.1,0.1,0.3,0.2,0.4c-0.5-0.2-1-0.4-1.4-0.8c-0.1-0.1-0.3-0.2-0.4-0.3
							C154.8,146.6,154.7,146.5,154.6,146.4z"/>
					</g>
					<g>
						<path class="st1" d="M150.9,148.2c-0.3,0-0.6,0.1-0.9,0.1c-0.1,0-0.3,0-0.5,0c-0.1,0-0.1,0-0.2,0c-0.1,0-0.1-0.1-0.2-0.1
							c-0.1-0.1-0.3-0.1-0.5-0.2c-0.2-0.1-0.3-0.1-0.5-0.2c0,0,0,0,0,0c0.2,0,0.4-0.1,0.5-0.1c0.3-0.1,0.5-0.2,0.8-0.4
							c0.1-0.1,0.3-0.3,0.5-0.3c0.1,0,0.3,0.1,0.4,0.1c0.3,0.1,0.5,0.3,0.7,0.4c0.3,0.2,0.5,0.4,0.8,0.5l0,0.1c0,0,0,0-0.1,0
							c-0.1,0-0.3,0.1-0.4,0.1S151.1,148.2,150.9,148.2z"/>
					</g>
					<g>
						<path class="st1" d="M153.6,140.7L153.6,140.7c0.1,0,0.1,0.1,0.2,0c0.1,0,0.2,0,0.3-0.1c0.2-0.1,0.3-0.3,0.3-0.5
							c0-0.1,0-0.2,0-0.3c0-0.1,0-0.2-0.1-0.3c0-0.1-0.1-0.2-0.2-0.3c0.1,0,0.2,0,0.3,0c0.2,0,0.4,0.1,0.5,0.2c0.1,0,0.1,0,0.2,0.1
							c0,0.2-0.1,0.3-0.2,0.4c-0.2,0.3-0.4,0.5-0.7,0.7c-0.3,0.2-0.7,0.3-1,0.3c-0.1,0-0.3,0-0.5,0c0,0,0,0,0-0.1
							c0,0-0.1-0.1-0.1-0.1c0,0,0,0,0,0c0,0-0.1-0.1-0.1-0.1c0,0,0,0,0,0c0,0,0,0,0,0c0,0,0,0,0,0c0,0,0,0,0,0h0c0,0,0,0,0,0
							c0,0,0,0,0-0.1c0,0,0-0.1,0-0.1c0.2-0.3,0.4-0.6,0.7-0.9c0,0.1,0,0.1,0,0.2c0,0.2,0,0.4,0.1,0.5
							C153.3,140.5,153.4,140.6,153.6,140.7L153.6,140.7C153.6,140.7,153.6,140.7,153.6,140.7z"/>
					</g>
					<g>
						<path class="st1" d="M146,140.7c-0.3-0.1-0.6-0.3-0.9-0.5c-0.1-0.1-0.2-0.3-0.3-0.4c-0.1-0.1-0.1-0.3-0.1-0.4
							c0-0.1,0.1-0.1,0.2-0.2c0.1-0.1,0.4-0.1,0.5-0.1c0.2,0,0.3,0,0.5,0c0,0,0.1,0,0.1,0c0,0-0.1,0-0.1,0.1c0,0.1-0.1,0.1-0.1,0.2
							c-0.1,0.3-0.2,0.6,0,0.9c0.1,0.3,0.4,0.5,0.7,0.4c0.2,0,0.4-0.1,0.5-0.2c0.1-0.1,0.2-0.3,0.2-0.4c0-0.1,0-0.2,0-0.3
							c0.1,0.1,0.1,0.2,0.2,0.3c0,0.1,0,0.1,0.1,0.2c0,0.1,0.1,0.1,0.1,0.1c0,0.1,0,0.2,0.1,0.3c-0.2-0.1-0.5,0-0.7,0
							C146.6,140.8,146.3,140.8,146,140.7z"/>
					</g>
					<g>
						<path class="st1" d="M154.6,133.8c-0.2-0.3-0.4-0.6-0.7-0.9c0,0,0,0,0.1,0c0.2-0.1,0.3-0.2,0.5-0.3c0,0.3,0,0.5,0,0.8
							C154.6,133.6,154.6,133.7,154.6,133.8z"/>
					</g>
					<g>
						<path class="st1" d="M155.7,132c0.1-0.3,0.3-0.5,0.5-0.7c0.4-0.6,0.9-1,1.4-1.5c0.2-0.2,0.4-0.4,0.7-0.6
							c0.3-0.2,0.4-0.1,0.6,0.2c0.7,1.1,0.4,2.5,0,3.7c-0.1,0.4-0.2,0.7-0.4,1.1c-0.1,0.3-0.2,0.5-0.2,0.8c-0.1-0.2-0.2-0.3-0.4-0.5
							c-0.3-0.3-0.8-0.5-1-0.8c-0.2-0.3-0.3-0.7-0.2-1.1c0.1-0.5,0.5-0.8,0.6-1.3c0-0.1,0-0.1-0.1-0.1c-0.5,0.2-0.9,0.6-1.2,1
							L155.7,132z"/>
					</g>
					<g>
						<path class="st1" d="M145.6,132.4c0.1,0.1,0.3,0.2,0.4,0.3c0.1,0,0.1,0.1,0.2,0.1c-0.3,0.2-0.5,0.5-0.7,0.8
							C145.7,133.2,145.7,132.8,145.6,132.4z"/>
					</g>
					<g>
						<path class="st1" d="M143.1,134.2C143.1,134.2,143.1,134.2,143.1,134.2C143,134.3,143,134.3,143.1,134.2
							c-0.2,0.3-0.3,0.3-0.5,0.4c-0.2,0.3-0.4,0.6-0.4,0.9c0,0.3,0.1,0.6,0,0.9c-0.1-0.1-0.1-0.2-0.2-0.3c-0.3-0.4-0.6-0.9-0.8-1.4
							c-0.1-0.5-0.1-1-0.2-1.5c0,0,0,0,0,0c0.2-0.7,0-1.5-0.3-2.2c-0.2-0.4-0.4-0.8-0.5-1.3c0-0.2,0-0.9,0.3-0.9
							c0.2,0,0.4,0.2,0.5,0.3c0.2,0.1,0.4,0.3,0.6,0.4c0.4,0.2,0.8,0.5,1.1,0.8c0.7,0.6,1.2,1.3,1.4,2.1c0,0.1,0,0.3,0,0.4
							c0,0-0.1-0.1-0.1-0.1c0-0.1-0.1-0.2-0.1-0.2c-0.1-0.1-0.1-0.2-0.2-0.3c-0.1-0.1-0.2-0.1-0.3,0c0,0.1,0,0.2,0,0.3
							c0,0.1,0,0.2-0.1,0.2c0,0.1-0.1,0.1-0.1,0.2c-0.1,0.1-0.1,0.3-0.2,0.4c0,0.1,0,0.2-0.1,0.3c0,0,0,0.1,0,0.1c0,0,0,0,0,0.1
							s0,0.1,0,0.1C143.1,134.1,143.1,134.2,143.1,134.2z"/>
					</g>
					<g>
						<path class="st1" d="M144.5,139.1c-0.1,0.1-0.1,0.2-0.1,0.4c0,0,0,0,0,0c0,0.2,0.1,0.5,0.2,0.7c0.1,0.3,0.3,0.5,0.6,0.6
							c0.5,0.4,1.2,0.5,1.8,0.4c0.1,0,0.3-0.1,0.5,0c0.1,0,0.2,0.1,0.4,0.1c0.1,0,0.1,0,0.1-0.1c0,0,0,0,0,0
							c0.2-0.2,0.3-0.4,0.2-0.7c0-0.1,0-0.1,0-0.1c0-0.1,0-0.2,0-0.3c0-0.1-0.1-0.3-0.2-0.4c-0.3-0.5-0.7-0.9-1.3-1.1
							c-0.3-0.1-0.6-0.2-0.9-0.1c-0.3,0-0.6,0.1-0.8,0.3c-0.1,0.1-0.2,0.1-0.3,0.2C144.7,138.9,144.6,139,144.5,139.1z M153.3,141.4
							c0.4,0,0.9-0.1,1.3-0.3c0.4-0.2,0.6-0.5,0.9-0.9c0.1-0.2,0.2-0.4,0.3-0.5c0.1-0.2,0.1-0.4,0-0.6c0,0-0.1,0-0.1,0
							c-0.1-0.1-0.1-0.1-0.2-0.2c-0.2-0.1-0.5-0.2-0.7-0.2c-0.5-0.1-1,0-1.5,0.3c-0.9,0.4-1.5,1.5-1.2,2.5c0,0,0,0.1,0.1,0.1
							c0,0,0,0,0,0s0,0,0,0c0,0,0,0,0-0.1c0,0,0,0,0,0c0,0,0,0,0,0s0,0,0,0c0,0,0,0,0,0c0,0,0.1,0,0.1,0c0,0,0,0,0,0c0,0,0,0,0,0
							c0.1,0,0.2,0,0.2-0.1c0,0,0,0,0,0c0,0,0,0,0,0C152.8,141.3,153,141.4,153.3,141.4z M154.2,146.2c-0.4-0.2-0.9-0.4-1.3-0.4
							c-0.1,0-0.1,0.1,0,0.1c0.5,0,0.9,0.3,1.2,0.5c0,0,0,0,0,0c-0.1,0.2-0.2,0.4-0.4,0.5c-0.4-0.3-0.8-0.5-1.3-0.6c0,0,0,0,0,0
							c0.4,0.1,0.8,0.4,1.1,0.8c-0.4,0.2-0.9,0.1-1.3-0.2c-0.5-0.3-0.9-0.6-1.4-0.8c-0.1-0.1-0.3-0.1-0.5-0.1c0-0.1,0-0.2,0-0.3
							c0,0,0,0,0-0.1c0,0,0-0.1,0-0.1c0-0.1,0-0.1,0-0.2s0-0.1,0.1-0.2c0,0,0,0,0,0c0,0,0-0.1,0-0.1c0,0,0,0,0,0c0,0,0,0,0,0
							c0,0,0,0,0-0.1c0.1,0,0.2,0.1,0.3,0.1c0.2,0,0.3,0,0.5-0.1c0.1-0.1,0.2-0.1,0.2-0.2c0-0.1,0.1-0.1,0.1-0.2c0-0.1,0-0.1,0-0.2
							c0-0.1,0.1-0.2,0.1-0.3c0-0.1,0-0.3-0.1-0.4c0-0.1-0.1-0.2-0.1-0.2c0-0.1,0-0.1-0.1-0.2c0-0.1,0-0.1-0.1-0.2
							c0-0.1-0.1-0.1-0.1-0.2c0-0.1-0.1-0.1-0.1,0c0,0.1-0.1,0.1-0.1,0.2c0,0.1,0,0.1,0,0.2c0,0.1,0,0.1,0,0.2c0,0.1,0,0.1,0,0.2
							c0,0.1,0,0.2,0.1,0.2c0,0,0,0,0,0c0,0-0.1,0.1-0.1,0.2c0,0,0,0,0,0c-0.1,0-0.1,0-0.2,0.1c0,0,0,0,0,0c0,0,0,0,0,0
							c0,0-0.1,0-0.1,0c0,0,0,0-0.1,0c0,0-0.1,0-0.1,0c-0.2,0-0.3,0-0.5,0.1c0,0-0.1,0-0.1,0c-0.1,0-0.1,0-0.2,0c0,0,0,0,0,0
							c-0.1-0.1-0.1-0.1-0.2-0.1c0,0,0,0,0,0c0,0-0.1,0-0.1,0c-0.1,0-0.1,0-0.2,0c0,0-0.1,0-0.1,0c0,0,0,0-0.1,0c0,0,0,0,0,0
							c0,0,0,0,0,0c0,0,0,0,0,0c0,0,0-0.1-0.1-0.1h0c0,0,0,0,0,0c0,0,0-0.1,0-0.1c0,0,0,0,0,0c0,0,0-0.1,0-0.1c0-0.1,0-0.1,0.1-0.2
							c0-0.1,0-0.1,0-0.2c0-0.1,0-0.1-0.1-0.2c0-0.1-0.1-0.1-0.1-0.2c0,0,0,0,0,0c0,0.1,0.1,0.2,0,0.3c0,0,0,0.1,0,0.1
							c0,0,0,0.1-0.1,0.1c0,0.1-0.1,0.1-0.1,0.2c0,0,0,0.1-0.1,0.1c0,0,0,0,0,0c0,0,0,0.1,0,0.1c-0.1,0.2,0,0.4,0.1,0.6
							c0,0.1,0,0.1,0,0.2c0,0.1,0.1,0.1,0.1,0.1c0,0,0.1,0.1,0.1,0.1c0,0,0,0,0,0c0.1,0,0.1,0.1,0.2,0.1c0.1,0,0.2,0,0.2,0
							c0,0,0.1,0,0.1,0c0,0,0.1,0.1,0.1,0.1c0,0,0,0.1,0,0.1c0,0,0,0,0,0.1c0,0.1,0,0.1,0,0.1c0,0.1,0,0.2,0,0.4c0,0.1,0,0.1,0,0.2
							c0,0,0,0,0,0v0c-0.4,0.1-0.7,0.3-1,0.5c-0.2,0.1-0.4,0.2-0.6,0.3c-0.2,0.1-0.5,0.1-0.7,0.2c-0.1,0-0.3,0-0.4,0
							c0.1-0.2,0.3-0.5,0.4-0.7c0,0,0,0,0,0c-0.3,0.1-0.5,0.4-0.7,0.6c-0.1-0.1-0.3-0.2-0.4-0.4c0,0,0-0.1,0-0.1
							c0.1-0.1,0.3-0.2,0.4-0.3c0.2-0.1,0.5-0.2,0.7-0.3c0,0,0,0,0,0c-0.4-0.1-0.9,0.1-1.2,0.3c0,0,0,0,0,0c0-0.1-0.1-0.2-0.1-0.3
							c0,0,0-0.1,0-0.1c0.4-0.2,0.7-0.4,1.2-0.5c0.1,0,0.1-0.1,0-0.1c-0.3-0.1-0.5-0.1-0.7-0.1c-0.2,0-0.3,0.1-0.5,0.1
							c0,0,0-0.1,0-0.1c0-0.1-0.2-0.1-0.2,0c0,0.1-0.1,0.2-0.1,0.3c-0.5,0.3-1,0.6-1.4,1c-0.4,0.3-0.8,0.5-1.2,0.7
							c0-0.3,0-0.5,0-0.8c0,0,0.1-0.1,0.1-0.1c0-0.7-0.1-1.2-0.5-1.8c-0.2-0.4-0.4-0.8-0.6-1.2c0-0.1,0-0.1,0-0.2
							c0-0.1-0.1-0.2-0.1-0.2c0-0.1-0.1-0.2-0.1-0.4c-0.1-0.7-0.2-1.4-0.1-2.1c0-0.4,0.1-0.8,0.2-1.2c0.3-0.4,0.6-0.9,0.6-1.4
							c0-0.4-0.1-0.8-0.4-1.1c0,0,0,0,0,0c0.2-0.1,0.3-0.3,0.4-0.6c0.1-0.1,0.1-0.3,0.2-0.5c0.1,0,0.2,0,0.3,0
							c0.1,0,0.3-0.1,0.4-0.2c0.1-0.1,0.3-0.2,0.4-0.3c0,0,0.1,0,0.1,0c0.4,0,0.7-0.2,0.9-0.5h0c0.3-0.3,0.6-0.6,0.9-0.9
							c0.4-0.3,0.8-0.4,1.3-0.5c1-0.2,1.9-0.5,2.9-0.4c0.9,0.1,1.7,0.4,2.5,0.8s1.6,0.8,2.2,1.4c0.1,0.1,0.2,0,0.2-0.1c0,0,0,0,0,0
							c0.1,0.1,0.1,0.2,0.2,0.2c0,0,0,0,0,0c-0.1-0.6-0.2-1.3,0-1.9c0.1-0.3,0.3-0.7,0.5-1.1l0.2,0.1c-0.3,0.5-0.5,1.1-0.4,1.7
							c0.1,0.6,0.7,1,1.2,1.3c0.2,0.1,0.4,0.3,0.6,0.4c0.2,0.1,0.3,0.2,0.5,0.3c0,0.1,0.1,0.1,0.1,0.2c0.1,0.5,0.3,1,0.4,1.4
							c0.2,0.9,0.5,1.8,0.5,2.8c0,1.5-0.8,2.8-1.4,4.1c0,0.1-0.1,0.1-0.1,0.1c-0.1,0.2-0.3,0.5-0.4,0.7c0,0,0,0,0,0
							c0,0.1-0.1,0.1-0.1,0.2c-0.1-0.3-0.3-0.6-0.3-1c-0.1-0.6-0.1-1.3,0-1.9c0,0,0,0,0,0c-0.3,0.4-0.4,0.8-0.5,1.3
							c0,0.6,0,1.1,0.1,1.7c0,0.2,0.1,0.3,0.1,0.5c-0.1-0.1-0.3-0.1-0.4-0.2c-0.7-0.4-1.7-1.3-2.5-0.8c-0.1,0,0,0.1,0,0.1
							c0.5-0.1,0.9,0,1.2,0.2c0,0,0,0,0,0c0,0.2-0.1,0.3-0.1,0.5C154.3,146,154.3,146.1,154.2,146.2z"/>
					</g>
					<g>
						<path class="st1" d="M140.9,150.4c-0.3,0.4-0.5,0.8-0.7,1.3c-0.2,0.4-0.4,0.9-0.7,1.3c-0.5,0.8-1.1,1.6-1.8,2.3
							c-0.1,0.1,0,0.4,0.2,0.3c0.9-0.6,1.6-1.3,2.2-2.2c0.3-0.4,0.6-0.9,0.8-1.3c0.2-0.5,0.5-1,0.4-1.6
							C141.3,150.3,141,150.3,140.9,150.4z M124.7,166.9c-0.3,0.6-0.5,1.3-0.6,2c-0.3,1.4-0.3,2.8,0,4.1c0,0.2,0.3,0.1,0.3,0
							c0.1-1.3,0.2-2.6,0.5-3.9c0.1-0.6,0.3-1.2,0.5-1.8c0.2-0.6,0.5-1.3,0.6-1.9c0-0.1-0.1-0.2-0.2-0.1
							C125.3,165.6,125,166.3,124.7,166.9z M143.2,158c-0.3,1-0.5,2-0.5,3c-0.1,1.7,0.4,3.8,1.7,4.9c0.2,0.1,0.4,0,0.3-0.2
							c-0.4-0.8-0.7-1.5-0.9-2.4c-0.2-0.8-0.2-1.7-0.2-2.5c0-0.9,0.2-1.8,0.5-2.7c0.2-0.9,0.7-1.8,0.6-2.7c0-0.1-0.2-0.2-0.3-0.1
							C143.7,156,143.4,157.1,143.2,158z M156.5,158.5c1-2.3,1.8-4.9,0.5-7.3c0-0.1-0.2,0-0.2,0.1c0.7,2.3-0.1,4.8-0.6,7.1
							C156.2,158.6,156.4,158.7,156.5,158.5z M153.6,188.8c0-0.2-0.1-0.5-0.2-0.7c-0.3-0.4-0.6-0.5-1.1-0.6c-0.1,0-0.2,0.1-0.2,0.3
							c0,0.1,0,0.3,0.1,0.5c0,0.1,0,0.3,0.1,0.4c0,0,0,0-0.1,0.1c0,0-0.1,0.1-0.1,0.1c0,0,0,0,0,0c0,0,0,0,0,0
							c-0.1-0.1-0.2-0.1-0.3-0.2c0,0,0,0,0,0c0-0.2-0.1-0.3-0.2-0.5c0,0,0,0.1,0,0.1c0-0.1-0.1-0.2-0.2-0.3c0,0-0.1-0.1-0.1-0.1
							c0,0-0.1-0.1-0.1-0.1c0,0,0-0.1-0.1-0.1c-0.1-0.1-0.2-0.2-0.3-0.1c-0.1,0-0.2,0.1-0.2,0.3c0,0,0,0.1,0,0.1c0,0,0,0.1,0,0.1
							c0,0,0,0,0,0.1c0,0.1-0.1,0.1-0.1,0.2c0,0,0,0,0,0.1c0,0,0,0,0,0c0,0-0.1,0-0.1,0c0,0,0,0-0.1,0c0,0,0,0,0,0
							c-0.1-0.1-0.1-0.1-0.2-0.2c0,0,0,0-0.1-0.1c0,0,0,0,0,0c0-0.1,0-0.3-0.1-0.4c0,0-0.1-0.1-0.1-0.1c0-0.2-0.2-0.3-0.3-0.3
							c-0.1,0-0.1,0-0.2,0c0,0,0,0,0.1,0c0,0-0.1,0-0.2,0c0,0,0,0,0.1,0c0,0-0.1,0-0.1-0.1c0,0,0,0,0,0c0,0,0,0,0,0c0,0,0,0,0,0
							c0,0,0,0,0,0c0,0,0-0.1,0-0.1c0,0,0-0.1,0-0.1c0-0.1-0.1-0.2-0.2-0.3c-0.1-0.1-0.2-0.1-0.3-0.1c-0.1-0.4-0.1-0.9-0.1-1.3
							c0-1.1-0.1-2.2-0.2-3.3c-0.2-2.2-0.5-4.5-1.3-6.5c-0.4-1-0.9-1.9-1.5-2.8c-0.6-0.9-1.2-1.7-1.8-2.5c-1-1.7-1.6-3.5-1.9-5.5
							c-0.1-1-0.2-2.1-0.2-3.2c0-1.1,0.3-2.2,0.4-3.4c0-0.1-0.1-0.1-0.1-0.1c-0.5,0.8-0.8,1.8-1,2.7s-0.4,1.9-0.3,2.9
							c0,2,0.5,4,1.3,5.8c0.6,1.3,1.5,2.4,2.3,3.6c0,0,0,0,0,0c-0.4,0.5-0.6,1.2-1,1.8s-0.7,1.2-1,1.7c-0.4,0.6-0.8,1.1-1.2,1.6
							c-0.5,0.5-1,1-1.5,1.4c-0.1,0.1,0,0.3,0.2,0.2c1.2-0.7,2.3-1.7,3.1-2.8c0.4-0.6,0.8-1.2,1.1-1.8c0.3-0.6,0.5-1.2,0.5-1.9
							c0.1,0.2,0.2,0.4,0.4,0.6c0,0,0,0,0,0c0,0.1,0,0.2,0.1,0.3c0,0.1,0,0.1-0.1,0.2c0,0.1-0.1,0.3-0.1,0.4
							c-0.1,0.3-0.2,0.6-0.3,0.9c-0.2,0.6-0.5,1.1-0.8,1.6c-0.7,1-1.6,1.9-2.5,2.6c-1.1,0.9-2.4,1.5-3.7,2c-0.7,0.3-1.4,0.5-2,0.8
							c-0.3,0.1-0.7,0.3-1,0.5c-0.1,0-0.2,0.1-0.3,0.1c-0.4,0-0.9,0-1.3,0.1c-0.3,0.1-0.4,0.6-0.1,0.7c0,0,0,0,0.1,0
							c1.3,0.5,2.7,0.5,4.1,0.7c1.4,0.2,2.8,0.3,4.2,0.4c0.3,0,0.5,0.1,0.8,0.1c0,0,0,0,0,0c0.3,0.1,0.7,0.3,1,0.5
							c0.3,0.2,0.5,0.4,0.7,0.8c0.1,0.2,0.2,0.5,0.3,0.7c-1.1-0.3-2.4-0.1-3.6,0c-1.8,0.1-3.6-0.1-5.3-0.5
							c-3.6-0.7-7.1-1.7-10.7-2.2c-0.2,0-0.4,0-0.6-0.1c-0.1,0-0.1-0.1-0.3-0.1c-0.2,0-0.4,0-0.6,0c-0.2,0-0.4,0-0.6-0.1l0.2-1.9
							c0.5,0,0.9-0.1,1.4-0.2c0.1,0.1,0.1,0.1,0.2,0.2c0.2,0.3,0.6-0.1,0.5-0.4c-0.1-0.2-0.2-0.4-0.3-0.6c0,0,0,0,0,0
							c-0.2-0.5-0.4-1.1-0.5-1.6c-0.2-0.8-0.4-1.5-0.5-2.3c-0.2-1.6-0.2-3.2-0.1-4.7c0.1-3.1,0.8-6.3,2.1-9.2
							c0.6-1.5,1.4-2.9,2.4-4.2c0.9-1.1,2-2.1,3.1-3c2.4-1.8,5.1-3.3,7.4-5.2c1.2-1.1,2.3-2.2,3.2-3.6c0.4-0.7,0.8-1.4,1-2.1
							c0-0.1,0.1-0.3,0.1-0.4c0,0.1,0.1,0.1,0.1,0.2c0.1,0.3,0.2,0.6,0.2,0.9c0.1,0.4,0.1,0.8,0.1,1.2c-0.4,0.1-0.8,0.1-1.3,0.2
							c-0.1,0-0.1,0.2,0,0.2c0.4,0.1,0.8,0.2,1.2,0.1c0,0.1,0,0.2,0,0.4c0,0.2-0.1,0.4-0.1,0.6c0,0.1,0.2,0.2,0.3,0.1
							c0.1-0.2,0.2-0.4,0.3-0.6c0.1-0.2,0.1-0.4,0.2-0.6c0.4-0.1,0.9-0.3,1.2-0.6c0.5-0.3,1-0.7,1.5-1.1c0,0.2,0,0.3,0.1,0.5
							c-0.3,0.2-0.5,0.5-0.8,0.7c-0.3,0.4-0.7,0.8-1.1,1.1c-0.4,0.3-0.8,0.6-1.3,0.9c-0.1,0.1,0,0.2,0.1,0.2c1-0.3,1.7-0.9,2.4-1.6
							c0.3-0.3,0.5-0.6,0.8-0.9c0.1,0.2,0.2,0.4,0.3,0.5c0,0,0.1,0.1,0.1,0.1c-0.1,0.2-0.2,0.4-0.3,0.6c-0.4,0.7-1,1.4-1.7,1.8
							c-0.1,0.1,0,0.2,0.1,0.2c0.4-0.2,0.7-0.4,1-0.7c0.3-0.3,0.6-0.6,0.8-0.9c0.1-0.2,0.3-0.5,0.4-0.7c0.1,0,0.1,0.1,0.2,0.1
							c0.3,0.1,0.5,0.1,0.8,0.1c0.1,0,0.2,0,0.3-0.1c0,0-0.1,0.1,0,0.1c0.1,0.1,0.3,0.3,0.4,0.4c0.1,0.1,0.3,0.2,0.5,0.3
							c0.1,0,0.1,0.1,0.2,0.1c0.1,0,0.2,0.1,0.3,0.2c0.2,0.1,0.4,0.2,0.6,0.2c0.2,0,0.3,0,0.5,0c0.3,0,0.4-0.1,0.6-0.3
							c0.1-0.1,0.3-0.2,0.4-0.3c0.1-0.1,0.3-0.2,0.3-0.4c0-0.1,0-0.1-0.1-0.1l0-0.1c0.2,0.1,0.5,0.2,0.7,0.3c0.4,0.1,1,0,1.4-0.3
							c0.2,0.3,0.4,0.6,0.6,0.9c0.3,0.4,0.5,0.9,0.9,1.2c0.3,0.3,0.8,0.5,1.3,0.5c0.1,0,0.1-0.1,0-0.2c-0.1-0.1-0.2-0.1-0.4-0.1
							c-0.1-0.1-0.2-0.1-0.3-0.2c-0.2-0.1-0.4-0.3-0.5-0.5c-0.4-0.4-0.6-0.9-0.9-1.4c-0.1-0.2-0.2-0.4-0.4-0.6c0,0,0.1-0.1,0.1-0.1
							c0.1-0.2,0.1-0.4,0.2-0.7c0.1,0.1,0.2,0.1,0.3,0.2c0.3,0.2,0.5,0.5,0.8,0.7c0.4,0.3,0.8,0.5,1.3,0.6c0,0,0.1,0,0.1,0
							c0.1,0.3,0.2,0.6,0.3,0.9c0.4,1.2,0.8,2.4,1,3.6c0.1,0.9,0.1,1.9,0.2,2.8c0,0.1,0,0.1,0,0.2c-0.2,1-0.4,2.1-0.6,3.1
							c-0.2,1.1-0.5,2.1-0.8,3.1c-0.3,1-0.6,2-0.7,3.1c-0.1,1,0,2.1,0,3.1c0,1.1,0,2.2,0,3.4c0,2.2,0,4.4,0,6.6c0,1.2,0,2.4,0,3.6
							c0,0.3,0,0.5,0,0.8c-0.1,0.5-0.1,1,0,1.4c0,0.2-0.1,0.5-0.1,0.7c0,0.3-0.1,0.6-0.1,0.9c0,0.2,0,0.3,0.1,0.5
							c0,0.1,0.1,0.2,0.1,0.3c0,0.1,0,0.2,0,0.3c0.1,0.1,0.2,0.2,0.3,0c0-0.1,0.1-0.2,0.1-0.3c0.1-0.1,0.1-0.2,0.2-0.3
							c0-0.1,0.1-0.1,0.1-0.2c0.3,0.3,0.6,0.6,0.9,0.9c0.6,0.6,1.2,1.2,1.6,2c0.1,0.3,0.1,0.7,0,1.1c0,0.1-0.1,0.2-0.1,0.3l-0.7,0
							c0-0.1,0-0.1,0.1-0.2c0.1-0.2,0.1-0.4,0.1-0.6c0-0.1,0-0.3,0-0.4c0-0.2-0.2-0.4-0.4-0.5c-0.3-0.2-0.6,0-0.8,0.2
							c0,0,0,0.1-0.1,0.1c0,0.1,0,0.2,0,0.3c0,0,0,0.1,0,0.1l-0.8-0.1c0.1-0.3,0.1-0.5,0-0.8c0-0.1-0.1-0.3-0.2-0.4
							c-0.1-0.1-0.2-0.2-0.3-0.2c0,0-0.1-0.1-0.2-0.1c-0.1,0-0.1,0-0.2,0c0,0-0.1,0.1-0.1,0.1c-0.1,0.1-0.1,0.1-0.2,0.2
							c-0.1,0.1-0.1,0.3-0.1,0.5l-0.3,0c0-0.2,0-0.5,0-0.8c-0.1-0.6-0.3-1.1-0.6-1.6c-0.3-0.3-0.6-0.6-0.9-0.9
							c0.1-0.2,0.1-0.4,0.2-0.6c0-0.4,0-0.8,0-1.2c0-0.8,0-1.5,0-2.2c0.1-1.5,0.1-3,0-4.5c-0.1-3-0.6-6-1.1-8.9
							c-0.1-0.8-0.2-1.6-0.4-2.4c0-0.3-0.1-0.6-0.2-0.9c0.2-1.1,0.3-2.1,0.3-3.2c0-2-0.5-4-1.5-5.7c0-0.1-0.1,0-0.1,0
							c0.5,1.8,0.7,3.6,0.5,5.4c-0.3,1.9-0.8,3.6-0.9,5.5c-0.1,4,0.3,7.9,0.5,11.9c0,1.1,0.1,2.2,0.1,3.3c0,1,0.1,2.2,0.5,3.2
							c0,0.1,0.1,0.1,0.2,0.1c0.2,0.3,0.4,0.7,0.7,0.9c0.3,0.4,0.8,0.6,1.1,1c0.2,0.3,0.4,0.7,0.4,1.1c0,0.2,0,0.9-0.3,0.9
							C153.7,189,153.6,188.9,153.6,188.8z"/>
					</g>
					<g>
						<path d="M157.6,191.1c0,0-0.1,0-0.1,0c0,0,0,0,0,0C157.6,191.1,157.6,191.1,157.6,191.1z"/>
					</g>
					<g>
						<path d="M157.2,190.3C157.2,190.3,157.2,190.3,157.2,190.3C157.2,190.3,157.2,190.3,157.2,190.3z"/>
					</g>
					<g>
						<polygon points="157.2,190.3 157.2,190.3 157.2,190.3 						"/>
					</g>
					<g>
						<path d="M157.1,190.4L157.1,190.4L157.1,190.4C157.1,190.4,157.1,190.4,157.1,190.4z"/>
					</g>
					<g>
						<path d="M157.2,190.3c0-0.1,0.1-0.2,0.1-0.3c0-0.1,0.1-0.2,0.1-0.2c0.1-0.1,0.1-0.3,0.1-0.4c0,0,0,0,0,0c0,0,0-0.1,0-0.1
							c0-0.1,0-0.2,0-0.3c0,0,0-0.1,0.1-0.1c0.2-0.3,0.5-0.4,0.8-0.2c0.2,0.1,0.3,0.3,0.4,0.5c0,0.1,0.1,0.2,0,0.4
							c0,0.2-0.1,0.4-0.1,0.6c0,0.1,0,0.1-0.1,0.2c-0.2,0.4-0.4,0.8-0.8,0.9c0,0,0,0,0,0c-0.1,0-0.2,0-0.3,0c0,0,0,0,0,0
							c0,0,0,0,0,0c-0.2,0-0.3-0.2-0.4-0.4c0,0,0,0,0,0c0-0.1,0-0.1,0-0.2C157.1,190.4,157.1,190.4,157.2,190.3
							C157.1,190.4,157.1,190.4,157.2,190.3c0,0.1-0.1,0.1-0.1,0.1C157.1,190.4,157.1,190.4,157.2,190.3L157.2,190.3
							C157.1,190.3,157.1,190.3,157.2,190.3L157.2,190.3C157.2,190.3,157.2,190.3,157.2,190.3L157.2,190.3
							C157.2,190.3,157.1,190.3,157.2,190.3C157.2,190.3,157.2,190.3,157.2,190.3C157.2,190.3,157.2,190.3,157.2,190.3
							C157.2,190.3,157.2,190.3,157.2,190.3L157.2,190.3z"/>
					</g>
					<g>
						<path d="M156.3,158.4c0.5-2.3,1.3-4.8,0.6-7.1c0-0.1,0.1-0.2,0.2-0.1c1.3,2.4,0.5,5-0.5,7.3
							C156.4,158.7,156.2,158.6,156.3,158.4z"/>
					</g>
					<g>
						<path d="M156,187.8C156,187.8,156,187.8,156,187.8C155.9,187.8,156,187.8,156,187.8z M156.2,187.8L156.2,187.8
							C156.1,187.8,156.1,187.8,156.2,187.8C156.1,187.8,156.1,187.8,156.2,187.8C156.1,187.8,156.1,187.8,156.2,187.8
							C156.1,187.8,156.2,187.8,156.2,187.8z M155.3,189.8c0-0.1,0-0.2,0-0.2s0-0.2,0.1-0.2c0.1-0.2,0.1-0.3,0.1-0.5
							c0-0.1,0-0.1,0-0.2v0c0-0.2,0-0.3,0.1-0.5c0-0.1,0.1-0.2,0.2-0.2c0,0,0-0.1,0.1-0.1c0,0,0.1-0.1,0.2,0c0.1,0,0.1,0.1,0.2,0.1
							c0.1,0,0.2,0.1,0.3,0.2c0.1,0.1,0.2,0.2,0.2,0.4c0,0.3,0,0.5,0,0.8c0,0.2-0.1,0.4-0.2,0.6c-0.1,0.1-0.1,0.2-0.2,0.3
							c-0.1,0.1-0.2,0.1-0.3,0.2c0,0,0,0,0,0c0,0-0.1,0-0.1,0c0,0,0,0,0.1,0c-0.1,0-0.2,0-0.3,0c-0.1,0-0.1-0.1-0.2-0.2c0,0,0,0,0,0
							c0,0,0-0.1,0-0.1C155.3,189.8,155.3,189.8,155.3,189.8z"/>
					</g>
					<g>
						<path d="M155.3,190C155.3,190,155.3,190,155.3,190C155.3,190,155.3,190,155.3,190z"/>
					</g>
					<g>
						<path d="M154.5,145.4c-0.4-0.2-0.8-0.3-1.2-0.2c-0.1,0-0.1-0.1,0-0.1c0.9-0.5,1.8,0.3,2.5,0.8c0.1,0.1,0.3,0.1,0.4,0.2
							c0-0.1-0.1-0.3-0.1-0.5c-0.1-0.6-0.2-1.1-0.1-1.7c0-0.5,0.2-0.9,0.5-1.3c0,0,0,0,0,0c-0.1,0.6-0.1,1.3,0,1.9
							c0.1,0.3,0.2,0.7,0.3,1c0-0.1,0.1-0.2,0.1-0.2l0.4,0.2c-0.1,0.1-0.1,0.3-0.2,0.4c0,0.1-0.1,0.1-0.1,0.2c0,0.1,0.1,0.2,0.1,0.3
							c0,0,0,0.1,0.1,0.1c0.5,0.1,1.1,0.1,1.6-0.1c0.1,0,0.1,0.1,0.1,0.1c-0.5,0.2-1,0.3-1.5,0.3c0.2,0.4,0.4,0.8,0.6,1.3
							c0.1,0,0.2,0,0.3,0c0.1,0,0.1,0.1,0,0.2c-0.1,0-0.1,0-0.2,0c0.2,0.5,0.4,0.9,0.6,1.4c0.5,1.1,0.7,2.4,0.9,3.6
							c0.1,0.6,0.1,1.2,0,1.8c0,0.3,0,0.5,0,0.8c0,1.2-0.3,2.4-0.5,3.6c-0.2,1-0.5,2.1-0.8,3.1c-0.3,1-0.6,2-0.7,3.1
							c-0.1,2.2,0,4.3,0,6.5c0,2.2,0,4.5,0,6.7c0,1.1,0,2.2,0,3.4c0,0.4,0,0.8-0.1,1.2c0,0,0,0.1,0,0.2c0,0.5,0.2,1,0.5,1.5
							c0.3,0.4,0.7,0.6,1,0.9c0.4,0.3,0.8,0.7,1.1,1.1c0.7,0.8,1,1.9,0.8,3c-0.1,0.4-0.3,0.9-0.6,1.2c-0.3,0.3-0.8,0.3-1.2,0.4
							c-0.3,0-0.3-0.3-0.1-0.4c0.2-0.1,0.2-0.3,0.3-0.5c0-0.1,0.1-0.2,0.1-0.3c0-0.1,0.1-0.2,0.1-0.3c0.1-0.3,0.2-0.7,0-1.1
							c-0.3-0.8-1-1.4-1.6-2c-0.3-0.3-0.6-0.6-0.9-0.9c0,0.1-0.1,0.1-0.1,0.2c-0.1,0.1-0.1,0.2-0.2,0.3c0,0.1-0.1,0.2-0.1,0.3
							c-0.1,0.1-0.3,0.1-0.3,0c0-0.1,0-0.2,0-0.3c-0.1-0.1-0.1-0.2-0.1-0.3c-0.1-0.1-0.1-0.3-0.1-0.5c0-0.3,0-0.6,0.1-0.9
							c0-0.2,0-0.5,0.1-0.7c0-0.5,0-0.9,0-1.4c0-0.3,0-0.5,0-0.8c0-1.2,0-2.4,0-3.6c0-2.2,0-4.4,0-6.6c0-1.1,0-2.2,0-3.4
							c0-1-0.1-2.1,0-3.1c0.1-1.1,0.4-2,0.7-3.1c0.3-1,0.6-2.1,0.8-3.1c0.2-1,0.4-2.1,0.6-3.1c0-0.1,0-0.1,0-0.2
							c-0.1-0.9,0-1.9-0.2-2.8c-0.2-1.2-0.5-2.4-1-3.6c-0.1-0.3-0.2-0.6-0.3-0.9c0,0-0.1,0-0.1,0c-0.5-0.1-0.9-0.3-1.3-0.6
							c-0.3-0.2-0.5-0.5-0.8-0.7l0.2-0.3c0.1,0.1,0.3,0.2,0.4,0.3c0.4,0.4,0.9,0.6,1.4,0.8c-0.1-0.1-0.1-0.3-0.2-0.4
							c-0.1-0.3-0.2-0.6-0.3-0.8c0,0-0.1,0-0.1-0.1c-0.5-0.2-0.9-0.6-1.3-0.9c-0.1-0.1-0.1-0.1-0.2-0.1L154.5,145.4
							C154.4,145.4,154.5,145.4,154.5,145.4z"/>
					</g>
					<g>
						<path d="M153.6,140.7c-0.2-0.1-0.3-0.2-0.4-0.4c-0.1-0.2-0.1-0.4-0.1-0.5c0-0.1,0-0.1,0-0.2c-0.3,0.2-0.5,0.5-0.7,0.9
							c0,0,0,0.1,0,0.1c0,0,0,0,0,0.1c0,0,0,0,0,0h0c0,0,0,0,0,0s0,0,0,0c0,0,0,0,0,0c0,0,0,0,0,0c0,0,0.1,0.1,0.1,0.1c0,0,0,0,0,0
							c0,0,0.1,0,0.1,0.1c0,0,0,0,0,0.1c0.1,0,0.3,0,0.5,0c0.4,0,0.7-0.1,1-0.3c0.3-0.2,0.5-0.4,0.7-0.7c0.1-0.1,0.1-0.3,0.2-0.4
							c-0.1,0-0.1,0-0.2-0.1c-0.2-0.1-0.3-0.1-0.5-0.2c-0.1,0-0.2,0-0.3,0c0.1,0.1,0.1,0.2,0.2,0.3c0,0.1,0.1,0.2,0.1,0.3
							c0,0.1,0,0.2,0,0.3c0,0.2-0.1,0.4-0.3,0.5c-0.1,0.1-0.2,0.1-0.3,0.1C153.8,140.7,153.7,140.7,153.6,140.7L153.6,140.7
							C153.6,140.7,153.6,140.7,153.6,140.7L153.6,140.7z M154.5,141.1c-0.4,0.2-0.8,0.3-1.3,0.3c-0.2,0-0.4-0.1-0.6-0.1
							c0,0,0,0,0,0c0,0,0,0,0,0c0,0.1-0.1,0.1-0.2,0.1c0,0,0,0,0,0c0,0,0,0,0,0c0,0-0.1,0-0.1,0c0,0,0,0,0,0c0,0,0,0,0,0
							c0,0,0,0,0,0s0,0,0,0c0,0,0,0,0,0.1c0,0,0,0,0,0c0,0,0,0,0,0c0,0,0,0-0.1-0.1c-0.3-1,0.3-2,1.2-2.5c0.5-0.2,1-0.3,1.5-0.3
							c0.2,0,0.5,0.1,0.7,0.2c0.1,0,0.1,0.1,0.2,0.2c0,0,0.1,0,0.1,0c0.1,0.2,0.1,0.4,0,0.6c-0.1,0.2-0.1,0.4-0.3,0.5
							C155.2,140.6,154.9,140.9,154.5,141.1z"/>
					</g>
					<g>
						<path d="M149,187.1c0,0,0.1,0,0.2,0C149.2,187.2,149.2,187.2,149,187.1C149.1,187.2,149.1,187.2,149,187.1L149,187.1
							C149.1,187.2,149.1,187.2,149,187.1z"/>
					</g>
					<g>
						<path d="M150,148.2c0.3,0,0.6-0.1,0.9-0.1c0.1,0,0.3,0,0.4-0.1c0.1-0.1,0.3-0.1,0.4-0.1c0,0,0,0,0.1,0c0,0,0.1,0.1,0.1,0.1
							c0,0.2-0.1,0.3-0.3,0.4c-0.1,0.1-0.3,0.2-0.4,0.3c-0.2,0.1-0.4,0.2-0.6,0.3c-0.2,0-0.3,0-0.5,0c-0.2,0-0.4-0.1-0.6-0.2
							c-0.1-0.1-0.2-0.1-0.3-0.2c-0.1,0-0.2-0.1-0.2-0.1c-0.2-0.1-0.3-0.2-0.5-0.3s-0.3-0.3-0.4-0.4c0,0,0-0.1,0-0.1h0c0,0,0,0,0,0
							c0,0,0,0,0,0c0.2,0.1,0.3,0.1,0.5,0.2c0.1,0.1,0.3,0.1,0.5,0.2c0.1,0,0.1,0.1,0.2,0.1c0.1,0,0.1,0,0.2,0
							C149.7,148.2,149.9,148.2,150,148.2z"/>
					</g>
					<g>
						<path d="M144.6,140.2c-0.1-0.2-0.2-0.4-0.2-0.7c0,0,0,0,0,0c0-0.1,0-0.3,0.1-0.4c0.1-0.1,0.2-0.2,0.3-0.3
							c0.1-0.1,0.2-0.2,0.3-0.2c0.3-0.1,0.5-0.2,0.8-0.3c0.3,0,0.6,0,0.9,0.1c0.6,0.2,1,0.6,1.3,1.1c0.1,0.1,0.1,0.3,0.2,0.4
							c0,0.1,0,0.2,0,0.3c0,0,0,0.1,0,0.1c0,0.3,0,0.5-0.2,0.7c0,0,0,0,0,0c0,0.1,0,0.1-0.1,0.1c-0.1,0-0.2-0.1-0.4-0.1
							c-0.1,0-0.3,0-0.5,0c-0.6,0.1-1.3,0-1.8-0.4C145,140.6,144.8,140.4,144.6,140.2z M145.2,140.1c0.2,0.2,0.5,0.4,0.9,0.5
							c0.3,0.1,0.6,0.1,0.9,0.1c0.2,0,0.5-0.1,0.7,0c0-0.1,0-0.2-0.1-0.3c0,0-0.1-0.1-0.1-0.1c-0.1-0.1-0.1-0.1-0.1-0.2
							c0-0.1-0.1-0.2-0.2-0.3c0,0.1,0,0.2,0,0.3c0,0.1-0.1,0.3-0.2,0.4c-0.1,0.1-0.3,0.2-0.5,0.2c-0.3,0-0.6-0.2-0.7-0.4
							c-0.1-0.3-0.1-0.6,0-0.9c0-0.1,0.1-0.1,0.1-0.2c0,0,0.1,0,0.1-0.1c0,0-0.1,0-0.1,0c-0.2,0-0.3-0.1-0.5,0c-0.2,0-0.4,0-0.5,0.1
							c-0.1,0-0.1,0.1-0.2,0.2c0,0.1,0.1,0.3,0.1,0.4C145,139.9,145.1,140,145.2,140.1z"/>
					</g>
					<g>
						<path d="M144.3,165.9c-1.3-1.2-1.8-3.3-1.7-4.9c0-1,0.2-2,0.5-3c0.3-0.9,0.6-2,1.2-2.6c0.1-0.1,0.3,0,0.3,0.1
							c0,0.9-0.4,1.8-0.6,2.7c-0.2,0.9-0.4,1.8-0.5,2.7c0,0.8,0,1.7,0.2,2.5c0.2,0.9,0.5,1.6,0.9,2.4
							C144.8,165.9,144.5,166.1,144.3,165.9z"/>
					</g>
					<g>
						<path d="M145.6,132.4c0,0.4,0,0.7,0,1.1c0.2-0.3,0.4-0.5,0.7-0.8c-0.1,0-0.1-0.1-0.2-0.1C145.9,132.6,145.8,132.5,145.6,132.4
							z M142.9,135.6C142.9,135.6,142.9,135.6,142.9,135.6C142.9,135.6,142.9,135.6,142.9,135.6
							C142.9,135.6,142.9,135.6,142.9,135.6z M153.9,132.9c0.3,0.3,0.5,0.6,0.7,0.9c0-0.1,0-0.3-0.1-0.4c0-0.3,0-0.5,0-0.8
							C154.3,132.7,154.2,132.8,153.9,132.9C154,132.9,154,132.9,153.9,132.9z M154.9,134.9c-0.6-0.6-1.4-0.9-2.2-1.4
							c-0.8-0.4-1.6-0.7-2.5-0.8c-1-0.1-1.9,0.2-2.9,0.4c-0.4,0.1-0.9,0.2-1.3,0.5c-0.3,0.3-0.7,0.6-0.9,0.9h0
							c-0.2,0.3-0.6,0.5-0.9,0.5c0,0-0.1,0-0.1,0c-0.1,0.1-0.2,0.2-0.4,0.3c-0.1,0.1-0.3,0.1-0.4,0.2c-0.1,0-0.2,0-0.3,0
							c-0.1,0.1-0.1,0.3-0.2,0.5c-0.1,0.2-0.2,0.4-0.4,0.6c0,0,0,0,0,0l-0.1-0.1c0.1-0.3-0.1-0.6,0-0.9c0-0.3,0.2-0.7,0.4-0.9
							c0.1-0.2,0.2-0.2,0.4-0.3c0,0,0,0,0,0c0,0,0-0.1,0-0.1c0,0,0-0.1,0.1-0.1c0,0,0,0,0-0.1c0,0,0-0.1,0-0.1c0,0,0-0.1,0-0.1
							c0-0.1,0-0.2,0.1-0.3c0-0.1,0.1-0.3,0.2-0.4c0-0.1,0-0.1,0.1-0.2c0-0.1,0-0.2,0.1-0.2c0-0.1,0-0.2,0-0.3c0-0.1,0.2-0.1,0.3,0
							c0.1,0.1,0.1,0.2,0.2,0.3c0,0.1,0.1,0.2,0.1,0.2c0,0,0.1,0.1,0.1,0.1c0-0.1,0-0.2,0-0.4c-0.2-0.9-0.7-1.6-1.4-2.1
							c-0.4-0.3-0.7-0.6-1.1-0.8c-0.2-0.1-0.4-0.3-0.6-0.4c-0.1-0.1-0.3-0.3-0.5-0.3c-0.3,0-0.3,0.6-0.3,0.9
							c0.1,0.5,0.3,0.9,0.5,1.3c0.3,0.7,0.5,1.5,0.3,2.2l-0.4-0.1c-0.1-0.5-0.4-1-0.7-1.5c-0.4-0.6-0.6-1.3-0.7-2
							c0-0.6,0.2-1.3,0.7-1.6c0.6-0.4,1.2,0,1.8,0.2c1.1,0.5,2.2,1.2,2.9,2.2c0,0,0.1,0.1,0.1,0.1c0.3,0.2,0.5,0.5,0.8,0.7
							c0.3,0.2,0.5,0.4,0.9,0.6c0.1,0.1,0.3,0.1,0.5,0.2c0.9-0.6,2.1-0.8,3.1-0.7c1,0,1.9,0.3,2.8,0.8c0.2-0.1,0.4-0.1,0.6-0.3
							c0.3-0.1,0.5-0.3,0.7-0.4c0,0,0.1,0,0.1-0.1c0.1,0,0.1-0.1,0.2-0.1c0,0,0,0,0.1,0c0,0,0.1,0,0.1-0.1c0.5-1.1,1.4-2.1,2.4-2.9
							c0.5-0.4,1.2-0.8,1.8-0.4c0.5,0.3,0.9,0.9,1,1.4c0.4,1.2,0,2.5-0.4,3.6c-0.2,0.7-0.5,1.4-0.6,2c-0.1,0.4-0.3,0.7-0.4,1.1
							c0.1,0.4,0.3,0.8,0.4,1.2c0.3,0.9,0.6,2,0.7,3c0,1-0.3,1.9-0.7,2.8c-0.3,0.7-0.8,1.4-1.4,1.8c-0.1,0.2-0.2,0.4-0.3,0.6
							l-0.4-0.2c0,0,0,0,0,0c0.1-0.3,0.3-0.5,0.4-0.7c0-0.1,0.1-0.1,0.1-0.1c0.6-1.3,1.5-2.6,1.4-4.1c0-0.9-0.3-1.9-0.5-2.8
							c-0.1-0.4-0.3-1-0.4-1.4c0-0.1-0.1-0.1-0.1-0.2c-0.2-0.1-0.3-0.2-0.5-0.3c-0.2-0.1-0.4-0.3-0.6-0.4c-0.5-0.3-1-0.7-1.2-1.3
							c-0.1-0.6,0.1-1.2,0.4-1.7c0.3-0.4,0.7-0.9,1.2-1c0.1,0,0.1,0,0.1,0.1c-0.1,0.5-0.5,0.8-0.6,1.3c-0.1,0.4,0,0.8,0.2,1.1
							c0.2,0.3,0.7,0.5,1,0.8c0.1,0.1,0.3,0.3,0.4,0.5c0-0.3,0.1-0.5,0.2-0.8c0.1-0.4,0.2-0.7,0.4-1.1c0.4-1.2,0.7-2.6,0-3.7
							c-0.2-0.3-0.3-0.4-0.6-0.2c-0.3,0.2-0.5,0.4-0.7,0.6c-0.5,0.5-1,1-1.4,1.5c-0.1,0.2-0.3,0.5-0.5,0.7c-0.2,0.3-0.4,0.7-0.5,1.1
							c-0.2,0.6,0,1.3,0,1.9c0,0,0,0,0,0c-0.1-0.1-0.2-0.1-0.2-0.2c0,0,0,0,0,0C155.1,134.9,155,135,154.9,134.9z"/>
					</g>
					<g>
						<path d="M140.1,153.4c-0.6,0.9-1.4,1.6-2.2,2.2c-0.1,0.1-0.3-0.1-0.2-0.3c0.7-0.7,1.3-1.5,1.8-2.3c0.3-0.4,0.5-0.9,0.7-1.3
							c0.2-0.4,0.4-0.9,0.7-1.3c0.1-0.1,0.4-0.1,0.4,0.1c0.1,0.6-0.1,1.1-0.4,1.6C140.7,152.6,140.4,153,140.1,153.4z"/>
					</g>
					<g>
						<path d="M124.4,173c0,0.2-0.3,0.2-0.3,0c-0.3-1.4-0.3-2.8,0-4.1c0.1-0.7,0.4-1.4,0.6-2c0.3-0.6,0.5-1.3,1-1.7
							c0.1-0.1,0.3,0,0.2,0.1c-0.1,0.6-0.4,1.3-0.6,1.9c-0.2,0.6-0.4,1.2-0.5,1.8C124.6,170.4,124.5,171.7,124.4,173z"/>
					</g>
					<g>
						<path d="M150.3,188.5C150.2,188.5,150.2,188.5,150.3,188.5C150.2,188.4,150.2,188.4,150.3,188.5
							C150.2,188.5,150.2,188.5,150.3,188.5z M137.9,183.4c0.7,0,1.5,0.1,2.2,0.2c0-0.5,0.1-0.9,0.3-1.3
							C139.6,182.7,138.8,183,137.9,183.4z M145.7,175.9c-0.3,1.1-0.8,2.1-1.4,2.9c0,0,0,0.1,0,0.1c-0.2,0.7-0.7,1.2-1.1,1.8
							c-0.4,0.6-0.9,1.1-1.3,1.7c-0.2,0.3-0.6,0.9-0.4,1.2c0.3,0,0.7,0.1,1,0.2c0.7,0.2,1.4,0.6,1.9,1.1c0.8,0.3,1.5,0.6,2.1,1
							c0.3,0.2,0.6,0.4,0.8,0.7c-0.1-0.5-0.1-1-0.2-1.6c-0.1-1.3-0.1-2.6-0.3-4C146.5,179.4,146.3,177.6,145.7,175.9z M152.1,189
							L152.1,189C152.1,189,152.1,189,152.1,189C152.1,189,152.1,189,152.1,189z M152.1,170.8c0,0.8,0,1.5,0.1,2.2c0,2,0,4,0,6
							c0,1,0,1.9,0,2.9c0,0.4,0,0.8,0,1.2c0.1,0.2,0.1,0.4,0.2,0.7c0,0.1,0.1,0.3,0.2,0.4c0-0.3,0-0.6,0-0.9c0-0.8,0-1.7,0.1-2.5
							c0.1-3,0-6-0.5-9C152.2,171.5,152.2,171.2,152.1,170.8z M153.6,188.8c0,0.1,0,0.2,0,0.2c0.3,0,0.3-0.7,0.3-0.9
							c0-0.4-0.2-0.8-0.4-1.1c-0.3-0.4-0.7-0.7-1.1-1c-0.3-0.3-0.5-0.6-0.7-0.9c-0.1,0-0.1,0-0.2-0.1c-0.4-1-0.5-2.1-0.5-3.2
							c0-1.1-0.1-2.2-0.1-3.3c-0.1-3.9-0.6-7.9-0.5-11.9c0-1.9,0.6-3.7,0.9-5.5c0.3-1.8,0-3.6-0.5-5.4c0-0.1,0.1-0.1,0.1,0
							c1,1.7,1.5,3.7,1.5,5.7c0,1.1-0.2,2.1-0.3,3.2c0.1,0.3,0.1,0.6,0.2,0.9c0.1,0.8,0.3,1.6,0.4,2.4c0.4,3,0.9,5.9,1.1,8.9
							c0.1,1.5,0,3,0,4.5c0,0.7-0.1,1.5,0,2.2c0,0.4,0,0.8,0,1.2c0,0.2-0.1,0.4-0.2,0.6c0.3,0.3,0.7,0.5,0.9,0.9
							c0.4,0.5,0.6,1,0.6,1.6c0,0.3,0,0.5,0,0.8c0,0.3-0.2,0.7-0.4,1c-0.3,0.5-0.9,0.8-1.5,0.7c-0.2,0-0.3-0.1-0.5-0.2
							c-0.1,0.1-0.3,0.3-0.5,0.3c-0.3,0.1-0.5,0-0.8,0c-0.1,0-0.3-0.1-0.4-0.2c-0.1,0-0.2-0.1-0.3-0.1c-0.2,0-0.3-0.1-0.5-0.2
							c0,0,0,0-0.1-0.1c0,0,0,0,0,0c-0.1,0-0.2,0-0.3,0c-0.1,0-0.3,0-0.4-0.1c-0.2-0.1-0.4-0.2-0.5-0.3c-0.1-0.1-0.1-0.1-0.2-0.2
							c-0.1,0-0.2-0.1-0.3-0.2c-0.1-0.1-0.2-0.3-0.3-0.5c0-0.1,0-0.1,0-0.2c0,0-0.1,0-0.1-0.1c-0.1,0-0.1,0-0.2,0
							c-0.1,0-0.1-0.1-0.2-0.2c0,0.5-0.2,1-0.7,1.2c-0.1,0-0.3,0-0.3-0.2c-0.2-0.6-0.2-1.1-0.7-1.6c-0.2-0.2-0.5-0.3-0.7-0.5
							c0.1,0.5,0.1,0.9-0.1,1.4c-0.2,0.7-0.6,0.9-1.3,0.8c-0.2,0-0.3-0.2-0.2-0.3c0,0,0,0,0-0.1c-0.7-0.3-1.5-0.3-2.3-0.2
							c-0.9,0.1-1.9,0.1-2.8,0.1c-3.5-0.1-7-1.1-10.4-1.9c-1.8-0.4-3.5-0.7-5.3-1c-0.5-0.1-1-0.2-1.5-0.2c0,0-0.1,0-0.1,0
							c-0.8-0.1-1.5-0.2-2.2-0.4c0,0-0.1,0-0.1,0c-0.2,0-0.4-0.1-0.5-0.2c-1.9-0.6-3.7-1.7-5.3-3c-2.8-2.5-4.6-6-5.3-9.6
							c-0.8-4-0.3-8.1,0.8-12.1c0.6-2.1,1.3-4.1,2-6.1c0.7-2,1.5-4,1.8-6.1c0.3-1.8,0.3-3.6-0.3-5.3c-0.2-0.5-0.4-1.1-0.7-1.5
							c-0.3-0.3-0.7-0.6-1.1-0.8c-1-0.6-1.5-1.6-1-2.7c1.1-2.3,4.2-1.3,5.6,0.1c1.4,1.3,2.2,3.2,2.6,5.1c0.5,2.3,0.3,4.6-0.2,6.8
							c-0.6,2.2-1.5,4.3-2.2,6.5c-0.7,2.2-1.2,4.6-1.6,6.9c-0.7,4.1-0.9,8.8,1.3,12.6c0.9,1.6,2.1,2.9,3.6,3.9
							c0.7,0.5,1.5,0.8,2.3,1c0.6,0.2,1.3,0.3,1.9,0.3c-0.1-0.3-0.3-0.5-0.4-0.8c-0.3-0.8-0.5-1.7-0.7-2.6c-0.3-1.8-0.5-3.7-0.4-5.5
							c0.2-3.3,1-6.5,2.3-9.5c0.7-1.5,1.5-3,2.5-4.3c1-1.2,2.1-2.3,3.4-3.2c2.4-1.8,5.1-3.3,7.4-5.2c1.1-0.9,2.2-1.9,3-3.1
							c0.4-0.6,0.7-1.2,1-1.8c0.2-0.4,0.3-0.8,0.5-1.2c-0.2-0.4-0.3-0.9-0.4-1.3c-0.1-0.7,0-1.5,0.1-2.2c0.1-0.5,0.2-0.9,0.5-1.4
							c0-0.4,0.1-0.9-0.1-1.3c-0.2-0.5-0.5-0.9-0.8-1.3c-0.2-0.5-0.3-1.2-0.3-1.8c0-0.3,0.1-0.6,0.2-0.9c0-0.1,0-0.2,0.1-0.3
							l0.4,0.1c0,0,0,0,0,0c0.1,0.5,0.1,1,0.2,1.5c0.2,0.5,0.5,1,0.8,1.4c0.1,0.1,0.1,0.2,0.2,0.3l0.1,0.1c0.2,0.4,0.4,0.7,0.4,1.1
							c0,0.4-0.3,1-0.6,1.4c-0.1,0.4-0.2,0.8-0.2,1.2c-0.1,0.7,0,1.4,0.1,2.1c0,0.1,0.1,0.2,0.1,0.4c0.1,0,0.1,0.1,0.1,0.2
							c0,0.1,0,0.1,0,0.2c0.2,0.4,0.4,0.8,0.6,1.2c0.3,0.6,0.5,1.2,0.5,1.8c0,0.1,0,0.1-0.1,0.1c0,0.3,0,0.5,0,0.8
							c0.5-0.2,0.9-0.4,1.2-0.7c0.5-0.3,0.9-0.7,1.4-1c0-0.1,0-0.2,0.1-0.3c0-0.1,0.2-0.1,0.2,0c0,0.1,0,0.1,0,0.1
							c0.1-0.1,0.3-0.1,0.5-0.1c0.3,0,0.5,0,0.7,0.1c0.1,0,0.1,0.1,0,0.1c-0.4,0.1-0.8,0.3-1.2,0.5c0,0,0,0.1,0,0.1
							c0,0.1,0,0.2,0.1,0.3c0,0,0,0,0,0c0.3-0.2,0.8-0.4,1.2-0.3c0,0,0,0,0,0c-0.2,0.1-0.5,0.2-0.7,0.3c-0.1,0.1-0.3,0.2-0.4,0.3
							c0,0,0,0.1,0,0.1c0.1,0.1,0.2,0.3,0.4,0.4c0.2-0.3,0.4-0.5,0.7-0.6c0,0,0,0,0,0c-0.1,0.2-0.3,0.5-0.4,0.7c0.1,0,0.2,0,0.4,0
							c0.2,0,0.5-0.1,0.7-0.2c0.2-0.1,0.4-0.2,0.6-0.3c0.3-0.2,0.6-0.5,1-0.5c0,0,0,0,0,0c0,0,0,0,0,0c0-0.1,0-0.1,0-0.2
							c0-0.1,0-0.3,0-0.4c0-0.1,0-0.1,0-0.1c0,0,0,0,0-0.1c0,0,0-0.1,0-0.1c0,0,0-0.1-0.1-0.1c0,0-0.1,0-0.1,0c-0.1,0-0.2,0-0.2,0
							c-0.1,0-0.1,0-0.2-0.1c0,0,0,0,0,0c0,0-0.1-0.1-0.1-0.1s-0.1-0.1-0.1-0.1c0-0.1,0-0.1,0-0.2c-0.1-0.1-0.1-0.4-0.1-0.6
							c0,0,0-0.1,0-0.1c0,0,0,0,0,0c0,0,0-0.1,0.1-0.1c0-0.1,0.1-0.1,0.1-0.2c0,0,0-0.1,0.1-0.1c0,0,0-0.1,0-0.1c0-0.1,0-0.2,0-0.3
							c0,0,0,0,0,0c0,0.1,0.1,0.1,0.1,0.2c0,0.1,0.1,0.1,0.1,0.2s0,0.1,0,0.2c0,0.1,0,0.1-0.1,0.2c0,0,0,0.1,0,0.1c0,0,0,0,0,0
							c0,0,0,0.1,0,0.1c0,0,0,0,0,0h0c0,0,0.1,0.1,0.1,0.1c0,0,0,0,0,0l0,0c0,0,0,0,0,0c0,0,0,0,0.1,0c0,0,0.1,0,0.1,0
							c0.1,0,0.1,0,0.2,0c0,0,0.1,0,0.1,0c0,0,0,0,0,0c0.1,0,0.2,0,0.2,0.1l0,0c0,0,0.1,0,0.2,0c0,0,0.1,0,0.1,0
							c0.1-0.1,0.3-0.1,0.5-0.1c0,0,0.1,0,0.1,0c0,0,0,0,0.1,0c0,0,0.1,0,0.1,0c0,0,0,0,0,0c0,0,0,0,0,0c0.1,0,0.1-0.1,0.2-0.1
							c0,0,0,0,0,0c0-0.1,0-0.1,0.1-0.2c0,0,0,0,0,0c0-0.1-0.1-0.1-0.1-0.2c0-0.1,0-0.1,0-0.2c0-0.1,0-0.2,0-0.2c0-0.1,0-0.1,0-0.2
							c0-0.1,0-0.1,0.1-0.2c0-0.1,0.1-0.1,0.1,0c0,0.1,0.1,0.1,0.1,0.2c0,0.1,0,0.1,0.1,0.2c0,0.1,0,0.1,0.1,0.2
							c0,0.1,0.1,0.1,0.1,0.2c0,0.1,0.1,0.3,0.1,0.4c0,0.1,0,0.2-0.1,0.3c0,0.1,0,0.1,0,0.2c0,0.1,0,0.1-0.1,0.2
							c0,0.1-0.1,0.2-0.2,0.2c-0.1,0.1-0.3,0.1-0.5,0.1c-0.1,0-0.2,0-0.3-0.1c0,0,0,0,0,0.1c0,0,0,0,0,0c0,0,0,0,0,0
							c0,0,0,0.1,0,0.1c0,0,0,0,0,0c0,0.1,0,0.1-0.1,0.2c0,0.1,0,0.1,0,0.2c0,0,0,0.1,0,0.1c0,0,0,0,0,0.1c0,0.1,0,0.2,0,0.3
							c0.2,0,0.3,0.1,0.5,0.1c0.5,0.2,0.9,0.6,1.4,0.8c0.4,0.2,0.9,0.4,1.3,0.2c-0.3-0.3-0.6-0.6-1.1-0.8c0,0,0,0,0,0
							c0.5,0,1,0.2,1.3,0.6c0.1-0.2,0.3-0.3,0.4-0.5c0,0,0,0,0,0c-0.4-0.3-0.8-0.5-1.2-0.5c-0.1,0-0.1-0.1,0-0.1
							c0.5,0,0.9,0.1,1.3,0.4c0-0.1,0.1-0.1,0.1-0.2c0-0.2,0.1-0.3,0.1-0.5l0.2,0c0,0.2,0,0.3,0,0.5c0,0.1,0,0.3,0,0.4
							c0.1,0.1,0.3,0.2,0.4,0.3l-0.2,0.3c-0.1-0.1-0.2-0.2-0.3-0.2c-0.1,0.2-0.1,0.5-0.2,0.7c0,0.1,0,0.1-0.1,0.1
							c0.1,0.2,0.3,0.4,0.4,0.6c0.3,0.5,0.5,1,0.9,1.4c0.2,0.2,0.4,0.3,0.5,0.5c0.1,0.1,0.2,0.1,0.3,0.2c0.1,0.1,0.2,0.1,0.4,0.1
							c0.1,0,0.1,0.2,0,0.2c-0.4,0.1-1-0.2-1.3-0.5c-0.4-0.3-0.7-0.8-0.9-1.2c-0.2-0.3-0.4-0.6-0.6-0.9c-0.4,0.3-1,0.4-1.4,0.3
							c-0.3,0-0.5-0.1-0.7-0.3c-0.3-0.1-0.5-0.3-0.8-0.5c-0.2-0.1-0.4-0.3-0.7-0.4c-0.1,0-0.3-0.1-0.4-0.1c-0.2,0.1-0.4,0.2-0.5,0.3
							c-0.2,0.2-0.5,0.3-0.8,0.4c-0.2,0.1-0.4,0.1-0.5,0.1c0,0,0,0,0,0h0c-0.1,0-0.2,0-0.3,0.1c-0.3,0-0.5,0-0.8-0.1
							c-0.1,0-0.2-0.1-0.2-0.1c-0.1,0.2-0.3,0.5-0.4,0.7c-0.2,0.4-0.5,0.7-0.8,0.9c-0.3,0.3-0.7,0.5-1,0.7c-0.1,0.1-0.2-0.1-0.1-0.2
							c0.7-0.5,1.3-1.1,1.7-1.8c0.1-0.2,0.2-0.4,0.3-0.6c0,0-0.1-0.1-0.1-0.1c-0.1-0.1-0.3-0.3-0.3-0.5c-0.3,0.3-0.5,0.6-0.8,0.9
							c-0.6,0.8-1.4,1.4-2.4,1.6c-0.1,0-0.2-0.1-0.1-0.2c0.5-0.3,0.9-0.6,1.3-0.9c0.4-0.3,0.8-0.7,1.1-1.1c0.2-0.3,0.5-0.5,0.8-0.7
							c0-0.1-0.1-0.3-0.1-0.5c-0.5,0.3-1,0.7-1.5,1.1c-0.3,0.2-0.8,0.4-1.2,0.6c0,0.2-0.1,0.4-0.2,0.6c-0.1,0.2-0.2,0.4-0.3,0.6
							c-0.1,0.1-0.3,0-0.3-0.1c0-0.2,0.1-0.4,0.1-0.6c0-0.1,0-0.2,0-0.4c-0.4,0.1-0.9,0-1.2-0.1c-0.1,0-0.1-0.2,0-0.2
							c0.4-0.1,0.8-0.1,1.3-0.2c0-0.4,0-0.8-0.1-1.2c-0.1-0.3-0.1-0.6-0.2-0.9c0-0.1-0.1-0.1-0.1-0.2c0,0.1-0.1,0.3-0.1,0.4
							c-0.3,0.8-0.6,1.4-1,2.1c-0.9,1.4-1.9,2.6-3.2,3.6c-2.3,2-5,3.4-7.4,5.2c-1.1,0.9-2.2,1.9-3.1,3c-1,1.3-1.7,2.7-2.4,4.2
							c-1.3,2.9-2,6.1-2.1,9.2c-0.1,1.6-0.1,3.2,0.1,4.7c0.1,0.8,0.3,1.5,0.5,2.3c0.1,0.5,0.3,1.1,0.5,1.6c0,0,0,0,0,0
							c0.1,0.2,0.2,0.4,0.3,0.6c0.1,0.3-0.2,0.6-0.5,0.4c-0.1-0.1-0.1-0.1-0.2-0.2c-0.4,0.1-0.9,0.2-1.4,0.2c-1.5,0-3.1-0.6-4.3-1.4
							c-1.7-1-3.1-2.5-4.1-4.2c-2.2-3.6-2.3-8.1-1.8-12.3c0.3-2.2,0.7-4.4,1.2-6.6c0.6-2.2,1.4-4.3,2.1-6.4c0.7-2.1,1.2-4.2,1.1-6.4
							c-0.1-1.9-0.6-4-1.8-5.6c-0.5-0.6-1.1-1.2-1.9-1.5c-0.6-0.2-1.7-0.4-2,0.4c0,0.1,0,0.2,0,0.3c0.2,0.1,0.3,0.1,0.5,0.2
							c0.4,0.2,0.7,0.5,1,0.8c0.6,0.7,1.1,1.5,1.5,2.4c0.8,1.9,0.8,3.9,0.6,5.9c-0.3,2.1-1,4.1-1.8,6.1c-0.7,2-1.5,4-2.1,6
							c-1.1,3.8-1.8,7.9-0.9,11.8c0.7,3.6,2.5,6.9,5.3,9.2c1.3,1.1,2.9,1.9,4.5,2.5c0.7,0.2,1.5,0.4,2.2,0.5c0.2,0,0.4,0,0.5,0
							c0.2,0,0.4,0,0.6,0.1c0.2,0,0.4,0,0.6,0c0.1,0,0.2,0,0.3,0.1c0.2,0,0.4,0,0.6,0.1c3.6,0.5,7.1,1.5,10.7,2.2
							c1.8,0.3,3.5,0.6,5.3,0.5c1.2,0,2.5-0.3,3.6,0c-0.1-0.2-0.2-0.5-0.3-0.7c-0.2-0.3-0.5-0.6-0.7-0.8c-0.3-0.1-0.7-0.3-1-0.5
							c0,0,0,0,0,0c-0.3-0.1-0.5-0.1-0.8-0.1c-1.4-0.1-2.8-0.3-4.2-0.4c-1.4-0.2-2.8-0.2-4.1-0.7c0,0,0,0-0.1,0
							c-0.3-0.1-0.2-0.7,0.1-0.7c0.4-0.1,0.8-0.1,1.3-0.1c0.1,0,0.2-0.1,0.3-0.1c0.3-0.1,0.7-0.3,1-0.5c0.7-0.3,1.4-0.5,2-0.8
							c1.3-0.5,2.6-1.2,3.7-2c1-0.7,1.9-1.6,2.5-2.6c0.3-0.5,0.6-1,0.8-1.6c0.1-0.3,0.2-0.6,0.3-0.9c0-0.1,0.1-0.3,0.1-0.4
							c0-0.1,0-0.1,0.1-0.2c-0.1-0.1-0.1-0.2-0.1-0.3c0,0,0,0,0,0c-0.1-0.2-0.2-0.4-0.4-0.6c0,0.6-0.3,1.3-0.5,1.9
							c-0.3,0.6-0.6,1.2-1.1,1.8c-0.8,1.1-2,2.1-3.1,2.8c-0.1,0.1-0.3-0.1-0.2-0.2c0.5-0.4,1-0.9,1.5-1.4c0.5-0.5,0.8-1.1,1.2-1.6
							s0.7-1.1,1-1.7c0.3-0.6,0.6-1.3,1-1.8c0,0,0,0,0,0c-0.8-1.2-1.7-2.3-2.3-3.6c-0.8-1.8-1.3-3.8-1.3-5.8c0-1,0.1-2,0.3-2.9
							c0.2-0.9,0.5-1.9,1-2.7c0-0.1,0.2,0,0.1,0.1c-0.2,1.1-0.4,2.2-0.4,3.4c0,1.1,0,2.1,0.2,3.2c0.3,1.9,0.9,3.8,1.9,5.5
							c0.5,0.9,1.1,1.7,1.8,2.5c0.6,0.9,1.1,1.8,1.5,2.8c0.8,2.1,1,4.4,1.3,6.5c0.1,1.1,0.2,2.2,0.2,3.3c0,0.5,0,0.9,0.1,1.3
							c0.1,0,0.2,0.1,0.3,0.1c0.1,0.1,0.1,0.2,0.2,0.3c0,0,0,0.1,0,0.1c0,0,0,0.1,0,0.1c0,0,0,0,0,0c0,0,0,0,0,0c0,0,0,0,0,0
							c0,0,0,0,0,0c0,0,0.1,0,0.1,0.1h0c0,0,0,0,0,0h0c0.1,0,0.1,0,0.2,0c0.2,0,0.3,0.2,0.3,0.3c0,0,0.1,0.1,0.1,0.1
							c0.1,0.1,0.1,0.3,0.1,0.4c0,0,0,0,0,0c0,0,0.1,0,0.1,0.1c0,0,0.1,0.1,0.2,0.2c0,0,0,0,0,0c0,0,0,0,0.1,0c0,0,0.1,0,0.1,0
							c0,0,0,0,0,0c0,0,0,0,0-0.1c0-0.1,0.1-0.2,0.1-0.2c0,0,0,0,0-0.1c0,0,0-0.1,0-0.1c0,0,0-0.1,0-0.1c0-0.1,0.1-0.3,0.2-0.3
							c0.1,0,0.3,0,0.3,0.1c0,0,0,0.1,0.1,0.1c0,0,0.1,0.1,0.1,0.1c0,0,0.1,0.1,0.1,0.1c0.1,0.1,0.2,0.2,0.2,0.3c0,0,0-0.1,0-0.1
							c0.1,0.1,0.1,0.3,0.2,0.5c0,0,0,0,0,0c0.1,0,0.2,0.1,0.3,0.2c0,0,0,0,0,0c0,0,0,0,0,0c0,0,0.1-0.1,0.1-0.1c0,0,0,0,0.1-0.1
							c0-0.1,0-0.2-0.1-0.4c0-0.2,0-0.4-0.1-0.5c0-0.1,0.1-0.3,0.2-0.3c0.5,0,0.8,0.1,1.1,0.6C153.6,188.3,153.6,188.6,153.6,188.8z
							"/>
					</g>
				</g>
			</g>
			<g>
				<g>
					<path d="M110.4,138.6c-0.3,1.5,1.8,1.5,2.5,0.7c1.1-1.2,0.5-3.3,0.5-4.7c0-1.6,0.3-3.2,1-4.6c0.7-1.4,1.6-2.8,2.5-4.1
						c1-1.4,2-2.7,3-4c1-1.3,2-2.6,2.5-4.1c1.1-3.2,0.6-6.6-0.5-9.8c-0.6-1.8-1.5-3.5-2-5.3c-0.3-1-0.3-2-0.2-3c0-1,0.1-2,0.2-3
						c0-0.3-0.4-0.3-0.4-0.1c-0.2,0.8-0.6,1.6-0.7,2.4c-0.1,0.8-0.2,1.6-0.1,2.4c0.1,1.6,0.7,3.1,1.3,4.5c1.1,2.9,2,6.1,1.6,9.2
						c-0.2,1.4-0.6,2.9-1.4,4.1c-0.8,1.3-1.9,2.4-2.8,3.6c-0.9,1.3-1.8,2.6-2.7,3.9c-0.8,1.3-1.6,2.6-2.1,4
						c-0.6,1.7-0.6,3.4-0.6,5.2c0,0.7,0.2,1.6-0.1,2.3c-0.2,0.4-0.7,0.6-1,0.2C110.8,138.3,110.4,138.3,110.4,138.6L110.4,138.6z"/>
				</g>
			</g>
			<g>
				<g>
					<path d="M112.4,139.4c0.4-0.3,0.9-0.3,1.3-0.3c0.6,0,1.1-0.1,1.6-0.4c1.2-0.7,1.7-2,2.3-3.2c0.6-1.2,1.5-2.2,2.5-3.2
						c1.1-1,2.1-2,3.3-2.9c4.1-3.4,9.6-4.7,12.9-9c0.9-1.2,1.6-2.4,2.1-3.8c0.3-0.7,0.5-1.4,0.6-2.1c0.1-0.3,0.1-0.7,0.2-1
						c0-0.4-0.1-0.7-0.1-1.1c0-0.2-0.4-0.3-0.4-0.1c-0.1,0.3-0.3,0.6-0.3,0.9c-0.1,0.3-0.1,0.6-0.2,1c-0.1,0.6-0.4,1.2-0.6,1.8
						c-0.5,1.2-1.1,2.3-1.8,3.3c-1.5,2.1-3.6,3.6-5.9,4.8c-2.3,1.3-4.7,2.5-6.8,4.1c-1.1,0.9-2.2,1.9-3.3,2.8c-1,0.9-2,1.9-2.7,3
						c-0.4,0.7-0.7,1.4-1,2.1c-0.3,0.6-0.6,1.3-1.2,1.6c-0.9,0.6-2.6,0.1-2.8,1.4C111.9,139.2,112.1,139.5,112.4,139.4L112.4,139.4z
						"/>
				</g>
			</g>
			<g>
				<g>
					<path d="M112.9,137.9c-0.2-1.1-1.5-1.7-2.5-2c-1.3-0.4-2.5-0.8-3.6-1.5c-2.3-1.3-4.4-3.1-6-5.1c-3.7-4.8-5.1-10.9-5.2-16.9
						c0-1.9,0-3.8,0.1-5.6c0-1,0.1-1.9,0.1-2.9c0-1,0-1.9,0-2.9c0-0.3-0.5-0.4-0.6-0.1c-0.1,0.9-0.3,1.7-0.5,2.5
						c-0.1,0.8-0.2,1.6-0.3,2.5c-0.2,1.7-0.3,3.4-0.3,5.1c-0.1,3.2,0.3,6.5,1.1,9.6c1.4,5.6,4.5,10.7,9.4,14c1.3,0.9,2.6,1.5,4.1,2
						c0.7,0.2,1.4,0.4,2.1,0.6c0.7,0.1,1.2,0.3,1.7,0.9C112.7,138.4,113,138.1,112.9,137.9L112.9,137.9z"/>
				</g>
			</g>
			<g>
				<g>
					<path d="M119.6,97.1C119.7,97.2,119.6,97.2,119.6,97.1C119.6,97.1,119.6,97.1,119.6,97.1c-0.1-0.1-0.1-0.1-0.1-0.1
						s-0.1-0.1-0.1-0.1c-0.1,0,0.1,0.1,0,0c0,0,0,0,0,0c0,0,0,0,0,0c0,0,0-0.1,0-0.1c0,0,0,0.1,0,0c0,0,0-0.1,0-0.1c0-0.1,0,0.1,0,0
						c0,0,0-0.1,0,0c0,0.1,0,0,0,0c0-0.1,0-0.1,0-0.2c0,0.1,0,0,0,0c0-0.1,0.1-0.2,0.1-0.3c0-0.1,0.1-0.3,0.2-0.4
						c0-0.1,0.1-0.3,0.1-0.4c0,0,0-0.1,0-0.1c0,0,0-0.1,0-0.1c0-0.1,0,0,0,0c0,0,0,0,0,0c0,0,0,0,0,0c0,0,0,0,0,0
						c0,0,0.1,0.1,0.1,0.1c0.1,0.2,0.2,0.4,0.2,0.6c0,0.1,0,0.2,0.1,0.3c0,0.1,0,0.1,0,0.2c0,0,0,0.1,0,0.1c0,0,0,0.1,0,0.1
						c0-0.1,0,0,0,0.1c0,0,0,0,0,0.1c0,0,0,0.1,0,0.1c0-0.1,0,0,0,0c0,0,0,0.1,0,0c0,0,0.1-0.1,0,0c0,0-0.1,0.1-0.1,0.1
						c0.1-0.1,0,0,0,0c0,0,0.1-0.1,0,0c0,0,0,0,0,0c0,0,0,0,0,0c0,0,0,0,0,0c0,0,0,0,0,0c0,0,0,0-0.1,0c0,0,0,0-0.1,0c0,0,0.1,0,0,0
						c0,0-0.1,0-0.1,0c0,0,0,0-0.1,0c-0.1,0,0,0,0,0c-0.1,0-0.2,0-0.3,0c0,0,0,0-0.1,0c-0.1,0,0.1,0,0,0c0,0,0,0-0.1,0
						c0,0-0.1,0-0.1,0c-0.2,0-0.2,0-0.1,0c-0.2,0-0.4,0.1-0.5,0.4c0,0.2,0,0.4,0.2,0.6c0.2,0.1,0.4,0.1,0.5,0.1c0.2,0,0.3,0,0.5,0
						c0.3,0,0.6-0.1,0.8-0.3c0.1-0.1,0.2-0.3,0.3-0.4c0-0.1,0-0.2,0-0.1c0-0.1,0-0.1,0-0.2c0-0.1,0-0.1,0-0.2c0-0.2,0-0.3-0.1-0.5
						c-0.1-0.2-0.1-0.3-0.2-0.5c-0.1-0.3-0.3-0.6-0.5-0.8c-0.2-0.2-0.6-0.4-0.9-0.2c-0.1,0.1-0.2,0.2-0.3,0.4
						c-0.1,0.1-0.2,0.3-0.3,0.4c-0.2,0.3-0.3,0.6-0.5,0.9c-0.3,0.4-0.2,1,0.2,1.3c0.4,0.3,0.9,0.4,1.2,0c0.1-0.1,0.1-0.2,0-0.3
						C119.8,97.2,119.7,97.1,119.6,97.1L119.6,97.1z"/>
				</g>
			</g>
			<g>
				<g>
					<path d="M119.3,95.9C119.2,95.9,119.2,95.9,119.3,95.9c-0.1,0.2-0.1,0.3-0.1,0.4c0,0.1,0.1,0.1,0.1,0.2
						c0.1,0.1,0.3,0.2,0.5,0.2c0.1,0,0.2,0,0.3,0s0.2,0,0.3,0c0.1,0,0.2-0.1,0.3-0.2c0-0.1,0.1-0.1,0.1-0.2c0-0.1,0-0.3,0-0.4
						c0,0.1,0,0.2,0,0.3c0-0.1,0-0.1,0-0.1c0-0.1-0.1-0.2-0.2-0.3c0,0-0.1,0-0.2,0s-0.1,0-0.2,0c0,0,0,0,0,0c0,0,0,0,0.1,0
						c0,0,0,0,0,0c0.1,0,0.2,0,0.3,0c0,0-0.1,0-0.2-0.1c-0.1,0-0.2,0-0.3,0.1c0,0,0.1,0,0.1,0c-0.1,0-0.2,0.1-0.3,0.1
						c0,0,0.1,0,0.1,0c-0.1,0-0.1,0-0.2,0c0,0,0.1,0,0.1,0c-0.1,0-0.1,0-0.2,0c-0.1,0-0.1,0-0.2,0c0,0,0.1,0,0.1,0c0,0,0,0-0.1,0
						c0,0,0.1,0,0.1,0c-0.1,0-0.1-0.1-0.2-0.1c-0.1,0-0.1,0-0.1,0c0,0,0.1,0,0.1,0C119.4,95.8,119.3,95.8,119.3,95.9L119.3,95.9z"/>
				</g>
			</g>
			<g>
				<g>
					<path d="M138.6,112.9C138.8,113,138.7,113,138.6,112.9C138.6,112.9,138.6,112.9,138.6,112.9c-0.1-0.1-0.1-0.1-0.1-0.1
						s-0.1-0.1-0.1-0.1c-0.1,0,0.1,0.1,0,0c0,0,0,0,0,0c0,0,0,0,0,0c0,0,0-0.1,0-0.1c0,0,0,0.1,0,0c0,0,0-0.1,0-0.1c0-0.1,0,0.1,0,0
						c0,0,0-0.1,0,0c0,0.1,0,0,0,0c0-0.1,0-0.1,0-0.2c0,0.1,0,0,0,0c0-0.1,0.1-0.2,0.1-0.3c0-0.1,0.1-0.3,0.2-0.4
						c0-0.1,0.1-0.3,0.1-0.4c0,0,0-0.1,0-0.1c0,0,0-0.1,0-0.1c0-0.1,0,0,0,0c0,0,0,0,0,0c0,0,0,0,0,0c0,0,0,0,0,0
						c0,0,0.1,0.1,0.1,0.1c0.1,0.2,0.2,0.4,0.2,0.6c0,0.1,0,0.2,0.1,0.3c0,0.1,0,0.1,0,0.2c0,0,0,0.1,0,0.1c0,0,0,0.1,0,0.1
						c0-0.1,0,0,0,0.1c0,0,0,0,0,0.1c0,0,0,0.1,0,0.1c0-0.1,0,0,0,0c0,0,0,0.1,0,0c0,0,0.1-0.1,0,0c0,0-0.1,0.1-0.1,0.1
						c0.1-0.1,0,0,0,0c0,0,0.1-0.1,0,0c0,0,0,0,0,0c0,0,0,0,0,0c0,0,0,0,0,0c0,0,0,0,0,0c0,0,0,0-0.1,0c0,0,0,0-0.1,0c0,0,0.1,0,0,0
						c0,0-0.1,0-0.1,0c0,0,0,0-0.1,0c-0.1,0,0,0,0,0c-0.1,0-0.2,0-0.3,0c0,0,0,0-0.1,0c-0.1,0,0.1,0,0,0c0,0,0,0-0.1,0
						c0,0-0.1,0-0.1,0c-0.2,0-0.2,0-0.1,0c-0.2,0-0.4,0.1-0.5,0.4c0,0.2,0,0.4,0.2,0.6c0.2,0.1,0.4,0.1,0.5,0.1c0.2,0,0.3,0,0.5,0
						c0.3,0,0.6-0.1,0.8-0.3c0.1-0.1,0.2-0.3,0.3-0.4c0-0.1,0-0.2,0-0.1c0-0.1,0-0.1,0-0.2c0-0.1,0-0.1,0-0.2c0-0.2,0-0.3-0.1-0.5
						c-0.1-0.2-0.1-0.3-0.2-0.5c-0.1-0.3-0.3-0.6-0.5-0.8c-0.2-0.2-0.6-0.4-0.9-0.2c-0.1,0.1-0.2,0.2-0.3,0.4
						c-0.1,0.1-0.2,0.3-0.3,0.4c-0.2,0.3-0.3,0.6-0.5,0.9c-0.3,0.4-0.2,1,0.2,1.3c0.4,0.3,0.9,0.4,1.2,0c0.1-0.1,0.1-0.2,0-0.3
						C138.8,113,138.7,113,138.6,112.9L138.6,112.9z"/>
				</g>
			</g>
			<g>
				<g>
					<path d="M138.3,111.7C138.3,111.7,138.3,111.8,138.3,111.7c-0.1,0.2-0.1,0.3-0.1,0.4c0,0.1,0.1,0.1,0.1,0.2
						c0.1,0.1,0.3,0.2,0.5,0.2c0.1,0,0.2,0,0.3,0s0.2,0,0.3,0c0.1,0,0.2-0.1,0.3-0.2c0-0.1,0.1-0.1,0.1-0.2c0-0.1,0-0.3,0-0.4
						c0,0.1,0,0.2,0,0.3c0-0.1,0-0.1,0-0.1c0-0.1-0.1-0.2-0.2-0.3c0,0-0.1,0-0.2,0s-0.1,0-0.2,0c0,0,0,0,0,0c0,0,0,0,0.1,0
						c0,0,0,0,0,0c0.1,0,0.2,0,0.3,0c0,0-0.1,0-0.2-0.1c-0.1,0-0.2,0-0.3,0.1c0,0,0.1,0,0.1,0c-0.1,0-0.2,0.1-0.3,0.1
						c0,0,0.1,0,0.1,0c-0.1,0-0.1,0-0.2,0c0,0,0.1,0,0.1,0c-0.1,0-0.1,0-0.2,0c-0.1,0-0.1,0-0.2,0c0,0,0.1,0,0.1,0c0,0,0,0-0.1,0
						c0,0,0.1,0,0.1,0c-0.1,0-0.1-0.1-0.2-0.1c-0.1,0-0.1,0-0.1,0c0,0,0.1,0,0.1,0C138.4,111.6,138.4,111.6,138.3,111.7L138.3,111.7
						z"/>
				</g>
			</g>
			<g>
				<g>
					<path d="M95.9,99.7C96,99.8,96,99.8,95.9,99.7C95.9,99.7,95.9,99.7,95.9,99.7c-0.1-0.1-0.1-0.1-0.1-0.1s-0.1-0.1-0.1-0.1
						c-0.1,0,0.1,0.1,0,0c0,0,0,0,0,0c0,0,0,0,0,0c0,0,0-0.1,0-0.1c0,0,0,0.1,0,0c0,0,0-0.1,0-0.1c0-0.1,0,0.1,0,0c0,0,0-0.1,0,0
						c0,0.1,0,0,0,0c0-0.1,0-0.1,0-0.2c0,0.1,0,0,0,0c0-0.1,0.1-0.2,0.1-0.3c0.1-0.1,0.1-0.3,0.2-0.4c0.1-0.1,0.1-0.3,0.1-0.4
						c0,0,0-0.1,0-0.1c0,0,0-0.1,0-0.1c0-0.1,0,0,0,0c0,0,0,0,0,0c0,0,0,0,0,0c0,0,0,0,0,0c0,0,0.1,0.1,0.1,0.1
						c0.1,0.2,0.2,0.4,0.2,0.6c0,0.1,0.1,0.2,0.1,0.3c0,0.1,0,0.1,0,0.2c0,0,0,0.1,0,0.1c0,0,0,0.1,0,0.1c0-0.1,0,0,0,0.1
						c0,0,0,0,0,0.1c0,0,0,0.1,0,0.1c0-0.1,0,0,0,0c0,0,0,0.1,0,0c0,0,0.1-0.1,0,0c0,0-0.1,0.1-0.1,0.1c0.1-0.1,0,0,0,0
						c0,0,0.1-0.1,0,0c0,0,0,0,0,0c0,0,0,0,0,0c0,0,0,0,0,0c0,0,0,0,0,0c0,0-0.1,0-0.1,0c0,0-0.1,0-0.1,0c0,0,0.1,0,0,0
						c-0.1,0-0.1,0-0.1,0c0,0-0.1,0-0.1,0c-0.1,0,0,0,0,0c-0.1,0-0.2,0-0.3,0c0,0,0,0-0.1,0c-0.1,0,0.1,0,0,0c0,0-0.1,0-0.1,0
						c-0.1,0-0.1,0-0.1,0c-0.2,0-0.2,0-0.1,0c-0.2,0-0.4,0.1-0.5,0.4c-0.1,0.2,0,0.4,0.2,0.6c0.2,0.1,0.4,0.1,0.6,0.1
						c0.2,0,0.3,0,0.5,0c0.3,0,0.6-0.1,0.8-0.3c0.1-0.1,0.2-0.3,0.3-0.4c0-0.1,0-0.2,0-0.1c0-0.1,0-0.1,0-0.2c0-0.1,0-0.1,0-0.2
						c0-0.2-0.1-0.3-0.1-0.5c-0.1-0.2-0.1-0.3-0.2-0.5c-0.1-0.3-0.3-0.6-0.5-0.8c-0.2-0.2-0.6-0.4-0.9-0.2c-0.1,0.1-0.2,0.2-0.3,0.4
						c-0.1,0.1-0.2,0.3-0.3,0.4c-0.2,0.3-0.3,0.6-0.4,0.9c-0.3,0.4-0.2,1,0.2,1.3c0.4,0.3,0.9,0.4,1.2,0c0.1-0.1,0.1-0.2,0-0.3
						C96.1,99.8,96,99.8,95.9,99.7L95.9,99.7z"/>
				</g>
			</g>
			<g>
				<g>
					<path d="M95.6,98.5C95.6,98.5,95.5,98.5,95.6,98.5c-0.1,0.2-0.1,0.3-0.1,0.4c0,0.1,0.1,0.1,0.1,0.2c0.1,0.1,0.3,0.2,0.5,0.2
						c0.1,0,0.2,0,0.3,0s0.2,0,0.3,0c0.1,0,0.2-0.1,0.3-0.2C97,99.1,97,99,97,99c0.1-0.1,0.1-0.3,0-0.4c0,0.1,0,0.2,0,0.3
						c0-0.1,0-0.1,0-0.1c0-0.1-0.1-0.2-0.2-0.3c-0.1,0-0.1,0-0.2,0s-0.1,0-0.2,0c0,0,0,0,0,0c0,0,0.1,0,0.1,0c0,0,0,0,0,0
						c0.1,0,0.2,0,0.3,0c-0.1,0-0.1,0-0.2-0.1c-0.1,0-0.2,0-0.3,0.1c0,0,0.1,0,0.1,0c-0.1,0-0.2,0.1-0.3,0.1c0,0,0.1,0,0.1,0
						c-0.1,0-0.1,0-0.2,0c0,0,0.1,0,0.1,0c-0.1,0-0.1,0-0.2,0c-0.1,0-0.1,0-0.2,0c0,0,0.1,0,0.1,0c0,0-0.1,0-0.1,0c0,0,0.1,0,0.1,0
						c-0.1,0-0.1-0.1-0.2-0.1c-0.1,0-0.1,0-0.1,0c0,0,0.1,0,0.1,0C95.7,98.4,95.7,98.4,95.6,98.5L95.6,98.5z"/>
				</g>
			</g>
			<g>
				<g>
					<path d="M119.9,98.4c-1-0.6-2-1.1-3-1.7c-0.9-0.6-1.7-1.3-2.4-2.1c-1.6-1.7-2.6-3.8-3.2-6c-1.2-4.8-0.2-10.2,3.5-13.7
						c1.7-1.6,3.9-2.7,6.2-2.6c2.2,0.1,4.3,1.1,5.8,2.6c1.6,1.5,2.9,3.5,3.4,5.7c0.6,2.4,0.6,5.2,0,7.6c-0.6,2.4-1.7,4.6-3.5,6.3
						c-1.7,1.5-3.8,2.5-6,3.3c-0.5,0.2-1.1,0.4-1.6,0.6c-0.6,0.2-0.4,1.1,0.3,1c2.4-0.4,4.9-1.5,6.9-2.9c2.2-1.5,3.8-3.6,4.7-6.1
						c1-2.6,1.2-5.6,0.8-8.4c-0.3-2.5-1.3-4.8-2.9-6.8c-1.5-1.9-3.7-3.4-6.1-3.9c-2.5-0.6-5.1,0-7.2,1.4c-4.6,3.1-6.6,8.6-5.9,14
						c0.3,2.6,1.2,5.1,2.7,7.3c1.4,2,3.3,3.5,5.5,4.6c0.5,0.3,1.1,0.5,1.7,0.6C120,99.3,120.3,98.7,119.9,98.4L119.9,98.4z"/>
				</g>
			</g>
			<g>
				<g>
					<path d="M138.9,113.8c-0.7-0.5-1.5-0.8-2.2-1.3c-0.7-0.4-1.3-1-1.8-1.6c-1.1-1.3-1.9-2.8-2.4-4.4c-0.9-3.6-0.2-7.5,2.5-10.1
						c1.3-1.2,2.9-2.1,4.7-2c1.6,0.1,3.1,0.9,4.3,1.9c1.2,1.1,2.1,2.6,2.5,4.2c0.4,1.8,0.4,3.9,0,5.7c-0.5,2-1.5,3.8-3.1,5
						c-1.5,1.2-3.4,1.8-5.2,2.5c-0.2,0.1-0.4,0.3-0.4,0.6c0,0.2,0.3,0.5,0.5,0.4c1.9-0.2,3.8-1.1,5.3-2.2c1.6-1.2,2.9-2.7,3.6-4.6
						c0.8-2,0.9-4.3,0.7-6.4c-0.3-2-1-3.7-2.2-5.3c-1.2-1.4-2.8-2.6-4.6-3c-2-0.5-4,0-5.6,1.1c-3.5,2.4-5,6.6-4.5,10.7
						c0.3,2.2,1.1,4.3,2.5,6.1c1.2,1.5,3.1,3,5.1,3.4C139,114.7,139.3,114.1,138.9,113.8L138.9,113.8z"/>
				</g>
			</g>
			<g>
				<g>
					<path d="M96.5,100.4c-0.7-0.5-1.5-0.8-2.2-1.3c-0.7-0.4-1.3-1-1.8-1.6c-1.1-1.3-1.9-2.8-2.4-4.4c-0.9-3.6-0.2-7.5,2.5-10.1
						c1.3-1.2,2.9-2.1,4.7-2c1.6,0.1,3.1,0.9,4.3,1.9c1.2,1.1,2.1,2.6,2.5,4.2c0.4,1.8,0.4,3.9,0,5.7c-0.5,2-1.5,3.8-3.1,5
						c-1.6,1.2-3.4,1.8-5.2,2.5c-0.2,0.1-0.4,0.3-0.4,0.6c0,0.2,0.3,0.5,0.5,0.4c1.9-0.2,3.8-1.1,5.3-2.2c1.6-1.2,2.9-2.7,3.6-4.6
						c0.8-2,0.9-4.3,0.7-6.4c-0.3-2-1-3.7-2.2-5.3c-1.2-1.4-2.8-2.6-4.6-3c-1.9-0.5-4,0-5.6,1.1c-3.5,2.4-5,6.6-4.5,10.7
						c0.3,2.2,1.1,4.3,2.5,6.1c1.2,1.5,3.1,3,5.1,3.4C96.6,101.3,96.9,100.7,96.5,100.4L96.5,100.4z"/>
				</g>
			</g>
			<g>
				<g>
					<path d="M200.3,140.2c0.3-0.6,0.1-1.5,0-2.2c-0.1-0.7-0.3-1.4-0.9-1.8c-0.6-0.5-1.5-0.5-2.1-0.2c-0.8,0.3-1.3,1-1.6,1.7
						c-0.6,1.4-0.6,3.2,0,4.7c0,0.1,0.1,0.3,0.2,0.4c0.6,1.3,2.3,2.1,3.5,1c0.6-0.6,1-1.4,1.1-2.2c0.2-0.9,0.2-1.9-0.3-2.7
						c0-0.1-0.1,0-0.1,0c0,0.7,0.1,1.3,0,2c-0.1,0.6-0.3,1.3-0.6,1.8c-0.3,0.5-0.7,1-1.3,1c-0.6,0-1.2-0.4-1.5-0.9
						c-0.7-1.1-0.5-2.7-0.1-3.9c0.3-0.9,0.9-2.3,2.1-2c1.3,0.3,1.4,2.2,1.6,3.2C200.1,140.2,200.2,140.3,200.3,140.2z"/>
				</g>
			</g>
			<g>
				<g>
					<path d="M165.5,123.4c0.3-0.6,0.1-1.5,0-2.2c-0.1-0.7-0.3-1.4-0.9-1.8c-0.6-0.5-1.5-0.5-2.1-0.2c-0.8,0.3-1.3,1-1.6,1.7
						c-0.4,0.8-0.5,1.7-0.4,2.6c0,0.9,0.2,1.7,0.6,2.4c0.6,1.3,2.3,2.1,3.5,1c0.6-0.6,1-1.4,1.1-2.2c0.2-0.9,0.2-1.9-0.3-2.7
						c0-0.1-0.1,0-0.1,0c0,0.7,0.1,1.3,0,2c-0.1,0.6-0.3,1.3-0.6,1.8c-0.3,0.5-0.7,1-1.3,1c-0.6,0-1.2-0.4-1.5-0.9
						c-0.3-0.5-0.4-1.3-0.4-1.9c0-0.7,0.1-1.3,0.3-2c0.3-0.9,0.9-2.3,2.1-2c1.3,0.3,1.4,2.2,1.6,3.2
						C165.3,123.4,165.4,123.5,165.5,123.4L165.5,123.4z"/>
				</g>
			</g>
			<g>
				<g>
					<path d="M176.2,170.3c0.3-0.6,0.1-1.5,0-2.2c-0.1-0.7-0.3-1.4-0.9-1.8c-0.6-0.5-1.5-0.5-2.1-0.2c-0.8,0.3-1.3,1-1.6,1.7
						c-0.4,0.8-0.5,1.7-0.4,2.6c0,0.9,0.2,1.7,0.6,2.4c0.6,1.3,2.3,2.1,3.5,1c0.6-0.6,1-1.4,1.1-2.2c0.2-0.9,0.2-1.9-0.3-2.7
						c0-0.1-0.1,0-0.1,0c0,0.7,0.1,1.3,0,2c-0.1,0.6-0.3,1.3-0.6,1.8c-0.3,0.5-0.7,1-1.3,1c-0.6,0-1.2-0.4-1.5-0.9
						c-0.3-0.5-0.4-1.3-0.4-1.9c0-0.7,0.1-1.3,0.3-2c0.3-0.9,0.9-2.3,2.1-2c1.3,0.3,1.4,2.2,1.6,3.2
						C176,170.4,176.1,170.4,176.2,170.3L176.2,170.3z"/>
				</g>
			</g>
			<g>
				<g>
					<g>
						<path d="M160,71.7c-0.8,0.1-1.3,0.6-1.7,1.3c-0.5,0.9-0.2,1.9,0.3,2.7c0.6,0.8,1.5,1.3,2.5,1.6c1.1,0.3,2.3,0.5,3.4,0.3
							c1-0.2,1.9-0.5,2.6-1.3c0.6-0.6,0.8-1.5,0.5-2.3c-0.7-1.6-2.7-2.3-4.2-2.6c-1.5-0.3-3.7-0.4-4.6,1.1c0,0.1,0,0.1,0.1,0.1
							c0.9-0.8,2.3-1,3.5-0.9c1.3,0.1,2.8,0.5,3.9,1.3c0.6,0.5,1.3,1.2,1.1,2c-0.2,0.9-1,1.3-1.8,1.4c-0.4,0.1-0.8,0.1-1.2,0
							c-0.5,0-0.9,0-1.4-0.1c-0.8-0.1-1.6-0.3-2.3-0.7c-0.4-0.2-0.7-0.4-1-0.8c-0.3-0.3-0.4-0.7-0.6-1.1c-0.4-0.9,0.3-1.9,1.2-2.1
							C160.2,71.9,160.1,71.7,160,71.7L160,71.7z"/>
					</g>
				</g>
				<g>
					<g>
						<path d="M161,76.9c0.3,0.3,0.8,0.4,1.1,0.5c0.4,0.1,0.9,0.2,1.3,0.2c0.8,0,1.7-0.1,2.5-0.5c0.7-0.3,1.3-0.9,1.5-1.7
							c0.1-0.2,0-0.3,0-0.5c0-0.1,0-0.3,0-0.5c0-0.3-0.1-0.6-0.4-0.7c-0.1,0-0.2,0-0.2,0.1c0,0.3,0.2,0.5,0.1,0.8
							c0,0.2-0.1,0.3-0.2,0.4c-0.1,0.1-0.1,0.3-0.2,0.3c-0.2,0.2-0.5,0.3-0.7,0.4c-0.3,0.1-0.6,0.3-0.9,0.4
							c-0.6,0.2-1.2,0.3-1.9,0.3c-0.3,0-0.7,0-1-0.1c-0.4-0.1-0.7-0.2-1,0C160.9,76.4,160.9,76.7,161,76.9L161,76.9z"/>
					</g>
				</g>
			</g>
			<g>
				<path d="M109.5,49.7c-0.9-2-3.2-2.8-5.2-3.2c-2.3-0.4-6.1-0.1-6.4,2.9c-0.1,0.8,0.2,1.6,0.7,2.2c0.7,1,1.9,1.7,3,2
					c2.3,0.7,5.9,0.7,7.5-1.5C109.6,51.5,109.8,50.6,109.5,49.7z M99.7,50.9c-0.6-0.7-1.1-1.6-0.8-2.5c0.3-0.8,1.2-1.1,1.9-1.3
					c0.7-0.2,1.5-0.2,2.2-0.2c1.6,0.1,3.4,0.6,4.7,1.6c0.5,0.4,1.2,0.9,1.2,1.7c0,0.8-0.8,1.3-1.4,1.7c-0.3,0.2-0.7,0.4-1.1,0.5
					c-1.9,0.6-4.3,0.4-5.9-0.7C100.3,51.5,100,51.2,99.7,50.9z"/>
			</g>
			<g>
				<path d="M115.1,102.4c-0.8-1.5-2.6-2-4.1-2.2c-1.8-0.2-4.7,0.2-4.8,2.6c0,0.6,0.3,1.2,0.6,1.7c0.6,0.7,1.5,1.2,2.4,1.4
					c1.8,0.4,4.6,0.2,5.7-1.6C115.3,103.7,115.4,103,115.1,102.4z M107.6,103.8c-0.5-0.5-0.9-1.2-0.8-1.9c0.2-0.6,0.8-0.9,1.4-1.1
					c0.6-0.1,1.1-0.2,1.7-0.3c1.3,0,2.6,0.3,3.7,1c0.4,0.3,0.9,0.7,1,1.2c0.1,0.6-0.5,1.1-1,1.4c-0.3,0.2-0.5,0.3-0.8,0.4
					c-1.4,0.6-3.3,0.5-4.6-0.2C108.1,104.2,107.8,104,107.6,103.8z"/>
			</g>
			<g>
				<path d="M63.9,129.1c-0.2-1.3-0.7-2.6-1.6-3.3c-1-0.8-2.3-0.8-3.5-0.4c-1.2,0.5-2.1,1.6-2.6,2.8c-1.1,2.3-0.9,5.2,0,7.5
					c0.1,0.2,0.2,0.4,0.3,0.6c1,2.1,3.7,3.4,5.6,1.6C64.4,135.8,64.4,132,63.9,129.1z M63.2,133.3c-0.1,1-0.5,2.1-1,3
					c-0.5,0.8-1.2,1.6-2.2,1.6c-2.1,0.1-2.7-2.5-2.9-4.1c-0.2-1.6,0-3.2,0.7-4.6c0.4-0.8,1-1.5,1.8-1.9c2.4-1.1,3.3,1.7,3.6,3.5
					C63.2,131.6,63.3,132.4,63.2,133.3z"/>
			</g>
			<g>
				<path d="M36,163.1c-0.2-1.3-0.7-2.6-1.6-3.3c-1-0.8-2.3-0.8-3.5-0.4c-1.2,0.5-2.1,1.6-2.6,2.8c-1.1,2.3-0.9,5.2,0,7.5
					c0.1,0.2,0.2,0.4,0.3,0.6c1,2.1,3.7,3.4,5.6,1.6C36.5,169.8,36.5,166,36,163.1z M35.3,167.3c-0.1,1-0.5,2.1-1,3
					c-0.5,0.8-1.2,1.6-2.2,1.6c-2.1,0.1-2.7-2.5-2.9-4.1c-0.2-1.6,0-3.2,0.7-4.6c0.4-0.8,1-1.5,1.8-1.9c2.4-1.1,3.3,1.7,3.6,3.5
					C35.3,165.6,35.4,166.5,35.3,167.3z"/>
			</g>
			<g>
				<path d="M32.5,115.3c-0.2-1.2-0.6-2.3-1.4-3c-0.9-0.7-2.1-0.7-3.1-0.3c-1.1,0.4-1.9,1.4-2.4,2.5c-0.9,2.1-0.8,4.7,0,6.8
					c0.1,0.2,0.2,0.4,0.2,0.6c0.9,1.9,3.3,3.1,5.1,1.4C32.9,121.3,32.9,117.9,32.5,115.3z M31.9,119.1c-0.1,0.9-0.4,1.9-0.9,2.7
					c-0.4,0.7-1,1.4-1.9,1.5c-1.9,0.1-2.4-2.2-2.6-3.7c-0.1-1.4,0-2.8,0.6-4.1c0.3-0.7,0.9-1.4,1.6-1.7c2.2-0.9,3,1.5,3.2,3.2
					C31.9,117.6,32,118.4,31.9,119.1z"/>
			</g>
			<g>
				<g>
					<path d="M150.7,198.6c-1-0.5-2.1-0.8-3.1-1c-1.1-0.2-2.3-0.1-3.5,0.1c-0.5,0.1-1.3,0.2-1.9,0.6c-0.4,0.2-0.8,0.4-1,0.8
						c-0.4,0.7-0.2,1.5,0.2,2.1c0.6,0.8,1.5,1.2,2.5,1.5c1,0.3,2.2,0.5,3.3,0.4c1.6,0,4.9-0.6,5-2.7
						C152.2,199.5,151.4,199,150.7,198.6z M150.5,201.1c-0.7,0.3-1.5,0.4-2.3,0.5c-1.6,0.2-3.3,0.1-4.8-0.3
						c-0.6-0.2-1.7-0.5-1.9-1.3c-0.1-0.4,0-0.7,0.3-1h0c0,0,0,0,0.1,0c0.3-0.3,0.7-0.4,1.1-0.5c0.6-0.2,1.2-0.3,1.8-0.4
						c0.8-0.1,1.6-0.1,2.4,0c1.3,0.1,2.6,0.5,3.7,1.1c0.4,0.2,0.7,0.6,0.7,1C151.3,200.8,150.9,200.9,150.5,201.1z"/>
				</g>
			</g>
			<g>
				<g>
					<path d="M124.5,212.7c-0.8-0.4-1.7-0.7-2.6-0.8c-0.9-0.1-1.9-0.1-2.8,0c-0.4,0.1-1.1,0.2-1.5,0.5c-0.3,0.1-0.6,0.4-0.9,0.7
						c-0.4,0.6-0.2,1.2,0.2,1.7c0.5,0.7,1.3,1,2,1.2c0.9,0.3,1.8,0.4,2.7,0.4c1.4,0,4-0.5,4.1-2.2
						C125.8,213.4,125.1,213,124.5,212.7z M124.4,214.7c-0.6,0.2-1.3,0.3-1.9,0.4c-1.3,0.2-2.7,0.1-4-0.3c-0.5-0.2-1.4-0.4-1.5-1
						c-0.1-0.3,0-0.6,0.2-0.8h0c0,0,0,0,0,0c0.2-0.2,0.6-0.3,0.9-0.4c0.5-0.1,1-0.3,1.4-0.3c0.6-0.1,1.3-0.1,1.9,0
						c1.1,0.1,2.1,0.4,3.1,0.9c0.3,0.2,0.6,0.5,0.5,0.8C125.1,214.5,124.7,214.6,124.4,214.7z"/>
				</g>
			</g>
			<g>
				<g>
					<path d="M88,199.9c-1-0.5-2-0.8-3.1-0.9c-1.1-0.2-2.3-0.1-3.4,0.1c-0.5,0.1-1.3,0.2-1.8,0.6c-0.4,0.2-0.8,0.4-1,0.8
						c-0.4,0.7-0.2,1.4,0.2,2c0.6,0.8,1.5,1.1,2.4,1.4c1,0.3,2.1,0.5,3.2,0.4c1.6,0,4.7-0.6,4.9-2.7C89.5,200.8,88.7,200.3,88,199.9
						z M87.9,202.3c-0.7,0.3-1.5,0.4-2.2,0.5c-1.6,0.2-3.2,0.1-4.7-0.3c-0.6-0.2-1.7-0.5-1.8-1.2c-0.1-0.4,0-0.7,0.3-1h0
						c0,0,0,0,0.1,0c0.3-0.3,0.7-0.4,1-0.5c0.6-0.2,1.1-0.3,1.7-0.4c0.8-0.1,1.5-0.1,2.3,0c1.3,0.1,2.6,0.5,3.6,1.1
						c0.4,0.2,0.7,0.5,0.6,1C88.6,202,88.2,202.2,87.9,202.3z"/>
				</g>
			</g>
			<g>
				<g>
					<path d="M133.8,101.5c-0.3,0.4-0.5,0.8-0.6,1.3c-0.3,1.7-0.1,3.6,0.5,5.2c0.4,1.1,2.3,4.3,3.9,3.1c-0.6-1.1-1.7-2-2.4-3.1
						c-0.7-1.2-1.1-2.5-1.2-3.8c0-0.5,0-0.9,0-1.4C134,102.3,133.9,101.9,133.8,101.5C133.8,101.4,133.8,101.4,133.8,101.5z"/>
				</g>
			</g>
			<g>
				<g>
					<path d="M112.8,81.8c-0.4,1.1-0.5,2.3-0.5,3.5c0.1,3.1,1,6,3,8.5c0.4,0.5,0.9,1.2,1.5,1.3c0.4,0.1,1.1-0.2,1-0.8
						c-0.1-0.7-0.6-1.1-1-1.6c-1.7-2-3-4.7-3.3-7.4c-0.1-1.1-0.2-2.3-0.2-3.4C113.3,81.5,112.9,81.5,112.8,81.8z"/>
				</g>
			</g>
			<g>
				<g>
					<path d="M91.2,87.2c-0.4,0.4-0.5,1.9-0.5,2.1c0,2.3,0.4,6.9,2.9,8.1c0.3,0.2,0.8,0.1,1-0.1c0.4-0.4,0.3-1,0-1.4
						c-1.9-2.4-2.9-4.8-2.8-7.9c0-0.2,0-0.5-0.2-0.7C91.5,87,91.4,87.1,91.2,87.2z"/>
				</g>
			</g>
			<path class="st5" d="M140.6,169.2c0.4,1.2,0.9,2.5,1.3,3.7c-1.3-1.1-2.3-2.6-2.7-4.3c0.3,2.2,1.1,4.4,2.2,6.4
				c-1.8-0.9-3.1-2.6-3.7-4.5c0.3,0.9,0.4,1.8,0.4,2.7c-0.2-0.4-0.4-0.7-0.6-1.1c-0.1,0.9,0.1,1.9,0.5,2.7c-0.2-0.2-0.4-0.5-0.6-0.7
				c0.2,0.8,0,1.7-0.4,2.4c-1.8-2-2.7-4.7-2.6-7.4c-0.1,2.4,0.3,4.8,1.3,7c-0.7-0.5-1.3-1.3-1.5-2.1c0.1,1,0,2-0.3,2.9
				c-0.2-0.4-0.4-0.8-0.6-1.1c0.3,0.8,0.4,1.8,0.2,2.6c-1.1-1.6-1.8-3.4-1.9-5.3c-0.3,2.4,0,4.8,0.9,7c-0.5-0.7-1-1.4-1.5-2.1
				c0,0.6-0.1,1.2-0.4,1.8c-0.6-0.7-1-1.6-1.2-2.5c-0.1,0.8-0.3,1.5-0.7,2.2c-0.8-1-1.3-2.1-1.8-3.3c0.3,1,0.1,2.1-0.4,3
				c-1.8-2.6-3-5.6-3.3-8.7c-1,2.9-0.6,6.1,0.1,9.1c0.2,1.1,0.5,2.2,1.3,3c0.9,0.9,2.2,1.2,3.5,1.3c5.4,0.5,10.9-1.3,14.9-4.9
				c1.1-1,2-2.1,2.3-3.5C145.8,172.1,141.8,171.7,140.6,169.2z"/>
			<path class="st5" d="M114.9,149c-0.5,3.2-1.8,6.2-2.8,9.3c-2,6.6-2.3,14.2,1.4,19.9c1.3,2,3.1,3.7,5.4,4c1.2,0.2,2.4-0.1,3.6-0.2
				c3.6-0.3,7.1,0.9,10.7,1.4c0.5,0.1,1,0.1,1.4,0c0.3-0.1,0.6-0.2,0.9-0.3c1.8-0.7,3.6-1.5,5.5-2.2c-0.1,0.6-0.1,1.2-0.2,1.8
				c0.2-0.3-0.1-0.8-0.4-0.9s-0.7,0-1.1,0.1c-1,0.3-2.2,0.8-2.4,1.9c1.6-0.1,3.3-0.2,4.8,0.2c1.6,0.4,3.1,1.5,3.5,3
				c0.1,0.2,0.1,0.5,0,0.7c-0.2,0.2-0.5,0.2-0.7,0.2c-1.9,0-3.7-0.1-5.6-0.1c-1.5,0-2.9-0.1-4.3-0.3c-2.2-0.4-4.4-1.1-6.6-1.7
				c-4.1-1-8.5-1.1-12-3.5c-1.3-0.9-2.3-2-3.4-3.1c-1.5-1.6-3.1-3.3-3.9-5.4c-0.8-2.1-0.7-4.4-0.7-6.7c0.1-1.7,0.1-3.4,0.6-5.1
				c0.4-1.7,1.2-3.4,1.9-5c0.9-2.1,1.6-4.3,2.2-6.5c0.5-2.1,1-4.3,0.7-6.4c-0.1-0.7-0.3-1.4-0.5-2.1s-1-1.3-1.2-2
				c-0.1-0.4-0.2-0.9,0.5-0.9c0.5,0,1.1,0.9,1.3,1.3C115.1,143.1,115.3,146.2,114.9,149z"/>
			<path class="st5" d="M140.4,128.7c0.5,0.8,0.9,1.7,1,2.6c0.2-0.3,0.3-0.6,0.4-0.9c0.1,0.6,0.3,1.1,0.4,1.7c0-0.3,0.1-0.7,0.3-0.9
				c0.1,0.5,0.2,1,0.3,1.4c0.1-0.2,0.3-0.3,0.4-0.5c0.4,1.1,0.4,2.4,0,3.5c0.2-0.3,0.4-0.5,0.6-0.8c-0.5,2.2-0.3,4.5,0.5,6.6
				c0.5,1.2,1.2,2.4,1.1,3.8c-0.1,1.6-1.4,2.9-2.7,3.9c0-0.6,0-1.1,0-1.6c-1.4,3-4.3,4.9-7,6.8c-1.5,1-2.9,2.1-4.2,3.3
				c-2.5,2.1-4.8,4.5-6.3,7.4c-1.1,2.2-2.2,4.4-2.6,6.9c0-2.6,0.2-5.2,1-7.7c1.8-5,6.1-8.5,10.6-11.4c1.1-0.7,2.2-1.4,3.2-2.3
				c0.8-0.7,1.4-1.6,2.1-2.4c0.8-1,1.6-2.1,2.4-3.1c0.2-0.2,0.3-0.5,0.4-0.7c0-0.3-0.2-0.5-0.3-0.8c-0.3-0.7-0.3-1.6-0.2-2.4
				c0.1-1.1,0.2-2.3,0.4-3.4c-0.6-0.8-1-1.8-1.2-2.8c-0.1-0.3-0.1-0.7,0-1c0-0.1,0.1-0.3,0.2-0.4c0.2-0.6-0.3-1.3-0.6-1.9
				C139.9,130.7,140.1,129.7,140.4,128.7z"/>
			<path class="st5" d="M153.8,147.4c-0.2,0.3-0.5,0.7-0.8,0.9c-0.4,0.2-0.9,0.1-1.1-0.2c-0.3,0.4-0.7,0.8-1.3,0.8
				c-0.2,0-0.4,0-0.6-0.1c-0.7-0.2-1.5-0.4-1.8-1.1c0-0.1-0.1-0.1-0.1-0.1s-0.1,0-0.1,0.1c-0.5,0.2-1-0.1-1.4-0.5s-0.6-0.9-0.8-1.4
				c-0.5,0.4-1.1,0.8-1.6,0.5c0.3,0.5,0.6,1,1,1.4c0.4,0.6,0.8,1.2,1.3,1.7c0.7,0.6,1.5,1.1,2.4,1.3c1.2,0.4,2.5,0.4,3.6-0.2
				S154.2,148.5,153.8,147.4z"/>
			<path class="st5" d="M157.9,130.5c0.1,0.4,0.2,0.9,0.3,1.4c0.2,1,0.4,2.2,0,3.1c0,0.1-0.1,0.2-0.3,0.2c0,0-0.1,0-0.1-0.1
				c-0.7-0.5-1.6-1.5-1.6-2.4c0-0.5,0.3-1,0.6-1.4C156.8,131.3,157.9,130.4,157.9,130.5z"/>
			<path class="st5" d="M144.9,169.6c0.4,0.7,0.8,1.4,1.1,2.1c2.1,4.4,2.1,9.4,2,14.3c-0.2-1.6-0.4-3.2-0.6-4.8
				c-0.1-1.1-0.3-2.3-0.5-3.4c-0.1-0.7-0.3-1.4-0.6-2c-0.4-0.8-0.9-1.5-1.4-2.2c-0.7-1-1.4-2-1.9-3.1c-1.7-3.4-2.6-8.2-1.1-11.9
				c0.3,0.7,0,1.9,0,2.7c0.1,0.9,0.3,1.9,0.6,2.8C143,166.1,143.9,167.8,144.9,169.6z"/>
			<path class="st5" d="M140.6,183.1c0,0.2,0,0.4,0.1,0.6c0.1,0.2,0.3,0.4,0.5,0.5c1,0.8,2.4,0.9,3.6,1.4c1.3,0.6,2.3,1.6,2.9,2.9
				c0.1,0.3,0.2,0.8-0.1,1c-0.1,0.1-0.3,0-0.4,0c-0.7-0.1-1.6-0.2-1.9-0.8c-0.2-0.3-0.2-0.6-0.3-0.9c-0.5-1.6-1.8-2.7-3.3-3.4
				s-3.1-0.8-4.7-1c0.2,0,1.1-0.9,1.4-1c0.5-0.3,1-0.6,1.5-0.9c0.3-0.1,1.2-0.7,1.4-0.4C141.1,181.4,140.6,182.8,140.6,183.1z"/>
			<path class="st5" d="M154.3,169c0.1,1,0.1,2,0.1,3.1c0,3.1,0,6.1,0.1,9.2c0,1.5,0,3.1,0.4,4.5c0.3,1.3,0.9,2.6,0.8,3.9
				c-0.4-0.1-0.7-0.2-1.1-0.3c0.4-0.8,0.1-1.8-0.4-2.5c-0.3-0.4-0.7-0.7-0.9-1.2c-0.2-0.4-0.1-0.9-0.1-1.4
				c0.4-5.4,0.1-10.8-1.1-16.1c-0.2-0.8-0.4-1.7-0.4-2.6c0-0.9,0.2-1.8,0.4-2.7c0.2-1.1,0.2-2.1,0.2-3.2
				C152.7,162.9,153.9,165.8,154.3,169z"/>
			<g>
				<g>
					<path d="M148.3,140c0-0.1-0.1-0.3-0.2-0.4c-0.3-0.5-0.7-0.9-1.3-1.1c-0.3-0.1-0.6-0.2-0.9-0.1c-0.3,0-0.6,0.1-0.8,0.3
						c-0.1,0.1-0.2,0.1-0.3,0.2c-0.1,0.1-0.2,0.2-0.3,0.3c-0.1,0.1-0.1,0.2-0.1,0.4c0,0,0,0,0,0c0,0.2,0.1,0.5,0.2,0.7
						c0.1,0.3,0.4,0.5,0.6,0.6c0.5,0.4,1.2,0.5,1.8,0.4c0.2,0,0.3-0.1,0.5,0c0.1,0,0.2,0.1,0.4,0.1c0.1,0,0.1,0,0.1-0.1c0,0,0,0,0,0
						c0.2-0.2,0.3-0.4,0.3-0.7c0-0.1,0-0.1,0-0.1C148.3,140.2,148.3,140.1,148.3,140z M147,140.7c-0.3,0-0.6,0-0.9-0.1
						c-0.3-0.1-0.6-0.3-0.9-0.5c-0.1-0.1-0.2-0.3-0.3-0.4c-0.1-0.1-0.1-0.3-0.1-0.4c0-0.1,0.1-0.1,0.2-0.2c0.1-0.1,0.4-0.1,0.5-0.1
						c0.2,0,0.3,0,0.5,0c0,0,0.1,0,0.1,0c0,0-0.1,0-0.1,0.1c0,0.1-0.1,0.1-0.1,0.2c-0.1,0.3-0.2,0.6,0,0.9c0.1,0.3,0.4,0.5,0.7,0.4
						c0.2,0,0.4-0.1,0.5-0.2c0.1-0.1,0.2-0.3,0.2-0.4c0-0.1,0-0.2,0-0.3c0.1,0.1,0.1,0.2,0.2,0.3c0,0.1,0,0.1,0.1,0.2
						c0,0.1,0.1,0.1,0.1,0.1c0,0.1,0,0.2,0.1,0.3C147.4,140.6,147.2,140.7,147,140.7z"/>
				</g>
				<g>
					<path d="M152.4,141.3c0.1,0,0.2,0,0.2-0.1c0,0,0,0,0,0c0,0,0,0,0,0c0.2,0.1,0.4,0.1,0.6,0.1c0.4,0,0.9-0.1,1.3-0.3
						c0.4-0.2,0.6-0.5,0.9-0.8c0.1-0.2,0.2-0.4,0.3-0.5c0.1-0.2,0.1-0.4,0-0.6c0,0-0.1,0-0.1,0c-0.1-0.1-0.1-0.1-0.2-0.2
						c-0.2-0.1-0.5-0.2-0.7-0.2c-0.5-0.1-1,0-1.5,0.3c-0.9,0.4-1.5,1.5-1.2,2.5c0,0,0,0.1,0.1,0.1c0,0,0,0,0,0h0c0,0,0,0,0-0.1
						c0,0,0,0,0,0c0,0,0,0,0,0c0,0,0,0,0,0s0,0,0,0c0,0,0,0,0.1,0c0,0,0,0,0,0C152.2,141.3,152.3,141.3,152.4,141.3
						C152.3,141.3,152.3,141.3,152.4,141.3C152.3,141.3,152.3,141.3,152.4,141.3z M153.9,139.3C153.9,139.4,153.9,139.4,153.9,139.3
						C153.9,139.4,153.9,139.4,153.9,139.3L153.9,139.3C153.9,139.4,153.9,139.4,153.9,139.3z M153.1,139.6c0,0.1,0,0.1,0,0.2
						c0,0.2,0,0.4,0.1,0.5c0.1,0.2,0.3,0.3,0.4,0.4c0.1,0,0.2,0.1,0.3,0.1c0.1,0,0.2,0,0.3-0.1c0.2-0.1,0.3-0.3,0.3-0.5
						c0-0.1,0-0.2,0-0.3c0-0.1,0-0.2-0.1-0.3c0-0.1-0.1-0.2-0.2-0.3c0.1,0,0.2,0,0.3,0c0.2,0,0.4,0.1,0.5,0.2c0,0,0.1,0,0.2,0.1
						c0,0.2-0.1,0.3-0.2,0.4c-0.2,0.3-0.4,0.5-0.7,0.7c-0.3,0.2-0.7,0.3-1,0.3c-0.2,0-0.3,0-0.5,0c0,0,0,0,0-0.1
						c0,0-0.1-0.1-0.1-0.1c0,0,0,0,0,0c-0.1,0-0.1-0.1-0.2-0.1c0,0,0,0,0,0l0,0l0,0c0,0,0,0,0,0c0,0,0,0,0,0l0,0c0,0,0,0,0-0.1
						s0,0,0-0.1c0,0,0-0.1,0-0.1C152.6,140.1,152.8,139.8,153.1,139.6z"/>
				</g>
				<g>
					<path d="M153.6,140.7C153.6,140.7,153.6,140.7,153.6,140.7C153.6,140.7,153.6,140.7,153.6,140.7
						C153.6,140.7,153.6,140.7,153.6,140.7z"/>
				</g>
				<g>
					<polygon points="149.1,187.2 149.1,187.2 149.1,187.2 149.1,187.2 					"/>
				</g>
				<g>
					<path d="M149,187.1C149.1,187.2,149.1,187.2,149,187.1c0.1,0,0.1,0,0.2,0C149.2,187.2,149.1,187.2,149,187.1z"/>
				</g>
				<g>
					<path d="M160.1,186.9c-0.3-0.4-0.7-0.8-1.1-1.1c-0.4-0.3-0.7-0.5-1-0.9c-0.3-0.4-0.4-0.9-0.5-1.5c0-0.1,0-0.1,0-0.2
						c0-0.4,0.1-0.8,0.1-1.2c0-1.1,0-2.2,0-3.4c0-2.2,0-4.5,0-6.7c0-2.2-0.1-4.4,0-6.5c0-1.1,0.4-2.1,0.7-3.1c0.3-1,0.6-2,0.8-3.1
						c0.3-1.2,0.5-2.4,0.5-3.6c0-0.3,0-0.5,0-0.8c0.1-0.6,0-1.2,0-1.8c-0.1-1.2-0.4-2.4-0.9-3.6c-0.2-0.5-0.4-0.9-0.6-1.4
						c0.1,0,0.1,0,0.2,0c0.1,0,0.1-0.2,0-0.2c-0.1,0-0.2,0-0.3,0c-0.2-0.4-0.4-0.8-0.6-1.3c0.5,0,1-0.1,1.5-0.3c0.1,0,0-0.2-0.1-0.1
						c-0.5,0.1-1.1,0.1-1.6,0.1c0-0.1,0-0.1-0.1-0.1c0-0.1-0.1-0.2-0.1-0.2c0-0.1,0.1-0.1,0.1-0.2c0.1-0.1,0.1-0.3,0.2-0.4
						c0.1-0.2,0.2-0.4,0.3-0.6c0.6-0.5,1.1-1.1,1.4-1.8c0.4-0.9,0.7-1.9,0.7-2.8c0-1-0.4-2-0.6-3c-0.1-0.4-0.3-0.8-0.4-1.2
						c0.1-0.4,0.3-0.7,0.4-1.1c0.2-0.7,0.4-1.4,0.6-2c0.4-1.1,0.8-2.5,0.4-3.6c-0.2-0.5-0.5-1.2-1-1.4c-0.7-0.3-1.3,0-1.8,0.4
						c-1,0.8-1.8,1.8-2.4,2.9c0,0-0.1,0-0.1,0.1c0,0-0.1,0-0.1,0c-0.1,0-0.2,0-0.2,0.1c0,0-0.1,0-0.1,0.1c-0.2,0.1-0.5,0.3-0.7,0.4
						c-0.2,0.1-0.4,0.2-0.6,0.3c-0.9-0.4-1.8-0.7-2.8-0.8c-1-0.1-2.3,0.1-3.1,0.7c-0.1-0.1-0.3-0.1-0.5-0.2
						c-0.3-0.2-0.6-0.4-0.9-0.6c-0.3-0.2-0.5-0.5-0.8-0.7c0,0-0.1-0.1-0.1-0.1c-0.8-1-1.8-1.7-2.9-2.2c-0.6-0.3-1.2-0.6-1.8-0.2
						c-0.5,0.3-0.8,1-0.7,1.6c0,0.7,0.3,1.4,0.7,2c0.3,0.4,0.6,0.9,0.7,1.5c0,0.1,0,0.2-0.1,0.3c-0.1,0.3-0.2,0.6-0.2,0.9
						c0,0.6,0,1.2,0.3,1.8c0.2,0.5,0.5,0.9,0.8,1.3c0.2,0.4,0.1,0.9,0.1,1.3c-0.2,0.4-0.4,0.9-0.5,1.4c-0.1,0.7-0.2,1.5-0.1,2.2
						c0.1,0.5,0.2,0.9,0.4,1.3c-0.2,0.4-0.3,0.8-0.5,1.2c-0.3,0.6-0.6,1.2-1,1.8c-0.8,1.2-1.9,2.2-3,3.1c-2.3,1.9-5,3.4-7.4,5.2
						c-1.2,0.9-2.4,2-3.4,3.2c-1,1.3-1.8,2.8-2.5,4.3c-1.3,3-2.1,6.2-2.3,9.5c-0.1,1.8,0.1,3.7,0.4,5.5c0.1,0.9,0.4,1.7,0.7,2.6
						c0.1,0.3,0.3,0.6,0.4,0.8c-0.6-0.1-1.3-0.1-1.9-0.3c-0.8-0.2-1.6-0.6-2.3-1c-1.5-0.9-2.8-2.3-3.6-3.9
						c-2.1-3.8-1.9-8.4-1.3-12.6c0.4-2.3,0.9-4.6,1.6-6.9c0.7-2.2,1.6-4.3,2.2-6.5c0.6-2.3,0.7-4.6,0.2-6.8
						c-0.4-1.9-1.2-3.8-2.6-5.1c-1.4-1.3-4.5-2.4-5.6-0.1c-0.5,1.1,0,2.1,1,2.7c0.4,0.2,0.8,0.5,1.1,0.8c0.3,0.5,0.5,1,0.7,1.5
						c0.6,1.7,0.6,3.5,0.3,5.3c-0.4,2.1-1.1,4.1-1.8,6.1c-0.7,2-1.5,4-2.1,6.1c-1.1,3.9-1.6,8-0.8,12.1c0.7,3.6,2.5,7.2,5.4,9.6
						c1.5,1.4,3.3,2.4,5.3,3c0.2,0.1,0.3,0.1,0.5,0.2c0,0,0.1,0,0.1,0c0.7,0.2,1.5,0.3,2.2,0.4c0,0,0.1,0,0.1,0
						c0.5,0.1,1,0.2,1.5,0.2c1.8,0.3,3.5,0.6,5.3,1c3.5,0.8,6.9,1.8,10.4,1.9c0.9,0,1.9,0,2.8-0.1c0.7,0,1.6,0,2.3,0.2
						c0,0,0,0,0,0.1c-0.1,0.2,0,0.3,0.2,0.3c0.7,0,1.1-0.1,1.3-0.8c0.2-0.5,0.2-0.9,0.1-1.4c0.3,0.1,0.5,0.3,0.7,0.5
						c0.5,0.5,0.5,1,0.7,1.6c0,0.1,0.2,0.2,0.3,0.2c0.5-0.1,0.7-0.7,0.7-1.2c0.1,0.1,0.1,0.1,0.2,0.2c0.1,0,0.1,0,0.2,0
						c0,0,0.1,0,0.1,0.1c0,0.1,0,0.1,0,0.2c0,0.2,0.1,0.4,0.3,0.5c0.1,0.1,0.2,0.1,0.3,0.2c0.1,0.1,0.1,0.1,0.2,0.2
						c0.1,0.1,0.3,0.2,0.5,0.3c0.1,0,0.3,0.1,0.4,0.1c0.1,0,0.2,0,0.3,0c0,0,0,0,0,0c0,0,0,0,0.1,0.1c0.1,0.1,0.3,0.2,0.5,0.2
						c0.1,0,0.2,0.1,0.3,0.1c0.1,0.1,0.3,0.1,0.4,0.2c0.2,0.1,0.5,0.1,0.8,0c0.2,0,0.4-0.1,0.5-0.3c0.1,0.1,0.3,0.2,0.5,0.2
						c0.6,0.1,1.1-0.2,1.5-0.7c0.4-0.5,0.4-1.1,0.4-1.7c-0.1-0.6-0.3-1.1-0.6-1.6c-0.3-0.3-0.6-0.6-0.9-0.9c0.1-0.2,0.1-0.4,0.2-0.6
						c0-0.4,0-0.8,0-1.2c0-0.7,0-1.5,0-2.2c0.1-1.5,0.1-3,0-4.5c-0.1-3-0.6-6-1.1-8.9c-0.1-0.8-0.2-1.6-0.4-2.4
						c0-0.3-0.1-0.6-0.2-0.9c0.2-1.1,0.3-2.1,0.3-3.2c0-2-0.5-4-1.5-5.7c0-0.1-0.1,0-0.1,0.1c0.5,1.8,0.7,3.6,0.5,5.4
						c-0.3,1.9-0.8,3.6-0.9,5.5c-0.1,4,0.3,7.9,0.5,11.9c0,1.1,0.1,2.2,0.1,3.3c0,1,0.1,2.2,0.5,3.2c0,0.1,0.1,0.1,0.2,0.1
						c0.2,0.3,0.4,0.7,0.7,1c0.3,0.4,0.8,0.6,1.1,1c0.2,0.3,0.4,0.7,0.4,1.1c0,0.2,0,0.9-0.3,0.9c0.1,0,0-0.1,0-0.2
						c0-0.2,0-0.5-0.2-0.7c-0.3-0.4-0.6-0.5-1.1-0.6c-0.1,0-0.2,0.1-0.2,0.2c0,0.1,0,0.3,0.1,0.5c0,0.1,0,0.3,0,0.4c0,0,0,0-0.1,0
						c0,0-0.1,0.1-0.1,0.2h0c0,0,0,0,0,0c0,0,0,0,0,0c0,0,0,0,0,0c-0.1,0-0.2-0.1-0.3-0.2c0,0,0,0,0,0c0-0.2-0.1-0.4-0.2-0.5
						c0,0,0,0.1,0.1,0.1c0-0.1-0.1-0.2-0.2-0.3c0,0-0.1-0.1-0.1-0.1c0,0-0.1-0.1-0.1-0.1c0,0,0-0.1-0.1-0.1
						c-0.1-0.1-0.2-0.2-0.3-0.1c-0.1,0-0.2,0.1-0.2,0.3c0,0,0,0.1,0,0.1c0,0,0,0.1,0,0.1c0,0,0,0,0,0.1c0,0.1-0.1,0.1-0.1,0.2
						c0,0,0,0,0,0.1c0,0,0,0,0,0c0,0-0.1,0-0.1,0c0,0,0,0-0.1,0c0,0,0,0,0,0c0,0,0,0,0,0l0,0c-0.1-0.1-0.1-0.2-0.2-0.2
						c0,0-0.1,0-0.1-0.1c0,0,0,0,0,0c0-0.1,0-0.3-0.1-0.4c0,0-0.1-0.1-0.1-0.1c-0.1-0.2-0.2-0.3-0.4-0.3c-0.1,0-0.1,0-0.2,0
						c0,0,0,0,0.1,0c0,0-0.1,0-0.1,0c0,0,0,0-0.1,0c0,0,0,0,0,0c0,0-0.1,0-0.1-0.1c0,0,0,0,0,0c0,0,0,0,0,0l0,0c0,0,0,0,0,0
						c0,0,0-0.1,0-0.1c0,0,0,0.1,0,0.1l0,0c0-0.1,0-0.1,0-0.2c0-0.1-0.1-0.2-0.2-0.3c-0.1-0.1-0.1-0.1-0.3-0.1
						c-0.1-0.4-0.1-0.9-0.1-1.3c0-1.1-0.1-2.2-0.2-3.3c-0.2-2.2-0.5-4.5-1.3-6.5c-0.4-1-0.9-1.9-1.5-2.8c-0.6-0.8-1.2-1.6-1.8-2.5
						c-1-1.7-1.6-3.5-1.9-5.5c-0.1-1-0.2-2.1-0.2-3.2c0-1.1,0.3-2.2,0.4-3.4c0-0.1-0.1-0.1-0.1-0.1c-0.5,0.8-0.8,1.8-1,2.7
						s-0.4,1.9-0.3,2.9c0,2,0.5,4,1.3,5.8c0.6,1.3,1.5,2.4,2.3,3.6c0,0,0,0,0,0c-0.4,0.5-0.6,1.2-1,1.8s-0.7,1.2-1,1.7
						c-0.4,0.6-0.8,1.1-1.2,1.6c-0.5,0.5-1,1-1.5,1.4c-0.1,0.1,0,0.3,0.2,0.2c1.2-0.7,2.3-1.7,3.1-2.8c0.4-0.6,0.8-1.2,1.1-1.8
						c0.3-0.6,0.5-1.2,0.5-1.9c0.1,0.2,0.2,0.4,0.4,0.6c0,0,0,0,0,0c0,0.1,0,0.2,0.1,0.3c0,0.1,0,0.1-0.1,0.2c0,0.1-0.1,0.3-0.1,0.4
						c-0.1,0.3-0.2,0.6-0.3,0.9c-0.2,0.6-0.5,1.1-0.8,1.6c-0.7,1-1.6,1.9-2.5,2.7c-1.1,0.9-2.4,1.5-3.7,2c-0.7,0.3-1.3,0.5-2,0.8
						c-0.3,0.1-0.7,0.3-1,0.5c-0.1,0-0.2,0.1-0.3,0.1c-0.4,0-0.9,0-1.3,0.1c-0.3,0.1-0.4,0.6-0.1,0.7c0,0,0,0,0.1,0
						c1.3,0.5,2.7,0.5,4.1,0.7c1.4,0.2,2.8,0.3,4.2,0.4c0.3,0,0.5,0.1,0.8,0.1c0,0,0,0,0,0c0.3,0.1,0.7,0.3,1,0.4
						c0.3,0.2,0.5,0.4,0.7,0.8c0.1,0.2,0.2,0.4,0.3,0.7c-1.1-0.3-2.4-0.1-3.6,0c-1.8,0.1-3.6-0.2-5.3-0.5c-3.6-0.7-7.1-1.7-10.7-2.2
						c-0.2,0-0.4-0.1-0.6-0.1c-0.1,0-0.1-0.1-0.3-0.1c-0.2,0-0.4,0-0.6,0c-0.4,0-0.7-0.1-1.1-0.1c-0.7-0.1-1.5-0.3-2.2-0.5
						c-1.6-0.5-3.2-1.4-4.5-2.5c-2.8-2.3-4.6-5.6-5.4-9.2c-0.8-4-0.2-8,0.9-11.8c0.6-2,1.3-4,2.1-6c0.7-2,1.5-4,1.8-6.1
						c0.3-2,0.2-4-0.5-5.9c-0.4-0.9-0.8-1.7-1.5-2.4c-0.3-0.3-0.6-0.6-1-0.8c-0.2-0.1-0.3-0.2-0.5-0.2c0-0.1,0-0.2,0-0.3
						c0.3-0.8,1.4-0.6,2-0.4c0.8,0.3,1.4,0.8,1.9,1.5c1.2,1.5,1.7,3.6,1.8,5.6c0.1,2.2-0.4,4.3-1.1,6.4c-0.7,2.1-1.5,4.2-2.1,6.4
						c-0.5,2.2-1,4.4-1.2,6.6c-0.5,4.1-0.4,8.6,1.8,12.3c1,1.7,2.5,3.2,4.1,4.2c1.6,1,3.8,1.7,5.7,1.2c0.1,0.1,0.1,0.1,0.2,0.2
						c0.2,0.3,0.6-0.1,0.5-0.4c-0.1-0.2-0.2-0.4-0.3-0.6c0,0,0,0,0,0c-0.2-0.5-0.4-1.1-0.5-1.6c-0.2-0.8-0.4-1.5-0.5-2.3
						c-0.2-1.6-0.2-3.2-0.2-4.7c0.1-3.1,0.8-6.3,2.1-9.2c0.6-1.5,1.4-2.9,2.4-4.2c0.9-1.1,2-2.1,3.1-3c2.4-1.8,5.1-3.3,7.4-5.2
						c1.2-1.1,2.3-2.2,3.2-3.6c0.4-0.7,0.8-1.4,1-2.1c0-0.1,0.1-0.3,0.1-0.4c0,0.1,0.1,0.1,0.1,0.2c0.1,0.3,0.2,0.6,0.2,0.9
						c0.1,0.4,0.1,0.8,0.1,1.2c-0.4,0.1-0.8,0.1-1.3,0.2c-0.1,0-0.1,0.2,0,0.2c0.4,0.1,0.8,0.2,1.2,0.1c0,0.1,0,0.2,0,0.4
						c0,0.2-0.1,0.4-0.1,0.6c0,0.1,0.2,0.2,0.3,0.1c0.1-0.2,0.2-0.4,0.3-0.6c0.1-0.2,0.1-0.4,0.2-0.6c0.4-0.1,0.9-0.4,1.2-0.6
						c0.5-0.3,1-0.7,1.5-1c0,0.2,0,0.3,0.1,0.5c-0.3,0.2-0.5,0.5-0.8,0.7c-0.4,0.4-0.7,0.8-1.1,1.1c-0.4,0.3-0.8,0.6-1.3,0.9
						c-0.1,0.1,0,0.2,0.1,0.2c1-0.3,1.7-0.9,2.4-1.6c0.3-0.3,0.5-0.6,0.8-0.9c0.1,0.2,0.2,0.4,0.3,0.5c0,0,0.1,0.1,0.1,0.1
						c-0.1,0.2-0.2,0.4-0.3,0.6c-0.4,0.7-1,1.4-1.7,1.8c-0.1,0.1,0,0.3,0.1,0.2c0.4-0.2,0.7-0.4,1-0.7c0.3-0.3,0.6-0.6,0.8-0.9
						c0.1-0.2,0.3-0.5,0.4-0.7c0.1,0,0.2,0.1,0.2,0.1c0.3,0.1,0.5,0.1,0.8,0.1c0.1,0,0.2,0,0.3-0.1c0,0-0.1,0.1,0,0.1
						c0.1,0.1,0.3,0.3,0.4,0.4c0.1,0.1,0.3,0.2,0.5,0.3c0.1,0.1,0.2,0.1,0.2,0.1c0.1,0.1,0.2,0.1,0.3,0.2c0.2,0.1,0.4,0.2,0.6,0.2
						c0.2,0,0.3,0,0.5,0c0.3,0,0.4-0.1,0.6-0.3c0.1-0.1,0.3-0.2,0.4-0.3c0.1-0.1,0.3-0.2,0.3-0.4c0-0.1,0-0.1-0.1-0.1
						c-0.1,0-0.3,0.1-0.4,0.1c-0.1,0.1-0.2,0.1-0.4,0.1c-0.3,0-0.6,0.1-0.9,0.1c-0.1,0-0.3,0-0.5,0c-0.1,0-0.1,0-0.2,0
						c-0.1,0-0.1-0.1-0.2-0.1c-0.1-0.1-0.3-0.1-0.5-0.2c-0.2-0.1-0.3-0.1-0.5-0.2c0,0,0,0,0,0c0.2,0,0.4-0.1,0.6-0.1
						c0.3-0.1,0.5-0.2,0.8-0.4c0.1-0.1,0.3-0.3,0.5-0.3c0.1,0,0.3,0.1,0.4,0.1c0.3,0.1,0.5,0.2,0.7,0.4c0.5,0.3,0.9,0.7,1.5,0.8
						c0.4,0.1,1,0,1.4-0.3c0.2,0.3,0.4,0.6,0.6,0.9c0.3,0.4,0.5,0.9,0.9,1.2c0.3,0.3,0.8,0.5,1.3,0.5c0.1,0,0.1-0.1,0-0.2
						c-0.1-0.1-0.2-0.1-0.4-0.1c-0.1-0.1-0.2-0.1-0.3-0.2c-0.2-0.1-0.4-0.3-0.5-0.5c-0.4-0.4-0.6-0.9-0.9-1.4
						c-0.1-0.2-0.2-0.4-0.4-0.6c0,0,0.1-0.1,0.1-0.1c0.1-0.2,0.1-0.4,0.2-0.7c0.4,0.3,0.7,0.7,1,0.9c0.4,0.3,0.8,0.5,1.3,0.6
						c0,0,0.1,0,0.2,0c0.1,0.3,0.2,0.6,0.3,0.9c0.4,1.2,0.8,2.4,1,3.6c0.1,0.9,0.1,1.9,0.2,2.8c0,0.1,0,0.1,0,0.2
						c-0.2,1-0.4,2.1-0.6,3.1c-0.2,1.1-0.5,2.1-0.8,3.1c-0.3,1-0.6,2-0.7,3.1c-0.1,1,0,2.1,0,3.1c0,1.1,0,2.2,0,3.4
						c0,2.2,0,4.4,0,6.6c0,1.2,0,2.4,0,3.6c0,0.3,0,0.5,0,0.8c-0.1,0.5-0.1,1,0,1.4c0,0.2-0.1,0.5-0.1,0.7c0,0.3-0.1,0.6-0.1,0.9
						c0,0.2,0,0.3,0.1,0.5c0,0.1,0,0.2,0.1,0.3c0,0.1,0,0.2,0,0.3c0.1,0.1,0.2,0.2,0.3,0c0.1-0.1,0.1-0.2,0.1-0.3
						c0.1-0.1,0.1-0.2,0.2-0.3c0-0.1,0.1-0.1,0.1-0.2c0.3,0.3,0.6,0.6,0.9,0.9c0.6,0.6,1.3,1.2,1.6,2c0.1,0.3,0.1,0.7,0,1.1
						c-0.1,0.2-0.2,0.4-0.3,0.5s-0.1,0.4-0.3,0.5c-0.2,0.1-0.1,0.4,0.1,0.4c0.4,0,0.9-0.1,1.2-0.4c0.3-0.3,0.5-0.8,0.6-1.2
						C161.1,188.8,160.8,187.8,160.1,186.9z M152.2,183.2c0-0.4,0-0.8,0-1.2c0-1,0-1.9,0-2.9c0-2,0-4,0-6c0-0.7,0-1.5-0.1-2.2
						c0,0.3,0.1,0.7,0.1,1c0.4,3,0.6,6,0.5,9c0,0.8-0.1,1.7-0.1,2.5c0,0.3,0,0.6,0,0.9c-0.1-0.1-0.2-0.3-0.2-0.4
						C152.3,183.6,152.3,183.4,152.2,183.2z M152,189C152.1,189,152.1,189,152,189L152,189C152.1,189,152.1,189,152,189z
						 M150.2,188.4L150.2,188.4C150.2,188.5,150.2,188.5,150.2,188.4C150.2,188.5,150.2,188.5,150.2,188.4z M148.9,187.1
						C148.9,187.1,148.9,187.1,148.9,187.1L148.9,187.1C148.9,187.1,148.9,187.1,148.9,187.1z M148.9,187.1L148.9,187.1L148.9,187.1
						L148.9,187.1L148.9,187.1z M148.9,187.1L148.9,187.1L148.9,187.1L148.9,187.1L148.9,187.1z M148.9,187L148.9,187L148.9,187
						L148.9,187L148.9,187z M145.7,175.9c0.6,1.6,0.9,3.5,1.1,5.2c0.2,1.3,0.3,2.6,0.3,4c0,0.5,0.1,1,0.2,1.6
						c-0.2-0.3-0.5-0.5-0.8-0.7c-0.7-0.4-1.4-0.7-2.1-1c-0.5-0.5-1.1-0.9-1.9-1.1c-0.3-0.1-0.7-0.1-1-0.2c-0.2-0.4,0.2-0.9,0.4-1.2
						c0.4-0.6,0.9-1.1,1.3-1.7c0.4-0.5,0.9-1.1,1.1-1.8c0,0,0-0.1,0-0.1C144.9,178,145.4,177,145.7,175.9z M140.1,183.5
						c-0.7-0.1-1.5-0.1-2.2-0.2c0.9-0.3,1.7-0.7,2.5-1.1C140.2,182.6,140.1,183.1,140.1,183.5z M154.5,132.6c0,0.3,0,0.5,0,0.8
						c0,0.1,0,0.3,0.1,0.4c-0.2-0.3-0.4-0.6-0.6-0.9c0,0,0,0,0.1,0C154.2,132.8,154.3,132.7,154.5,132.6z M146,132.7
						c0.1,0,0.1,0.1,0.2,0.1c-0.2,0.2-0.5,0.5-0.6,0.8c0.1-0.4,0.1-0.7,0-1.1C145.8,132.5,145.9,132.6,146,132.7z M141.4,134.8
						c-0.2-0.5-0.1-1-0.2-1.5c0.3-0.7,0-1.5-0.3-2.2c-0.2-0.4-0.4-0.8-0.5-1.3c0-0.2,0-0.9,0.3-0.9c0.2,0,0.4,0.2,0.5,0.3
						c0.2,0.1,0.4,0.3,0.6,0.4c0.4,0.3,0.7,0.6,1.1,0.8c0.7,0.6,1.2,1.3,1.4,2.1c0,0.1,0,0.3,0,0.4c0,0-0.1-0.1-0.1-0.1
						c0-0.1-0.1-0.2-0.1-0.2c-0.1-0.1-0.1-0.2-0.2-0.3c-0.1-0.1-0.2-0.1-0.3,0c0,0.1,0,0.2,0,0.3c0,0.1,0,0.2-0.1,0.2
						c0,0.1-0.1,0.1-0.1,0.2c-0.1,0.1-0.1,0.3-0.2,0.4c0,0.1,0,0.2-0.1,0.3c0,0,0,0.1,0,0.1c0,0,0,0,0,0.1c0,0,0,0.1,0,0.1
						c0,0,0,0.1-0.1,0.1c0,0,0,0,0,0.1c0,0,0,0.1,0,0.1c-0.1,0.2-0.2,0.2-0.4,0.3c-0.2,0.3-0.4,0.6-0.4,0.9c0,0.3,0.1,0.6,0,0.9
						c-0.1-0.1-0.1-0.2-0.2-0.3C141.8,135.8,141.5,135.3,141.4,134.8z M142.9,135.6C142.9,135.6,142.9,135.6,142.9,135.6
						C142.9,135.6,142.9,135.5,142.9,135.6C142.9,135.6,142.9,135.6,142.9,135.6z M149.1,144.1C149.1,144.1,149.1,144.1,149.1,144.1
						C149.1,144.1,149.1,144.1,149.1,144.1C149.1,144.1,149.1,144.1,149.1,144.1z M152.2,147c-0.5-0.3-0.9-0.6-1.4-0.8
						c-0.1-0.1-0.3-0.1-0.5-0.1c0-0.1,0-0.2,0-0.3c0,0,0-0.1,0-0.1c0,0,0-0.1,0-0.1c0-0.1,0-0.1,0-0.2c0-0.1,0-0.1,0-0.2
						c0,0,0,0,0,0l0,0c0,0,0-0.1,0-0.1c0,0,0,0,0,0s0,0,0,0c0,0,0,0,0-0.1c0.1,0,0.2,0.1,0.3,0.1c0.2,0,0.3,0,0.5-0.1
						c0.1-0.1,0.2-0.1,0.2-0.2c0-0.1,0.1-0.1,0-0.2c0-0.1,0-0.1,0-0.2c0-0.1,0-0.2,0-0.3c0-0.1,0-0.3-0.1-0.4c0-0.1-0.1-0.2-0.1-0.2
						c0-0.1,0-0.1-0.1-0.2c0-0.1,0-0.1-0.1-0.2c0-0.1-0.1-0.1-0.1-0.2c0-0.1-0.1-0.1-0.1,0c0,0.1-0.1,0.1-0.1,0.2c0,0.1,0,0.1,0,0.2
						c0,0.1,0,0.2,0,0.2c0,0.1,0,0.1,0,0.2c0,0.1,0,0.2,0.1,0.2l0,0c0,0-0.1,0.1-0.1,0.2c0,0,0,0,0,0c-0.1,0-0.1,0-0.2,0.1
						c0,0,0,0,0,0c0,0,0,0,0,0c0,0-0.1,0-0.1,0l0,0c0,0,0,0-0.1,0c0,0-0.1,0-0.2,0c-0.2-0.1-0.3,0-0.5,0.1c0,0-0.1,0-0.1,0
						c0,0-0.1,0-0.2,0.1c0,0,0,0,0,0c-0.1-0.1-0.1-0.1-0.2-0.1c0,0,0,0,0,0c0,0-0.1,0-0.1,0c-0.1,0-0.1,0-0.2,0c0,0-0.1,0-0.1,0
						c0,0,0,0-0.1,0l0,0l0,0c0,0,0,0,0,0c0,0,0-0.1-0.1-0.1l0,0c0,0,0,0,0,0c0,0,0-0.1,0-0.1c0,0,0,0,0,0c0,0,0-0.1,0-0.1
						c0-0.1,0-0.1,0.1-0.2c0-0.1,0-0.1,0-0.2s0-0.1-0.1-0.2c0-0.1-0.1-0.1-0.1-0.2c0,0,0,0,0,0c0,0.1,0.1,0.2,0,0.3c0,0,0,0.1,0,0.1
						c0,0,0,0.1-0.1,0.1c0,0.1-0.1,0.1-0.1,0.2c0,0,0,0.1-0.1,0.1c0,0,0,0,0,0.1c0-0.1,0,0.1,0,0.1c-0.1,0.2,0,0.4,0.1,0.6
						c0,0.1,0,0.1,0,0.2c0,0.1,0.1,0.1,0.1,0.1c0,0,0.1,0.1,0.1,0.1c0,0,0,0,0,0c0.1,0,0.1,0.1,0.2,0.1c0.1,0,0.2,0,0.2,0
						c0,0,0.1,0,0.1,0c0,0,0,0.1,0.1,0.1c0,0,0,0.1,0,0.1c0,0,0,0.1,0,0.1c0,0.1,0,0.1,0,0.1c0,0.1,0,0.2,0,0.4c0,0.1,0,0.1,0,0.2
						c0,0,0,0,0,0v0c-0.4,0.1-0.7,0.3-1,0.5c-0.2,0.1-0.4,0.2-0.6,0.3c-0.2,0.1-0.5,0.1-0.7,0.2c-0.1,0-0.3,0-0.4,0
						c0.1-0.2,0.3-0.5,0.4-0.7c0,0,0,0,0,0c-0.3,0.1-0.5,0.4-0.7,0.6c-0.1-0.1-0.3-0.2-0.4-0.4c0,0,0-0.1,0-0.1
						c0.1-0.1,0.3-0.2,0.4-0.3c0.2-0.1,0.5-0.2,0.7-0.3c0,0,0,0,0,0c-0.4-0.1-0.9,0.1-1.2,0.3l0,0c0-0.1-0.1-0.2-0.1-0.3
						c0,0,0-0.1,0-0.1c0.4-0.2,0.7-0.4,1.2-0.5c0.1,0,0.1-0.1,0-0.1c-0.3-0.1-0.5-0.1-0.7-0.1c-0.2,0-0.3,0.1-0.5,0.1
						c0-0.1,0-0.1,0-0.1c0-0.1-0.2-0.1-0.2,0c0,0.1-0.1,0.2-0.1,0.3c-0.5,0.3-1,0.6-1.4,1c-0.4,0.3-0.8,0.5-1.2,0.7
						c0-0.3,0-0.5,0-0.8c0,0,0.1-0.1,0.1-0.1c0-0.7-0.1-1.2-0.4-1.8c-0.2-0.4-0.4-0.8-0.6-1.2c0-0.1,0-0.1,0-0.2
						c0-0.1-0.1-0.2-0.1-0.2c0-0.1-0.1-0.2-0.1-0.4c-0.1-0.7-0.2-1.4-0.1-2.1c0-0.4,0.2-0.8,0.2-1.2c0.3-0.4,0.6-0.9,0.6-1.4
						c0-0.4-0.2-0.8-0.4-1.1c0,0,0,0,0,0c0.2-0.1,0.3-0.3,0.4-0.6c0.1-0.2,0.1-0.4,0.2-0.5l0,0c0.1,0,0.2,0,0.3,0
						c0.1,0,0.3-0.1,0.4-0.2c0.1-0.1,0.3-0.2,0.4-0.3c0,0,0.1,0,0.1,0c0.4,0,0.7-0.2,0.9-0.5l0,0c0.3-0.3,0.6-0.6,0.9-0.9
						c0.4-0.3,0.8-0.4,1.3-0.5c1-0.2,1.9-0.5,2.9-0.4c0.9,0.1,1.7,0.4,2.5,0.8c0.8,0.4,1.6,0.8,2.2,1.4c0.1,0.1,0.2,0,0.2-0.1
						c0,0,0,0,0,0c0.1,0.1,0.1,0.2,0.2,0.2c0,0,0,0,0,0c-0.1-0.6-0.2-1.3,0-1.9c0.2-0.6,0.6-1.3,0.9-1.8c0.4-0.5,0.9-1,1.4-1.5
						c0.2-0.2,0.4-0.4,0.7-0.6c0.3-0.2,0.4-0.1,0.6,0.2c0.7,1.1,0.4,2.5,0,3.7c-0.1,0.4-0.2,0.7-0.4,1.1c-0.1,0.2-0.2,0.5-0.2,0.8
						c-0.1-0.2-0.2-0.3-0.4-0.5c-0.3-0.3-0.8-0.5-1-0.8c-0.2-0.3-0.3-0.7-0.2-1.1c0.1-0.5,0.5-0.8,0.6-1.3c0-0.1,0-0.1-0.1-0.1
						c-0.5,0.2-0.9,0.6-1.2,1c-0.3,0.5-0.5,1.1-0.4,1.7c0.1,0.6,0.7,1,1.2,1.3c0.2,0.1,0.4,0.3,0.6,0.4c0.2,0.1,0.3,0.2,0.5,0.3
						c0,0.1,0.1,0.1,0.1,0.2c0.1,0.5,0.3,1,0.4,1.4c0.2,0.9,0.5,1.8,0.5,2.8c0,1.5-0.8,2.8-1.4,4.1c0,0.1-0.1,0.1-0.1,0.1
						c-0.1,0.2-0.3,0.5-0.4,0.7c0,0.1-0.1,0.2-0.1,0.3c-0.1-0.3-0.3-0.6-0.3-1c-0.1-0.6-0.1-1.3,0-1.9c0,0,0,0,0,0
						c-0.3,0.4-0.4,0.8-0.5,1.3c0,0.6,0,1.1,0.1,1.7c0,0.2,0.1,0.3,0.1,0.5c-0.1-0.1-0.3-0.1-0.4-0.2c-0.7-0.4-1.7-1.3-2.5-0.8
						c0,0,0,0.1,0,0.1c0.5-0.1,0.8,0,1.2,0.2c0,0,0,0,0,0.1c0,0.2-0.1,0.3-0.1,0.5c0,0.1,0,0.1-0.1,0.2c-0.4-0.2-0.9-0.4-1.3-0.4
						c-0.1,0-0.1,0.1,0,0.1c0.5,0,0.9,0.3,1.2,0.5c0,0,0,0,0,0c-0.1,0.2-0.2,0.4-0.4,0.5c-0.4-0.3-0.8-0.5-1.3-0.6c0,0,0,0,0,0
						c0.4,0.1,0.8,0.4,1.1,0.8C153.1,147.4,152.5,147.3,152.2,147z M155.4,147c-0.3-0.2-0.5-0.4-0.8-0.6c0-0.1,0-0.3,0-0.4
						c0-0.2,0-0.3,0-0.5c0.1,0,0.1,0.1,0.2,0.1c0.4,0.3,0.8,0.7,1.3,0.9c0,0,0.1,0,0.1,0.1c0.1,0.3,0.2,0.6,0.3,0.8
						c0.1,0.1,0.1,0.3,0.2,0.4C156.3,147.6,155.8,147.4,155.4,147z"/>
				</g>
				<g>
					<path d="M157.2,190.3L157.2,190.3C157.2,190.3,157.1,190.3,157.2,190.3C157.1,190.4,157.1,190.4,157.2,190.3
						C157.1,190.4,157.2,190.3,157.2,190.3z"/>
				</g>
				<g>
					<path d="M158.8,189c0-0.2-0.2-0.4-0.4-0.5c-0.3-0.2-0.6,0-0.8,0.2c0,0,0,0.1-0.1,0.1c0,0.1,0,0.2,0,0.3c0,0.1,0,0.2,0,0.3
						c0-0.1,0-0.1,0-0.2c0,0.1-0.1,0.3-0.1,0.4c0,0.1-0.1,0.2-0.1,0.2c-0.1,0.1-0.1,0.3-0.1,0.4v0l0,0c0,0,0,0,0,0l0,0c0,0,0,0,0,0
						c0.1-0.1,0.1-0.1,0,0c0,0,0,0,0,0c0,0.1,0,0.1,0,0.2c0,0,0-0.1,0-0.1c0,0,0,0,0,0v0c0,0,0,0,0,0.1c0,0,0,0,0-0.1
						c0,0,0,0.1,0,0.1c0,0.1,0,0.1,0,0.2c0,0,0,0,0,0c0,0.2,0.2,0.3,0.4,0.4c0,0,0.1,0,0.1,0c0.1,0,0.2,0,0.3,0c0,0-0.1,0-0.2,0
						c0.6,0,0.8-0.6,1-1.1c0.1-0.2,0.1-0.4,0.1-0.6C158.9,189.3,158.8,189.2,158.8,189z"/>
				</g>
				<g>
					<path d="M157.6,191.1c0,0-0.1,0-0.1,0c0,0,0,0,0,0C157.5,191.1,157.6,191.1,157.6,191.1z"/>
				</g>
				<g>
					<path d="M157.2,190.3C157.2,190.3,157.2,190.3,157.2,190.3C157.2,190.3,157.2,190.4,157.2,190.3
						C157.1,190.3,157.2,190.3,157.2,190.3z"/>
				</g>
				<g>
					<path d="M155.5,188.7C155.5,188.6,155.5,188.6,155.5,188.7c0-0.1,0-0.1,0-0.2C155.5,188.5,155.5,188.6,155.5,188.7z"/>
				</g>
				<g>
					<path d="M156.5,188c-0.1-0.1-0.2-0.2-0.3-0.2l0,0c0,0-0.1-0.1-0.2-0.1s-0.2,0-0.2,0s-0.1,0.1-0.1,0.1l0,0
						c-0.1,0.1-0.1,0.1-0.2,0.2c-0.1,0.1-0.1,0.3-0.1,0.5c0,0.1,0,0.1,0,0.2c0,0.2-0.1,0.3-0.1,0.5c0,0.1-0.1,0.2-0.1,0.2
						s0,0.2,0,0.2c0,0,0,0.1,0,0.1c0,0,0,0.1,0,0.1c0,0.1,0,0.1,0,0c0,0.1,0.1,0.2,0.2,0.3c0.1,0.1,0.2,0.1,0.3,0c0,0,0,0-0.1,0
						c0,0,0.1,0,0.1,0c0,0,0,0,0,0c0.1,0,0.2-0.1,0.3-0.2s0.2-0.2,0.2-0.3c0.1-0.2,0.2-0.4,0.2-0.6c0.1-0.3,0.1-0.5,0-0.8
						C156.7,188.2,156.6,188.1,156.5,188z M155.9,187.8C155.9,187.8,155.9,187.8,155.9,187.8C156,187.8,156,187.8,155.9,187.8z
						 M156.1,187.8C156.1,187.8,156.1,187.8,156.1,187.8L156.1,187.8C156.1,187.8,156.1,187.8,156.1,187.8L156.1,187.8z"/>
				</g>
				<g>
					<path d="M140.9,150.4c-0.3,0.4-0.5,0.8-0.7,1.3c-0.2,0.4-0.4,0.9-0.7,1.3c-0.5,0.8-1.1,1.6-1.8,2.3c-0.1,0.1,0,0.4,0.2,0.3
						c0.9-0.6,1.6-1.3,2.2-2.2c0.3-0.4,0.6-0.9,0.8-1.3c0.2-0.5,0.4-1,0.4-1.6C141.3,150.3,141,150.3,140.9,150.4z"/>
				</g>
				<g>
					<path d="M144,158.1c0.2-0.9,0.7-1.8,0.6-2.7c0-0.1-0.2-0.2-0.3-0.1c-0.7,0.7-1,1.8-1.2,2.6c-0.3,1-0.5,2-0.5,3
						c-0.1,1.7,0.4,3.8,1.7,4.9c0.2,0.2,0.4,0,0.3-0.2c-0.4-0.8-0.7-1.5-0.9-2.3c-0.2-0.8-0.2-1.7-0.2-2.5
						C143.6,159.9,143.8,159,144,158.1z"/>
				</g>
				<g>
					<path d="M156.5,158.5c1-2.3,1.8-4.9,0.5-7.3c0-0.1-0.2,0-0.2,0.1c0.7,2.3-0.1,4.8-0.6,7.1C156.2,158.6,156.4,158.7,156.5,158.5
						z"/>
				</g>
				<g>
					<path d="M125.8,165.2c-0.5,0.4-0.8,1.1-1.1,1.7c-0.3,0.6-0.5,1.3-0.6,2c-0.3,1.4-0.3,2.8,0,4.1c0,0.2,0.3,0.1,0.3,0
						c0.1-1.3,0.2-2.6,0.5-3.9c0.1-0.6,0.3-1.2,0.5-1.8c0.2-0.6,0.5-1.3,0.6-1.9C126,165.2,125.9,165.1,125.8,165.2z"/>
				</g>
			</g>
		</g>
	</g>
</g>
</svg>
